<svg id="esl18C7vbPK1" xmlns="http://www.w3.org/2000/svg" xmlns:xlink="http://www.w3.org/1999/xlink" viewBox="0 0 1200 675" shape-rendering="geometricPrecision" text-rendering="geometricPrecision" project-id="b0571cbdb25b44cfad566eca8cc55ba6" export-id="a05cbaab5b4c4aea9b5ec19c44bafeb8" cached="false">
<style><![CDATA[
#esl18C7vbPK8 {animation: esl18C7vbPK8__sz 12000ms linear infinite normal forwards}@keyframes esl18C7vbPK8__sz { 0% {width: 400px;height: 110px;animation-timing-function: cubic-bezier(0.42,0,0.58,1)} 22.333333% {width: 600px;height: 110px;animation-timing-function: cubic-bezier(0.42,0,0.58,1)} 50.833333% {width: 600px;height: 110px;animation-timing-function: cubic-bezier(0.42,0,0.58,1)} 67.5% {width: 400px;height: 110px} 100% {width: 400px;height: 110px}} #esl18C7vbPK9 {animation: esl18C7vbPK9__sz 12000ms linear infinite normal forwards}@keyframes esl18C7vbPK9__sz { 0% {width: 400px;height: 110px;animation-timing-function: cubic-bezier(0.42,0,0.58,1)} 22.333333% {width: 200px;height: 110px;animation-timing-function: cubic-bezier(0.42,0,0.58,1)} 50.833333% {width: 200px;height: 110px;animation-timing-function: cubic-bezier(0.42,0,0.58,1)} 67.5% {width: 400px;height: 110px} 100% {width: 400px;height: 110px}} #esl18C7vbPK9_to {animation: esl18C7vbPK9_to__to 12000ms linear infinite normal forwards}@keyframes esl18C7vbPK9_to__to { 0% {transform: translate(800px,400px);animation-timing-function: cubic-bezier(0.42,0,0.58,1)} 22.333333% {transform: translate(1000px,400px);animation-timing-function: cubic-bezier(0.42,0,0.58,1)} 50.833333% {transform: translate(1000px,400px);animation-timing-function: cubic-bezier(0.42,0,0.58,1)} 67.5% {transform: translate(800px,400px)} 100% {transform: translate(800px,400px)}} #esl18C7vbPK12 {animation: esl18C7vbPK12__sz 12000ms linear infinite normal forwards}@keyframes esl18C7vbPK12__sz { 0% {width: 500px;height: 110px} 10.833333% {width: 500px;height: 110px;animation-timing-function: cubic-bezier(0.42,0,0.58,1)} 34.166667% {width: 650px;height: 110px;animation-timing-function: cubic-bezier(0.42,0,0.58,1)} 55% {width: 650px;height: 110px;animation-timing-function: cubic-bezier(0.42,0,0.58,1)} 78.333333% {width: 500px;height: 110px} 100% {width: 500px;height: 110px}} #esl18C7vbPK13_to {animation: esl18C7vbPK13_to__to 12000ms linear infinite normal forwards}@keyframes esl18C7vbPK13_to__to { 0% {transform: translate(1095.400024px,510px)} 10.833333% {transform: translate(1095.400024px,510px);animation-timing-function: cubic-bezier(0.42,0,0.58,1)} 34.166667% {transform: translate(1245.400024px,510px);animation-timing-function: cubic-bezier(0.42,0,0.58,1)} 55% {transform: translate(1245.400024px,510px);animation-timing-function: cubic-bezier(0.42,0,0.58,1)} 78.333333% {transform: translate(1095.400024px,510px)} 100% {transform: translate(1095.400024px,510px)}} #esl18C7vbPK14 {animation: esl18C7vbPK14__sz 12000ms linear infinite normal forwards}@keyframes esl18C7vbPK14__sz { 0% {width: 513.16px;height: 110px} 33.333333% {width: 513.16px;height: 110px;animation-timing-function: cubic-bezier(0.42,0,0.58,1)} 50% {width: 713.16px;height: 110px;animation-timing-function: cubic-bezier(0.42,0,0.58,1)} 75% {width: 713.16px;height: 110px;animation-timing-function: cubic-bezier(0.42,0,0.58,1)} 91.666667% {width: 513.16px;height: 110px} 100% {width: 513.16px;height: 110px}} #esl18C7vbPK15_to {animation: esl18C7vbPK15_to__to 12000ms linear infinite normal forwards}@keyframes esl18C7vbPK15_to__to { 0% {transform: translate(836.960022px,620px)} 33.333333% {transform: translate(836.960022px,620px);animation-timing-function: cubic-bezier(0.42,0,0.58,1)} 50% {transform: translate(1036.960022px,620px);animation-timing-function: cubic-bezier(0.42,0,0.58,1)} 75% {transform: translate(1036.960022px,620px);animation-timing-function: cubic-bezier(0.42,0,0.58,1)} 91.666667% {transform: translate(836.960022px,620px)} 100% {transform: translate(836.960022px,620px)}} #esl18C7vbPK20 {animation: esl18C7vbPK20__sz 12000ms linear infinite normal forwards}@keyframes esl18C7vbPK20__sz { 0% {width: 403.83px;height: 2.34px} 10.833333% {width: 403.83px;height: 2.34px;animation-timing-function: cubic-bezier(0.42,0,0.58,1)} 34.166667% {width: 553.83px;height: 2.34px;animation-timing-function: cubic-bezier(0.42,0,0.58,1)} 55% {width: 553.83px;height: 2.34px;animation-timing-function: cubic-bezier(0.42,0,0.58,1)} 78.333333% {width: 403.83px;height: 2.34px} 100% {width: 403.83px;height: 2.34px}} #esl18C7vbPK21_to {animation: esl18C7vbPK21_to__to 12000ms linear infinite normal forwards}@keyframes esl18C7vbPK21_to__to { 0% {transform: translate(734.350006px,512.100006px)} 10.833333% {transform: translate(734.350006px,512.100006px);animation-timing-function: cubic-bezier(0.42,0,0.58,1)} 34.166667% {transform: translate(884.350006px,512.100006px);animation-timing-function: cubic-bezier(0.42,0,0.58,1)} 55% {transform: translate(884.350006px,512.100006px);animation-timing-function: cubic-bezier(0.42,0,0.58,1)} 78.333333% {transform: translate(734.350006px,512.100006px)} 100% {transform: translate(734.350006px,512.100006px)}}
]]></style>
<defs><linearGradient id="esl18C7vbPK8-fill" x1="0" y1="55" x2="400" y2="55" spreadMethod="pad" gradientUnits="userSpaceOnUse" gradientTransform="translate(0 0)"><stop id="esl18C7vbPK8-fill-0" offset="0%" stop-color="#b69fff"/><stop id="esl18C7vbPK8-fill-1" offset="100%" stop-color="#ff6c03"/></linearGradient><linearGradient id="esl18C7vbPK11-fill" x1="0" y1="55" x2="413.16" y2="55" spreadMethod="pad" gradientUnits="userSpaceOnUse" gradientTransform="translate(0 0)"><stop id="esl18C7vbPK11-fill-0" offset="0%" stop-color="#ff6c03"/><stop id="esl18C7vbPK11-fill-1" offset="100%" stop-color="#f8de01"/></linearGradient><linearGradient id="esl18C7vbPK13-fill" x1="0" y1="55" x2="590.8" y2="55" spreadMethod="pad" gradientUnits="userSpaceOnUse" gradientTransform="translate(0 0)"><stop id="esl18C7vbPK13-fill-0" offset="0%" stop-color="#b69fff"/><stop id="esl18C7vbPK13-fill-1" offset="100%" stop-color="#006f59"/></linearGradient><linearGradient id="esl18C7vbPK18-fill" x1="0" y1="55" x2="373.92" y2="55" spreadMethod="pad" gradientUnits="userSpaceOnUse" gradientTransform="translate(0 0)"><stop id="esl18C7vbPK18-fill-0" offset="0%" stop-color="#ff6c03"/><stop id="esl18C7vbPK18-fill-1" offset="100%" stop-color="#f8de01"/></linearGradient></defs><g><rect width="1200" height="675" rx="0" ry="0" fill="#38182f"/></g><g><rect width="1200" height="330" rx="0" ry="0" transform="translate(0 345)" fill="#006f59"/><path d="M688.89,207.96c13.54,0,19.07,9.63,19.07,33.18s-5.62,33.18-19.07,33.18-19.07-9.73-19.07-33.18s5.62-33.18,19.07-33.18Zm131.84,0c10.77,0,15.73,6.1,16.78,21.65l-12.59,1.62c-.28-9.06-1.33-11.44-4.29-11.44s-4.48,2.19-4.48,6.01c0,14.21,21.93,7.82,21.93,30.61c0,11.54-6.48,17.93-18.31,17.93s-17.83-6.77-18.97-22.98l13.25-1.14c.67,9.34,2.28,12.3,6.01,12.3c2.86,0,4.48-2.1,4.48-5.44c0-12.78-21.55-7.63-21.55-30.7c0-11.82,6.39-18.4,17.74-18.4v-.02ZM666.7,221.69h-14.88v13.35h10.97v12.49h-10.97v25.55h-13.82v-63.89h28.7v12.49.01Zm71.39,16.02c.48,1.43,1.91,1.14,1.91-.19l-.38-28.32h12.3v63.89h-12.01l-11.25-36.62c-.48-1.33-1.91-1.14-1.91.29l.38,36.33h-12.3v-63.89h14.78l8.49,28.51h-.01Zm38.59-28.51c14.97,0,20.31,8.39,20.31,31.94s-5.34,31.94-20.31,31.94h-16.78v-63.89h16.78v.01Zm-87.79,11.63c-3.43,0-4.96,3.24-4.96,10.58v19.45c0,7.44,1.52,10.58,4.96,10.58s4.96-3.24,4.96-10.58v-19.45c0-7.44-1.62-10.58-4.96-10.58Zm84.83,39.76h3.24c4.2,0,5.91-3.15,5.91-10.49v-17.93c0-7.44-1.81-10.49-5.91-10.49h-3.24v38.9.01Zm-220.73-76c0,3.62,1.52,5.34,4.58,5.34s4.57-1.81,4.57-5.34v-46.91h13.83v47.39c0,11.06-7.06,17.74-18.4,17.74s-18.4-6.77-18.4-17.74v-47.39h13.82v46.91Zm48.8-48.15c12.11,0,17.16,7.63,17.26,26.6l-12.97,1.14c-.09-11.73-1.14-14.88-4.67-14.88s-4.67,3.05-4.67,10.58v19.36c0,7.82,1.24,10.58,4.67,10.58s4.67-3.15,5.53-14.68l12.87,1.53c-.76,18.21-6.39,26.13-18.3,26.13-13.25,0-18.88-9.92-18.88-33.28s5.72-33.09,19.17-33.09l-.01.01Zm177.32,0c12.11,0,17.64,6.96,17.83,22.79l-13.06,1.14c-.38-8.87-1.62-11.25-5.34-11.25-3.91,0-5.34,2.86-5.34,10.58v19.93c0,7.91,1.43,10.58,5.15,10.58s4.96-2.67,4.96-10.78c0-.95-.28-1.24-1.04-1.24h-5.25v-12.11h19.45v11.63c0,17.26-5.72,25.08-18.12,25.08-13.92,0-19.26-9.15-19.26-33.28s5.82-33.09,20.03-33.09l-.01.02Zm41.2,0c10.78,0,15.74,6.1,16.79,21.65l-12.59,1.62c-.28-9.06-1.33-11.44-4.29-11.44s-4.48,2.19-4.48,6.01c0,14.21,21.93,7.82,21.93,30.61c0,11.54-6.48,17.93-18.3,17.93s-17.83-6.77-18.98-22.98l13.25-1.14c.67,9.34,2.29,12.3,6.01,12.3c2.86,0,4.48-2.1,4.48-5.44c0-12.78-21.55-7.63-21.55-30.7c0-11.82,6.38-18.4,17.73-18.4v-.02ZM684.38,184.59c0,3.62,1.52,5.34,4.57,5.34s4.58-1.81,4.58-5.34v-46.91h13.82v47.39c0,11.06-7.06,17.74-18.4,17.74s-18.4-6.77-18.4-17.74v-47.39h13.83v46.91ZM468.71,137.68c12.4,0,19.64,5.82,19.64,15.64c0,7.06-3.82,11.44-11.06,13.25-1.05.19-.86,1.33.1,1.43c8.3,1.14,12.68,6.48,12.68,15.07c0,12.01-7.25,18.5-20.41,18.5h-18.5v-63.89h17.55Zm44.99,0c12.96,0,19.74,6.1,19.74,17.55c0,8.96-4.1,14.4-11.82,15.92-1.05.19-.86,1.33.09,1.53c6.77,1.14,9.16,4.01,9.16,10.49v18.4h-13.83v-19.83c0-2.86-1.14-4.1-3.43-4.1h-4v23.93h-13.83v-63.89h17.93-.01Zm125.41,21.74c0,1.43,1.34,1.72,1.91.57l10.87-22.31h14.4l-11.54,20.88l11.35,43h-14.21l-6.96-30.42-5.33,10.77v19.64h-13.83v-63.89h13.83l-.48,21.74-.01.02Zm99.31,6.77c.48,1.43,1.91,1.14,1.91-.19l-.38-28.32h12.3v63.89h-12.01l-11.25-36.62c-.48-1.33-1.91-1.14-1.91.29l.38,36.33h-12.3v-63.89h14.78l8.48,28.51ZM464.99,189.65h5.15c4,0,5.82-2.57,5.82-8.2s-1.81-7.82-5.82-7.82h-5.15v16.02ZM509.6,166.1h4.57c3.62,0,5.06-2.38,5.06-8.2s-1.53-8.3-5.06-8.3h-4.57v16.5Zm-44.61-3.63h3.53c4.1,0,5.72-2,5.72-6.48s-1.72-6.39-5.72-6.39h-3.53v12.87Zm-89.24-47.71c0,3.62,1.53,5.34,4.58,5.34s4.58-1.81,4.58-5.34v-46.91h13.83v47.39c0,11.06-7.06,17.74-18.4,17.74s-18.4-6.77-18.4-17.74v-47.39h13.83v46.91h-.02Zm172.66,1.75c4.29,0,7.44,3.53,7.44,8.11s-3.25,8.1-7.44,8.1-7.44-3.53-7.44-8.1s3.24-8.11,7.44-8.11Zm17.74,0c4.29,0,7.43,3.53,7.43,8.11s-3.14,8.1-7.43,8.1-7.44-3.53-7.44-8.1s3.24-8.11,7.44-8.11ZM424.07,67.85c12.4,0,19.64,5.82,19.64,15.64c0,7.06-3.81,11.44-11.06,13.25-1.05.19-.86,1.33.1,1.43c8.3,1.14,12.68,6.48,12.68,15.07c0,12.01-7.25,18.5-20.41,18.5h-18.5v-63.89h17.54.01Zm55.76,11.92h-14.88v12.01h11.16v11.63h-11.16v16.4h15.64v11.92h-29.46v-63.89h28.7v11.92.01Zm24.24-11.92c12.97,0,19.74,6.1,19.74,17.55c0,8.96-4.1,14.4-11.82,15.92-1.05.19-.86,1.33.1,1.53c6.77,1.14,9.15,4,9.15,10.49v18.4h-13.82v-19.83c0-2.86-1.15-4.1-3.43-4.1h-4.01v23.93h-13.83v-63.89h17.93-.01Zm-83.72,51.96h5.15c4,0,5.82-2.57,5.82-8.2s-1.81-7.82-5.82-7.82h-5.15v16.02Zm79.62-23.55h4.57c3.62,0,5.06-2.38,5.06-8.2s-1.52-8.3-5.06-8.3h-4.57v16.5Zm-79.62-3.62h3.53c4.1,0,5.72-2,5.72-6.48s-1.72-6.39-5.72-6.39h-3.53v12.87ZM371.17,46.68c4.29,0,7.44,3.53,7.44,8.1s-3.24,8.11-7.44,8.11-7.44-3.53-7.44-8.11s3.24-8.1,7.44-8.1Zm17.74,0c4.29,0,7.44,3.53,7.44,8.1s-3.15,8.11-7.44,8.11-7.44-3.53-7.44-8.11s3.24-8.1,7.44-8.1Z" fill="#b69fff"/><rect width="313.16" height="110" rx="55" ry="55" transform="translate(-113.16 345)" fill="#f4eeee"/><rect id="esl18C7vbPK8" width="400" height="110" rx="55" ry="55" transform="translate(200 345)" fill="url(#esl18C7vbPK8-fill)"/><g id="esl18C7vbPK9_to" transform="translate(800,400)"><rect id="esl18C7vbPK9" width="400" height="110" rx="55" ry="55" transform="translate(-200,-55)" fill="#f8de01"/></g><rect width="373.92" height="110" rx="55" ry="55" transform="translate(1000 345)" fill="#f4eeee"/><rect width="413.16" height="110" rx="55" ry="55" transform="translate(-113.16 455)" fill="url(#esl18C7vbPK11-fill)"/><rect id="esl18C7vbPK12" width="500" height="110" rx="55" ry="55" transform="translate(300 455)" fill="#38182f"/><g id="esl18C7vbPK13_to" transform="translate(1095.400024,510)"><rect width="590.8" height="110" rx="55" ry="55" transform="translate(-295.400024,-55)" fill="url(#esl18C7vbPK13-fill)"/></g><rect id="esl18C7vbPK14" width="513.16" height="110" rx="55" ry="55" transform="translate(-113.16 565)" fill="#b69fff"/><g id="esl18C7vbPK15_to" transform="translate(836.960022,620)"><g transform="translate(-836.960022,-620)"><rect width="300" height="110" rx="55" ry="55" transform="translate(400 565)" fill="#ff6c03"/><rect width="200" height="110" rx="55" ry="55" transform="translate(700 565)" fill="#f4eeee"/><rect width="373.92" height="110" rx="55" ry="55" transform="translate(900 565)" fill="url(#esl18C7vbPK18-fill)"/></g></g><g><rect id="esl18C7vbPK20" width="403.83" height="2.34" rx="0" ry="0" transform="translate(348.33 510.93)" fill="#f4eeee"/><g id="esl18C7vbPK21_to" transform="translate(734.350006,512.100006)"><polyline points="715.52,480.75 753.18,512.1 715.52,543.45" transform="translate(-734.350006,-512.100006)" fill="none" stroke="#f4eeee" stroke-width="2.34" stroke-miterlimit="10"/></g></g></g></svg>
