<svg id="e0fMYbuoRd11" xmlns="http://www.w3.org/2000/svg" xmlns:xlink="http://www.w3.org/1999/xlink" viewBox="0 0 675 675" shape-rendering="geometricPrecision" text-rendering="geometricPrecision" project-id="f292823b8e8541eca42bab9224d3e3e1" export-id="38aa518aabde4b42aa53cbb9f36b3081" cached="false">
<style><![CDATA[
#e0fMYbuoRd15 {animation: e0fMYbuoRd15__sz 11000ms linear infinite normal forwards}@keyframes e0fMYbuoRd15__sz { 0% {width: 400px;height: 110px} 10.909091% {width: 400px;height: 110px;animation-timing-function: cubic-bezier(0.42,0,0.58,1)} 29.090909% {width: 500px;height: 110px;animation-timing-function: cubic-bezier(0.42,0,0.58,1)} 47.272727% {width: 500px;height: 110px;animation-timing-function: cubic-bezier(0.42,0,0.58,1)} 65.454545% {width: 400px;height: 110px} 100% {width: 400px;height: 110px}} #e0fMYbuoRd16_to {animation: e0fMYbuoRd16_to__to 11000ms linear infinite normal forwards}@keyframes e0fMYbuoRd16_to__to { 0% {transform: translate(537.5px,55.55px)} 10.909091% {transform: translate(537.5px,55.55px);animation-timing-function: cubic-bezier(0.42,0,0.58,1)} 29.090909% {transform: translate(637.5px,55.55px);animation-timing-function: cubic-bezier(0.38093,0,0.705181,0.396936)} 33.909091% {transform: translate(637.5px,55px);animation-timing-function: cubic-bezier(0.335959,0.324645,0.565913,1)} 47.272727% {transform: translate(637.5px,55.55px);animation-timing-function: cubic-bezier(0.42,0,0.58,1)} 65.454545% {transform: translate(537.5px,55.55px)} 100% {transform: translate(537.5px,55.55px)}} #e0fMYbuoRd18 {animation: e0fMYbuoRd18__sz 11000ms linear infinite normal forwards}@keyframes e0fMYbuoRd18__sz { 0% {width: 435.9px;height: 110px;animation-timing-function: cubic-bezier(0.42,0,0.58,1)} 18.181818% {width: 535.9px;height: 110px;animation-timing-function: cubic-bezier(0.42,0,0.58,1)} 53.636364% {width: 535.9px;height: 110px;animation-timing-function: cubic-bezier(0.42,0,0.58,1)} 71.818182% {width: 435.9px;height: 110px} 100% {width: 435.9px;height: 110px}} #e0fMYbuoRd19_to {animation: e0fMYbuoRd19_to__to 11000ms linear infinite normal forwards}@keyframes e0fMYbuoRd19_to__to { 0% {transform: translate(668.89502px,165.550003px);animation-timing-function: cubic-bezier(0.42,0,0.58,1)} 18.181818% {transform: translate(768.89502px,165.550003px);animation-timing-function: cubic-bezier(0.412172,0,0.71327,0.469626)} 33.909091% {transform: translate(770.282859px,165.000003px);animation-timing-function: cubic-bezier(0.296516,0.465426,0.57376,1)} 53.636364% {transform: translate(768.89502px,165.550003px);animation-timing-function: cubic-bezier(0.42,0,0.58,1)} 71.818182% {transform: translate(668.89502px,165.550003px)} 100% {transform: translate(668.89502px,165.550003px)}} #e0fMYbuoRd111 {animation: e0fMYbuoRd111__sz 11000ms linear infinite normal forwards}@keyframes e0fMYbuoRd111__sz { 0% {width: 300px;height: 110px} 9.090909% {width: 300px;height: 110px;animation-timing-function: cubic-bezier(0.42,0,0.58,1)} 27.272727% {width: 500px;height: 110px;animation-timing-function: cubic-bezier(0.42,0,0.58,1)} 54.545455% {width: 500px;height: 110px;animation-timing-function: cubic-bezier(0.42,0,0.58,1)} 72.727273% {width: 300px;height: 110px} 100% {width: 300px;height: 110px}} #e0fMYbuoRd112_to {animation: e0fMYbuoRd112_to__to 11000ms linear infinite normal forwards}@keyframes e0fMYbuoRd112_to__to { 0% {transform: translate(676.674988px,510px)} 9.090909% {transform: translate(676.674988px,510px);animation-timing-function: cubic-bezier(0.42,0,0.58,1)} 27.272727% {transform: translate(876.674988px,510px);animation-timing-function: cubic-bezier(0.42,0,0.58,1)} 54.545455% {transform: translate(876.674988px,510px);animation-timing-function: cubic-bezier(0.42,0,0.58,1)} 72.727273% {transform: translate(676.674988px,510px)} 100% {transform: translate(676.674988px,510px)}} #e0fMYbuoRd113 {animation: e0fMYbuoRd113__sz 11000ms linear infinite normal forwards}@keyframes e0fMYbuoRd113__sz { 0% {width: 515.52px;height: 110px} 18.181818% {width: 515.52px;height: 110px;animation-timing-function: cubic-bezier(0.42,0,0.58,1)} 36.363636% {width: 615.52px;height: 110px;animation-timing-function: cubic-bezier(0.42,0,0.58,1)} 63.636364% {width: 615.52px;height: 110px;animation-timing-function: cubic-bezier(0.42,0,0.58,1)} 81.818182% {width: 515.52px;height: 110px} 100% {width: 515.52px;height: 110px}} #e0fMYbuoRd114 {animation: e0fMYbuoRd114__sz 11000ms linear infinite normal forwards}@keyframes e0fMYbuoRd114__sz { 0% {width: 239.17px;height: 110px} 18.181818% {width: 239.17px;height: 110px;animation-timing-function: cubic-bezier(0.42,0,0.58,1)} 36.363636% {width: 139.17px;height: 110px;animation-timing-function: cubic-bezier(0.42,0,0.58,1)} 63.636364% {width: 139.17px;height: 110px;animation-timing-function: cubic-bezier(0.42,0,0.58,1)} 81.818182% {width: 239.17px;height: 110px} 100% {width: 239.17px;height: 110px}} #e0fMYbuoRd114_to {animation: e0fMYbuoRd114_to__to 11000ms linear infinite normal forwards}@keyframes e0fMYbuoRd114_to__to { 0% {transform: translate(472.024994px,620px)} 18.181818% {transform: translate(472.024994px,620px);animation-timing-function: cubic-bezier(0.42,0,0.58,1)} 36.363636% {transform: translate(572.024994px,620px);animation-timing-function: cubic-bezier(0.42,0,0.58,1)} 63.636364% {transform: translate(572.024994px,620px);animation-timing-function: cubic-bezier(0.42,0,0.58,1)} 81.818182% {transform: translate(472.024994px,620px)} 100% {transform: translate(472.024994px,620px)}} #e0fMYbuoRd117 {animation: e0fMYbuoRd117__sz 11000ms linear infinite normal forwards}@keyframes e0fMYbuoRd117__sz { 0% {width: 354.83px;height: 2.34px;animation-timing-function: cubic-bezier(0.42,0,0.58,1)} 18.181818% {width: 454.83px;height: 2.34px;animation-timing-function: cubic-bezier(0.42,0,0.58,1)} 53.636364% {width: 454.83px;height: 2.34px;animation-timing-function: cubic-bezier(0.42,0,0.58,1)} 71.818182% {width: 354.83px;height: 2.34px} 100% {width: 354.83px;height: 2.34px}} #e0fMYbuoRd118_to {animation: e0fMYbuoRd118_to__to 11000ms linear infinite normal forwards}@keyframes e0fMYbuoRd118_to__to { 0% {transform: translate(469.024994px,167.659996px);animation-timing-function: cubic-bezier(0.42,0,0.58,1)} 18.181818% {transform: translate(569.024994px,167.659996px);animation-timing-function: cubic-bezier(0.42,0,0.58,1)} 53.636364% {transform: translate(569.024994px,167.659996px);animation-timing-function: cubic-bezier(0.42,0,0.58,1)} 71.818182% {transform: translate(469.024994px,167.659996px)} 100% {transform: translate(469.024994px,167.659996px)}} #e0fMYbuoRd120 {animation: e0fMYbuoRd120__sz 11000ms linear infinite normal forwards}@keyframes e0fMYbuoRd120__sz { 0% {width: 424.83px;height: 2.34px} 18.181818% {width: 424.83px;height: 2.34px;animation-timing-function: cubic-bezier(0.42,0,0.58,1)} 36.363636% {width: 524.83px;height: 2.34px;animation-timing-function: cubic-bezier(0.42,0,0.58,1)} 63.636364% {width: 524.83px;height: 2.34px;animation-timing-function: cubic-bezier(0.42,0,0.58,1)} 81.818182% {width: 424.83px;height: 2.34px} 100% {width: 424.83px;height: 2.34px}} #e0fMYbuoRd121_to {animation: e0fMYbuoRd121_to__to 11000ms linear infinite normal forwards}@keyframes e0fMYbuoRd121_to__to { 0% {transform: translate(291.099991px,620px)} 18.181818% {transform: translate(291.099991px,620px);animation-timing-function: cubic-bezier(0.42,0,0.58,1)} 36.363636% {transform: translate(391.099991px,620px);animation-timing-function: cubic-bezier(0.42,0,0.58,1)} 63.636364% {transform: translate(391.099991px,620px);animation-timing-function: cubic-bezier(0.42,0,0.58,1)} 81.818182% {transform: translate(291.099991px,620px)} 100% {transform: translate(291.099991px,620px)}}
]]></style>
<defs><linearGradient id="e0fMYbuoRd15-fill" x1="0" y1="55" x2="400" y2="55" spreadMethod="pad" gradientUnits="userSpaceOnUse" gradientTransform="translate(0 0)"><stop id="e0fMYbuoRd15-fill-0" offset="0%" stop-color="#b69fff"/><stop id="e0fMYbuoRd15-fill-1" offset="100%" stop-color="#ff6c03"/></linearGradient><linearGradient id="e0fMYbuoRd17-fill" x1="0" y1="55" x2="258.06" y2="55" spreadMethod="pad" gradientUnits="userSpaceOnUse" gradientTransform="translate(0 0)"><stop id="e0fMYbuoRd17-fill-0" offset="0%" stop-color="#ff6c03"/><stop id="e0fMYbuoRd17-fill-1" offset="100%" stop-color="#f8de01"/></linearGradient><linearGradient id="e0fMYbuoRd19-fill" x1="0" y1="55" x2="290.99" y2="55" spreadMethod="pad" gradientUnits="userSpaceOnUse" gradientTransform="translate(0 0)"><stop id="e0fMYbuoRd19-fill-0" offset="0%" stop-color="#b69fff"/><stop id="e0fMYbuoRd19-fill-1" offset="100%" stop-color="#006f59"/></linearGradient><linearGradient id="e0fMYbuoRd113-fill" x1="0" y1="55" x2="515.52" y2="55" spreadMethod="pad" gradientUnits="userSpaceOnUse" gradientTransform="translate(0 0)"><stop id="e0fMYbuoRd113-fill-0" offset="0%" stop-color="#ff6c03"/><stop id="e0fMYbuoRd113-fill-1" offset="100%" stop-color="#f8de01"/></linearGradient><linearGradient id="e0fMYbuoRd115-fill" x1="0" y1="55" x2="278.35" y2="55" spreadMethod="pad" gradientUnits="userSpaceOnUse" gradientTransform="translate(0 0)"><stop id="e0fMYbuoRd115-fill-0" offset="0%" stop-color="#b69fff"/><stop id="e0fMYbuoRd115-fill-1" offset="100%" stop-color="#ff6c03"/></linearGradient></defs><g><rect width="675" height="675" rx="0" ry="0" fill="#38182f"/></g><path d="M402.17,366.02c9.85,0,13.87,7.01,13.87,24.14s-4.09,24.14-13.87,24.14-13.87-7.08-13.87-24.14s4.09-24.14,13.87-24.14Zm95.9,0c7.84,0,11.44,4.44,12.21,15.75l-9.16,1.18c-.21-6.59-.97-8.32-3.12-8.32s-3.26,1.6-3.26,4.37c0,10.34,15.96,5.69,15.96,22.27c0,8.39-4.72,13.04-13.32,13.04s-12.97-4.92-13.8-16.72l9.64-.83c.49,6.8,1.66,8.95,4.37,8.95c2.08,0,3.26-1.53,3.26-3.95c0-9.3-15.68-5.55-15.68-22.34c0-8.6,4.65-13.39,12.9-13.39v-.01Zm-112.04,9.99h-10.82v9.71h7.98v9.09h-7.98v18.59h-10.06v-46.48h20.88v9.09Zm51.93,11.66c.35,1.04,1.39.83,1.39-.14l-.28-20.6h8.95v46.48h-8.74l-8.19-26.64c-.35-.97-1.39-.83-1.39.21l.28,26.43h-8.95v-46.48h10.75l6.18,20.74Zm28.07-20.74c10.89,0,14.78,6.1,14.78,23.24s-3.88,23.24-14.78,23.24h-12.21v-46.48h12.21Zm-63.86,8.46c-2.5,0-3.61,2.36-3.61,7.7v14.15c0,5.41,1.11,7.7,3.61,7.7s3.61-2.36,3.61-7.7v-14.15c0-5.41-1.18-7.7-3.61-7.7Zm61.71,28.93h2.36c3.05,0,4.3-2.29,4.3-7.63v-13.04c0-5.41-1.32-7.63-4.3-7.63h-2.36v28.3ZM303.3,349.03c0,2.64,1.11,3.88,3.33,3.88s3.33-1.32,3.33-3.88v-34.13h10.06v34.48c0,8.05-5.13,12.9-13.39,12.9s-13.39-4.92-13.39-12.9v-34.48h10.06v34.13ZM338.8,314c8.81,0,12.49,5.55,12.56,19.35l-9.44.83c-.07-8.53-.83-10.82-3.4-10.82s-3.4,2.22-3.4,7.7v14.08c0,5.69.9,7.7,3.4,7.7s3.4-2.29,4.02-10.68l9.36,1.11c-.55,13.25-4.65,19.01-13.32,19.01-9.64,0-13.74-7.21-13.74-24.21s4.16-24.07,13.94-24.07h.02Zm129,0c8.81,0,12.83,5.06,12.97,16.58l-9.5.83c-.28-6.45-1.18-8.19-3.88-8.19-2.84,0-3.88,2.08-3.88,7.7v14.5c0,5.76,1.04,7.7,3.75,7.7s3.61-1.94,3.61-7.84c0-.69-.21-.9-.76-.9h-3.82v-8.81h14.15v8.46c0,12.56-4.16,18.24-13.18,18.24-10.13,0-14.01-6.66-14.01-24.21s4.23-24.07,14.57-24.07l-.02.01Zm29.97,0c7.84,0,11.45,4.44,12.21,15.75l-9.16,1.18c-.21-6.59-.97-8.32-3.12-8.32s-3.26,1.6-3.26,4.37c0,10.34,15.95,5.69,15.95,22.27c0,8.39-4.72,13.04-13.32,13.04s-12.97-4.92-13.81-16.72l9.64-.83c.49,6.8,1.67,8.95,4.37,8.95c2.08,0,3.26-1.53,3.26-3.95c0-9.3-15.67-5.55-15.67-22.34c0-8.6,4.64-13.39,12.9-13.39l.01-.01Zm-98.89,35.03c0,2.64,1.11,3.88,3.33,3.88s3.33-1.32,3.33-3.88v-34.13h10.06v34.48c0,8.05-5.13,12.9-13.39,12.9s-13.39-4.92-13.39-12.9v-34.48h10.06v34.13ZM241.99,314.9c9.02,0,14.29,4.23,14.29,11.38c0,5.13-2.78,8.32-8.05,9.64-.76.14-.62.97.07,1.04c6.04.83,9.23,4.72,9.23,10.96c0,8.74-5.27,13.46-14.84,13.46h-13.46v-46.48h12.76Zm32.73,0c9.43,0,14.36,4.44,14.36,12.76c0,6.52-2.98,10.47-8.6,11.58-.76.14-.62.97.07,1.11c4.93.83,6.66,2.91,6.66,7.63v13.39h-10.06v-14.43c0-2.08-.83-2.98-2.5-2.98h-2.91v17.41h-10.06v-46.48h13.04v.01Zm91.23,15.82c0,1.04.97,1.25,1.39.42l7.91-16.23h10.47l-8.39,15.19l8.25,31.28h-10.33l-5.07-22.13-3.88,7.84v14.29h-10.06v-46.48h10.06l-.35,15.82Zm72.25,4.92c.35,1.04,1.39.83,1.39-.14l-.28-20.6h8.95v46.48h-8.74l-8.19-26.64c-.35-.97-1.39-.83-1.39.21l.28,26.43h-8.95v-46.48h10.75l6.17,20.74h.01ZM239.28,352.7h3.75c2.91,0,4.23-1.87,4.23-5.97s-1.32-5.69-4.23-5.69h-3.75v11.65.01Zm32.45-17.13h3.33c2.64,0,3.68-1.73,3.68-5.97s-1.11-6.03-3.68-6.03h-3.33v12Zm-32.45-2.64h2.57c2.98,0,4.16-1.46,4.16-4.72s-1.25-4.65-4.16-4.65h-2.57v9.36.01Zm-64.92-34.71c0,2.64,1.11,3.88,3.33,3.88s3.33-1.32,3.33-3.88v-34.13h10.06v34.48c0,8.05-5.13,12.9-13.39,12.9s-13.39-4.93-13.39-12.9v-34.48h10.06v34.13Zm125.61,1.28c3.12,0,5.41,2.57,5.41,5.9s-2.36,5.9-5.41,5.9-5.41-2.57-5.41-5.9s2.36-5.9,5.41-5.9Zm12.9,0c3.12,0,5.41,2.57,5.41,5.9s-2.29,5.9-5.41,5.9-5.41-2.57-5.41-5.9s2.36-5.9,5.41-5.9ZM209.51,264.1c9.02,0,14.29,4.23,14.29,11.38c0,5.13-2.77,8.32-8.05,9.64-.76.14-.62.97.07,1.04c6.04.83,9.23,4.72,9.23,10.96c0,8.74-5.27,13.46-14.84,13.46h-13.46v-46.48h12.76Zm40.57,8.67h-10.82v8.74h8.12v8.46h-8.12v11.93h11.38v8.67h-21.43v-46.48h20.88v8.67l-.01.01Zm17.63-8.67c9.44,0,14.36,4.44,14.36,12.76c0,6.52-2.98,10.47-8.6,11.58-.76.14-.62.97.07,1.11c4.92.83,6.66,2.91,6.66,7.63v13.39h-10.06v-14.43c0-2.08-.84-2.98-2.5-2.98h-2.91v17.41h-10.06v-46.48h13.04v.01Zm-60.9,37.8h3.75c2.91,0,4.23-1.87,4.23-5.97s-1.32-5.69-4.23-5.69h-3.75v11.65.01Zm57.92-17.13h3.33c2.64,0,3.68-1.73,3.68-5.97s-1.11-6.04-3.68-6.04h-3.33v12v.01Zm-57.92-2.64h2.57c2.98,0,4.16-1.46,4.16-4.72s-1.25-4.65-4.16-4.65h-2.57v9.36.01ZM171.03,248.7c3.12,0,5.41,2.57,5.41,5.9s-2.36,5.9-5.41,5.9-5.41-2.57-5.41-5.9s2.36-5.9,5.41-5.9Zm12.9,0c3.12,0,5.41,2.57,5.41,5.9s-2.29,5.9-5.41,5.9-5.41-2.57-5.41-5.9s2.36-5.9,5.41-5.9Z" fill="#b69fff"/><rect id="e0fMYbuoRd15" width="400" height="110" rx="55" ry="55" transform="translate(-62.5 0)" fill="url(#e0fMYbuoRd15-fill)"/><g id="e0fMYbuoRd16_to" transform="translate(537.5,55.55)"><rect width="400" height="110" rx="55" ry="55" transform="translate(-200,-55)" fill="#f8de01"/></g><rect width="258.06" height="110" rx="55" ry="55" transform="translate(-170.56 110)" fill="url(#e0fMYbuoRd17-fill)"/><rect id="e0fMYbuoRd18" width="435.9" height="110" rx="55" ry="55" transform="translate(87.5 110)" fill="#006f59"/><g id="e0fMYbuoRd19_to" transform="translate(668.89502,165.550003)"><rect width="290.99" height="110" rx="55" ry="55" transform="translate(-145.49502,-55.000003)" fill="url(#e0fMYbuoRd19-fill)"/></g><rect width="400.58" height="110" rx="55" ry="55" transform="translate(-163.08 455)" fill="#b69fff"/><rect id="e0fMYbuoRd111" width="300" height="110" rx="55" ry="55" transform="translate(237.5 455)" fill="#ff6c03"/><g id="e0fMYbuoRd112_to" transform="translate(676.674988,510)"><rect width="278.35" height="110" rx="55" ry="55" transform="translate(-139.174988,-55)" fill="#f4eeee"/></g><rect id="e0fMYbuoRd113" width="515.52" height="110" rx="55" ry="55" transform="translate(-163.08 565)" fill="url(#e0fMYbuoRd113-fill)"/><g id="e0fMYbuoRd114_to" transform="translate(472.024994,620)"><rect id="e0fMYbuoRd114" width="239.17" height="110" rx="55" ry="55" transform="translate(-119.584994,-55)" fill="#006f59"/></g><rect width="278.35" height="110" rx="55" ry="55" transform="translate(591.61 565)" fill="url(#e0fMYbuoRd115-fill)"/><g><rect id="e0fMYbuoRd117" width="354.83" height="2.34" rx="0" ry="0" transform="translate(132.01 166.49)" fill="#f4eeee"/><g id="e0fMYbuoRd118_to" transform="translate(469.024994,167.659996)"><polyline points="450.19,136.31 487.86,167.66 450.19,199.01" transform="translate(-469.024994,-167.659996)" fill="none" stroke="#f4eeee" stroke-width="2.34" stroke-miterlimit="10"/></g></g><g><rect id="e0fMYbuoRd120" width="424.83" height="2.34" rx="0" ry="0" transform="translate(-115.92 618.83)" fill="#f4eeee"/><g id="e0fMYbuoRd121_to" transform="translate(291.099991,620)"><polyline points="272.27,588.65 309.93,620 272.27,651.35" transform="translate(-291.099991,-620)" fill="none" stroke="#f4eeee" stroke-width="2.34" stroke-miterlimit="10"/></g></g></svg>
