<svg width="24" height="24" viewBox="0 0 24 24" fill="none" xmlns="http://www.w3.org/2000/svg">
<path d="M13.73 1.35455C13.6454 1.35455 13.5523 1.33818 13.4677 1.34637C13.3832 1.34637 13.2986 1.41182 13.2055 1.42001C13.1209 1.42001 13.0278 1.38728 12.9432 1.39546C12.8587 1.39546 12.7656 1.39546 12.681 1.40364C12.5964 1.40364 12.5033 1.39546 12.4188 1.40364C12.3342 1.40364 12.2496 1.45273 12.165 1.46092C12.0804 1.4691 11.9873 1.45273 11.9027 1.46092C11.8181 1.4691 11.742 1.54274 11.6574 1.55092C11.5728 1.5591 11.4797 1.55092 11.3951 1.56729C11.3105 1.58365 11.2175 1.56729 11.1329 1.58365C11.0483 1.60001 10.9637 1.63274 10.8791 1.64911C10.7945 1.66547 10.7099 1.68184 10.6253 1.70638C10.5407 1.72275 10.4477 1.70638 10.3631 1.72275C10.2785 1.73911 10.1939 1.75548 10.1093 1.78002C10.0247 1.80457 9.957 1.88639 9.8724 1.91094C9.7878 1.93548 9.69475 1.91094 9.61015 1.93548C9.52555 1.96003 9.44096 1.97639 9.35636 2.00094C9.27177 2.02549 9.19563 2.05822 9.11103 2.08276C9.02644 2.10731 8.94184 2.12367 8.8657 2.1564C8.78111 2.18913 8.72189 2.26277 8.63729 2.28732C8.5527 2.32005 8.45964 2.31186 8.3835 2.34459C8.29891 2.37732 8.22277 2.41005 8.13817 2.44278C8.06204 2.47551 7.97744 2.50824 7.9013 2.54915C7.82517 2.58188 7.76595 2.6637 7.68981 2.69643C7.61368 2.72915 7.51216 2.72915 7.43602 2.77007C7.35989 2.81098 7.29221 2.86825 7.21607 2.90098C7.13994 2.94189 7.07226 2.99917 6.99612 3.04008C6.91999 3.08099 6.85231 3.13008 6.77617 3.17099C6.70004 3.2119 6.59852 3.2119 6.53084 3.261C6.45471 3.30191 6.40395 3.38373 6.33627 3.43282C6.26013 3.48192 6.19246 3.52283 6.11632 3.57192C6.04018 3.62101 5.96405 3.65374 5.88791 3.69465C5.82023 3.74375 5.72718 3.76829 5.6595 3.81739C5.59182 3.86648 5.5326 3.93194 5.46493 3.98103C5.39725 4.03012 5.33803 4.09558 5.27036 4.15285C5.20268 4.20195 5.14346 4.26741 5.07578 4.32468C5.00811 4.37377 4.91505 4.4065 4.85583 4.4556C4.78816 4.51287 4.70356 4.5456 4.64434 4.60287C4.57667 4.66015 4.51745 4.71743 4.45823 4.7747C4.39901 4.83198 4.37363 4.93016 4.30596 4.98744C4.24674 5.04471 4.13676 5.06108 4.07755 5.12653C4.01833 5.18381 3.97603 5.26563 3.91681 5.33109C3.8576 5.38836 3.80684 5.462 3.74762 5.52746C3.6884 5.59292 3.62073 5.64201 3.56151 5.69929C3.50229 5.76474 3.40923 5.79747 3.35848 5.86293C3.29926 5.92839 3.29926 6.03476 3.24004 6.09203C3.18082 6.15749 3.13853 6.22295 3.07931 6.2884C3.02855 6.35386 2.94395 6.40295 2.8932 6.46841C2.84244 6.53387 2.77476 6.59114 2.724 6.6566C2.67325 6.72206 2.61403 6.78752 2.56327 6.85297C2.51251 6.91843 2.4533 6.98389 2.40254 7.04935C2.35178 7.1148 2.35178 7.22117 2.30948 7.28663C2.25872 7.36027 2.20797 7.42573 2.15721 7.49119C2.10645 7.56482 2.03031 7.61392 1.97956 7.67937C1.93726 7.75301 1.8865 7.81847 1.8442 7.89211C1.8019 7.96575 1.81036 8.07212 1.76806 8.13758C1.72577 8.20303 1.69193 8.28486 1.64963 8.3585C1.60733 8.43214 1.51428 8.48123 1.48044 8.55487C1.43814 8.62851 1.41276 8.71033 1.37046 8.78397C1.33662 8.85761 1.30278 8.93943 1.26895 9.01307C1.23511 9.08671 1.20127 9.16853 1.16743 9.24217C1.13359 9.31581 1.08283 9.38945 1.05746 9.47127C1.02362 9.54491 1.03208 9.6431 0.998237 9.71674C0.964399 9.79856 0.896722 9.85584 0.862883 9.93766C0.829045 10.0195 0.778287 10.0849 0.752908 10.1668C0.727529 10.2486 0.744448 10.3386 0.719069 10.4204C0.693691 10.5022 0.651392 10.5759 0.626013 10.6577C0.600634 10.7395 0.541417 10.805 0.516038 10.8868C0.490659 10.9686 0.516038 11.0668 0.499119 11.1404C0.47374 11.2223 0.414522 11.2959 0.397603 11.3777C0.380684 11.4595 0.363765 11.5414 0.346845 11.6232C0.329926 11.705 0.321466 11.7868 0.304547 11.8687C0.287628 11.9505 0.287628 12.0323 0.270708 12.1141C0.253789 12.1959 0.22841 12.2778 0.211491 12.3596C0.194572 12.4414 0.169193 12.5232 0.160733 12.605C0.152274 12.6869 0.160733 12.7769 0.143814 12.8587C0.135354 12.9405 0.093056 13.0223 0.0845964 13.1042C0.0761368 13.186 0.118435 13.276 0.109975 13.3578C0.109975 13.4396 0.0592175 13.5215 0.0507578 13.6033C0.0507578 13.6851 0.0761368 13.7751 0.0761368 13.8569C0.0761368 13.9387 0.0676771 14.0206 0.0592175 14.1106C0.0592175 14.1924 0.0592175 14.2742 0.0592175 14.3642C0.0592175 14.4542 0 14.577 0 14.6588C0 14.7406 0 14.8306 0.00845964 14.9124C0.00845964 14.9942 0.0169193 15.0842 0.0253789 15.1661C0.0253789 15.2479 0.093056 15.3297 0.101516 15.4115C0.101516 15.4934 0.0592175 15.5834 0.0676771 15.6734C0.0761368 15.7552 0.152274 15.837 0.160733 15.9188C0.169193 16.0007 0.186112 16.0825 0.203031 16.1643C0.219951 16.2461 0.22841 16.3279 0.24533 16.4179C0.262249 16.4998 0.270708 16.5816 0.296087 16.6634C0.313007 16.7452 0.355305 16.8271 0.372224 16.9007C0.397603 16.9825 0.397603 17.0725 0.422982 17.1462C0.448361 17.228 0.456821 17.3098 0.490659 17.3916C0.516038 17.4734 0.583715 17.5389 0.617554 17.6207C0.651392 17.7025 0.685231 17.7762 0.719069 17.8498C0.752908 17.9316 0.786747 18.0053 0.820585 18.0789C0.854424 18.1526 0.879803 18.2426 0.913641 18.3162C0.955939 18.3898 1.01516 18.4553 1.05746 18.5289C1.09975 18.6026 1.14205 18.6762 1.19281 18.7499C1.23511 18.8235 1.26049 18.9053 1.30278 18.979C1.35354 19.0526 1.41276 19.1099 1.46352 19.1753C1.51428 19.2408 1.53119 19.339 1.58195 19.4044C1.63271 19.4699 1.70039 19.5272 1.75961 19.5926C1.81882 19.6581 1.89496 19.699 1.95418 19.7645C2.01339 19.8299 2.08107 19.879 2.14875 19.9363C2.20797 19.9936 2.25026 20.0754 2.30948 20.1327C2.37716 20.1899 2.44484 20.239 2.51251 20.2963C2.58019 20.3536 2.64787 20.4027 2.724 20.4518C2.79168 20.5009 2.8509 20.5663 2.92704 20.6154C3.00317 20.6645 3.06239 20.7218 3.13853 20.7709C3.21466 20.8118 3.29926 20.8445 3.3754 20.8854C3.45153 20.9263 3.55305 20.9263 3.62919 20.9591C3.70532 21 3.76454 21.0654 3.84914 21.0982C3.92527 21.1309 4.00141 21.1718 4.08601 21.2045C4.16214 21.2372 4.26366 21.2209 4.34826 21.2536C4.43285 21.2782 4.49207 21.3682 4.57667 21.3927C4.66126 21.4173 4.75432 21.3927 4.84737 21.4173C4.93197 21.4418 5.01657 21.45 5.10116 21.4664C5.18576 21.4827 5.2619 21.54 5.34649 21.5564C5.43109 21.5727 5.51569 21.5727 5.60874 21.5891C5.69334 21.6054 5.77793 21.6054 5.87099 21.6136C5.95559 21.6218 6.04018 21.6627 6.12478 21.6709C6.20938 21.6709 6.29397 21.6873 6.38703 21.6955C6.47163 21.6955 6.56468 21.6545 6.64928 21.6627C6.73387 21.6627 6.82693 21.72 6.91153 21.72C6.99612 21.72 7.08918 21.7036 7.17377 21.7036C7.25837 21.7036 7.35143 21.7036 7.43602 21.7036C7.52062 21.7036 7.61368 21.6791 7.69827 21.6709C7.78287 21.6709 7.87592 21.6545 7.96052 21.6464C8.04512 21.6464 8.12971 21.6218 8.22277 21.6136C8.30737 21.6054 8.40042 21.6054 8.48502 21.5973C8.56962 21.5891 8.66267 21.6136 8.74727 21.5973C8.83186 21.5809 8.908 21.4991 8.9926 21.4827C9.07719 21.4664 9.17871 21.5073 9.26331 21.4827C9.3479 21.4664 9.42404 21.4091 9.50864 21.3845C9.59323 21.3682 9.67783 21.36 9.76242 21.3354C9.84702 21.3109 9.93162 21.2945 10.0162 21.2782C10.1008 21.2536 10.1854 21.2291 10.2615 21.2045C10.3461 21.18 10.4307 21.1636 10.5153 21.1309C10.5999 21.0982 10.6676 21.0409 10.7437 21.0081C10.8283 20.9754 10.9299 20.9918 11.006 20.9591C11.0906 20.9263 11.1667 20.8936 11.2429 20.8527C11.319 20.82 11.3698 20.73 11.4544 20.689C11.5305 20.6481 11.6235 20.6318 11.6912 20.5909C11.7674 20.5499 11.8266 20.4845 11.9027 20.4354C11.9789 20.3863 12.055 20.3536 12.1311 20.3127C12.1988 20.2636 12.2919 20.2472 12.368 20.1899C12.4357 20.1408 12.5118 20.0836 12.571 20.0345C12.6387 19.9772 12.6641 19.8872 12.7233 19.8299C12.7571 19.7563 12.8079 19.6908 12.8417 19.6254C12.8756 19.5517 12.9179 19.4781 12.9517 19.4044C12.9855 19.3308 13.0194 19.2572 13.0448 19.1753C13.0701 19.0935 13.0448 19.0035 13.0701 18.9299C13.0955 18.8481 13.1294 18.7744 13.1463 18.7008C13.1632 18.6189 13.1886 18.5371 13.2055 18.4635C13.2224 18.3817 13.2563 18.2998 13.2647 18.2262C13.2732 18.1362 13.2816 18.0544 13.2816 17.9807C13.2816 17.8907 13.2647 17.8089 13.2732 17.7353C13.2732 17.5798 13.4001 17.498 13.2732 17.4653C13.1463 17.4325 13.2055 17.5634 13.104 17.6862C13.0617 17.7353 13.0109 17.8089 12.9517 17.8826C12.901 17.9398 12.8333 17.9971 12.7741 18.0626C12.7148 18.1198 12.6556 18.1771 12.5964 18.2426C12.5372 18.2998 12.4864 18.3653 12.4188 18.4226C12.3595 18.4799 12.2749 18.5126 12.2073 18.5699C12.148 18.6189 12.0888 18.6844 12.0211 18.7417C11.9619 18.7908 11.9027 18.8644 11.835 18.9135C11.7674 18.9626 11.6658 18.9626 11.5897 19.0117C11.522 19.0608 11.4628 19.1099 11.3867 19.159C11.319 19.2081 11.2598 19.2735 11.1921 19.3226C11.1244 19.3635 11.0483 19.4126 10.9722 19.4535C10.9045 19.4944 10.8114 19.519 10.7353 19.5599C10.6591 19.6008 10.6084 19.6826 10.5323 19.7154C10.4561 19.7563 10.3631 19.7645 10.2869 19.7972C10.2108 19.8299 10.1262 19.8545 10.0501 19.8872C9.97392 19.9199 9.89778 19.9608 9.82164 19.9936C9.74551 20.0263 9.67783 20.0917 9.60169 20.1163C9.52556 20.1408 9.42404 20.1245 9.3479 20.1572C9.27177 20.1817 9.19563 20.2472 9.11949 20.2718C9.0349 20.2963 8.94184 20.2718 8.85724 20.2963C8.77265 20.3127 8.69651 20.3454 8.61191 20.3618C8.52732 20.3781 8.45118 20.4108 8.36658 20.4272C8.28199 20.4436 8.19739 20.4272 8.11279 20.4272C8.0282 20.4354 7.9436 20.4272 7.85901 20.4354C7.77441 20.4354 7.68981 20.4436 7.60522 20.4518C7.52062 20.4518 7.43602 20.4763 7.35143 20.4763C7.26683 20.4763 7.17377 20.5009 7.08918 20.5009C7.00458 20.5009 6.91153 20.4845 6.82693 20.4845C6.74233 20.4845 6.65774 20.4518 6.56468 20.4436C6.48008 20.4436 6.39549 20.4272 6.30243 20.419C6.20938 20.4108 6.13324 20.3945 6.04864 20.3781C5.96405 20.3618 5.87099 20.3863 5.78639 20.3781C5.7018 20.3618 5.62566 20.3045 5.54106 20.2799C5.45647 20.2636 5.37187 20.239 5.28728 20.2227C5.20268 20.1981 5.10962 20.1981 5.03349 20.1736C4.94889 20.149 4.86429 20.1163 4.78816 20.0917C4.70356 20.059 4.62742 20.0263 4.54283 19.9936C4.46669 19.9608 4.37363 19.9445 4.2975 19.9036C4.22136 19.8626 4.13676 19.8299 4.06063 19.789C3.98449 19.7481 3.94219 19.6581 3.86606 19.609C3.78992 19.5599 3.6884 19.5681 3.61227 19.519C3.54459 19.4699 3.51075 19.3717 3.44307 19.3226C3.3754 19.2735 3.26542 19.2653 3.19774 19.2081C3.13853 19.1508 3.07085 19.0935 3.01163 19.0281C2.95241 18.9708 2.91012 18.889 2.8509 18.8235C2.79168 18.758 2.724 18.709 2.66479 18.6435C2.61403 18.578 2.55481 18.5126 2.50405 18.4471C2.4533 18.3817 2.44484 18.2835 2.39408 18.2098C2.35178 18.1362 2.31794 18.0626 2.27564 17.9807C2.23335 17.9071 2.15721 17.8498 2.11491 17.7762C2.07261 17.7025 2.05569 17.6207 2.02185 17.5389C1.98802 17.4653 1.95418 17.3834 1.92034 17.3016C1.8865 17.228 1.83574 17.1543 1.8019 17.0725C1.77652 16.9907 1.79344 16.9007 1.75961 16.8189C1.73423 16.737 1.67501 16.6716 1.65809 16.5898C1.63271 16.5079 1.60733 16.4261 1.59041 16.3443C1.57349 16.2625 1.56503 16.1807 1.54811 16.0907C1.53119 16.0088 1.49736 15.927 1.4889 15.8452C1.47198 15.7634 1.4889 15.6734 1.47198 15.5915C1.46352 15.5097 1.46352 15.4279 1.45506 15.3379C1.4466 15.2561 1.38738 15.1743 1.37892 15.0924C1.37892 15.0106 1.37892 14.9206 1.37892 14.8388C1.37892 14.757 1.4043 14.667 1.39584 14.5851C1.39584 14.5033 1.35354 14.4215 1.35354 14.3315C1.35354 14.2497 1.35354 14.1678 1.35354 14.0778C1.35354 13.996 1.35354 13.9142 1.35354 13.8242C1.35354 13.7342 1.3197 13.6605 1.3197 13.5705C1.3197 13.4887 1.362 13.4069 1.37046 13.3251C1.37046 13.2433 1.32816 13.1533 1.33662 13.0714C1.33662 12.9896 1.37892 12.9078 1.38738 12.826C1.39584 12.7441 1.38738 12.6541 1.38738 12.5723C1.39584 12.4905 1.46352 12.4169 1.48044 12.335C1.49736 12.2532 1.51428 12.1714 1.53119 12.0896C1.54811 12.0077 1.53965 11.9259 1.56503 11.8441C1.58195 11.7623 1.62425 11.6886 1.64963 11.6068C1.66655 11.525 1.68347 11.4432 1.70885 11.3614C1.73423 11.2795 1.72577 11.1895 1.75115 11.1159C1.77652 11.0341 1.85266 10.9686 1.87804 10.895C1.90342 10.8132 1.92034 10.7313 1.94572 10.6577C1.9711 10.5759 1.9711 10.4859 2.00493 10.4122C2.03877 10.3386 2.08953 10.2649 2.12337 10.1913C2.15721 10.1177 2.14875 10.0195 2.18259 9.94584C2.21643 9.8722 2.2841 9.80674 2.31794 9.7331C2.35178 9.65946 2.36024 9.56946 2.40254 9.49582C2.43638 9.42218 2.52097 9.3649 2.56327 9.29126C2.59711 9.21762 2.63095 9.1358 2.67325 9.06216C2.71554 8.98852 2.7663 8.92307 2.8086 8.84943C2.8509 8.77579 2.88474 8.70215 2.92704 8.62851C2.96933 8.55487 2.99471 8.47305 3.03701 8.39941C3.07931 8.32577 3.12161 8.25213 3.16391 8.18667C3.2062 8.11303 3.25696 8.04757 3.30772 7.97393C3.35002 7.90848 3.38386 7.82665 3.43461 7.75301C3.48537 7.68756 3.57843 7.64665 3.62919 7.58119C3.67994 7.51573 3.69686 7.42573 3.75608 7.36027C3.80684 7.29481 3.86606 7.22935 3.91681 7.1639C3.96757 7.09844 4.00987 7.0248 4.06909 6.95934C4.11984 6.89389 4.19598 6.84479 4.2552 6.78752C4.30596 6.72206 4.3398 6.64024 4.39901 6.57478C4.45823 6.50932 4.50899 6.44387 4.55975 6.37841C4.61896 6.31295 4.6951 6.27204 4.75432 6.21476C4.81354 6.15749 4.84737 6.07567 4.90659 6.01021C4.96581 5.95293 5.06732 5.92839 5.12654 5.87111C5.18576 5.81384 5.21114 5.71565 5.27036 5.65838C5.32957 5.6011 5.39725 5.54383 5.46493 5.48655C5.52415 5.42928 5.6172 5.40473 5.68488 5.34745C5.75255 5.29018 5.81177 5.24108 5.87945 5.18381C5.94713 5.12653 5.98943 5.05289 6.0571 4.99562C6.12478 4.94653 6.23475 4.93834 6.30243 4.88925C6.37011 4.84016 6.41241 4.75834 6.48008 4.70924C6.54776 4.66015 6.60698 4.59469 6.68312 4.5456C6.75079 4.49651 6.84385 4.48014 6.91999 4.43923C6.98766 4.39014 7.04688 4.3165 7.11456 4.26741C7.18223 4.21831 7.26683 4.18558 7.34297 4.14467C7.4191 4.10376 7.49524 4.06285 7.56292 4.02194C7.63905 3.98103 7.72365 3.96466 7.79979 3.92375C7.87593 3.88284 7.91822 3.79284 7.99436 3.75193C8.0705 3.71102 8.18047 3.73556 8.25661 3.69465C8.33275 3.65374 8.3835 3.57192 8.45964 3.53101C8.53578 3.49828 8.63729 3.50646 8.71343 3.47373C8.78957 3.441 8.84878 3.35918 8.93338 3.32645C9.00952 3.29373 9.09411 3.27736 9.17871 3.24463C9.25485 3.2119 9.33944 3.18736 9.42404 3.15463C9.50864 3.1219 9.57631 3.08099 9.66091 3.04826C9.74551 3.02371 9.83856 3.0319 9.92316 3.00735C10.0078 2.9828 10.0924 2.96644 10.1769 2.95007C10.2615 2.92553 10.3292 2.87643 10.4138 2.86007C10.4984 2.83552 10.5746 2.78643 10.6591 2.76188C10.7437 2.74552 10.8368 2.78643 10.9214 2.76188C11.006 2.74552 11.0821 2.68006 11.1667 2.6637C11.2513 2.64733 11.3359 2.63915 11.4205 2.62279C11.5051 2.60642 11.5897 2.62279 11.6743 2.59824C11.7589 2.58188 11.8435 2.59824 11.9366 2.58188C12.0211 2.57369 12.1057 2.5246 12.1903 2.51642C12.2749 2.50824 12.3595 2.50005 12.4441 2.49187C12.5287 2.49187 12.6218 2.51642 12.7064 2.50824C12.791 2.50824 12.8756 2.47551 12.9602 2.47551C13.0448 2.47551 13.1294 2.48369 13.2224 2.47551C13.307 2.47551 13.3916 2.47551 13.4762 2.47551C13.5608 2.47551 13.6539 2.45914 13.7385 2.46733C13.8231 2.46733 13.9161 2.4346 14.0007 2.44278C14.0853 2.44278 14.1784 2.47551 14.263 2.47551C14.3476 2.47551 14.4406 2.49187 14.5252 2.50005C14.6098 2.50824 14.7029 2.50005 14.7875 2.50824C14.872 2.51642 14.9651 2.5246 15.0497 2.54096C15.1343 2.55733 15.2189 2.59824 15.3035 2.6146C15.3881 2.63097 15.4727 2.6637 15.5573 2.68006C15.6419 2.69643 15.7349 2.68824 15.8195 2.71279C15.9041 2.72915 15.9887 2.77007 16.0649 2.79461C16.1495 2.81916 16.2425 2.79461 16.3271 2.81916C16.4117 2.84371 16.4963 2.85189 16.5809 2.87643C16.6655 2.90098 16.7501 2.93371 16.8262 2.95826C16.9108 2.9828 16.9954 3.01553 17.0716 3.04008C17.1562 3.07281 17.2154 3.14645 17.3 3.17917C17.3846 3.2119 17.4607 3.23645 17.5453 3.26918C17.6299 3.30191 17.7145 3.31009 17.7991 3.351C17.8752 3.38373 17.9598 3.41646 18.036 3.45737C18.1121 3.49828 18.1713 3.5801 18.2474 3.62101C18.3236 3.66192 18.3997 3.70283 18.4759 3.74375C18.552 3.78466 18.6366 3.8092 18.7127 3.85011C18.7889 3.89921 18.865 3.93194 18.9327 3.98103C19.0088 4.03012 19.068 4.07922 19.1442 4.12831C19.2118 4.1774 19.288 4.22649 19.3557 4.27559C19.4233 4.32468 19.4741 4.39832 19.5418 4.4556C19.6094 4.50469 19.7025 4.53742 19.7702 4.58651C19.8379 4.64379 19.8717 4.73379 19.9309 4.79106C19.9986 4.84834 20.0747 4.88925 20.1424 4.94653C20.2016 5.0038 20.2608 5.06926 20.3201 5.12653C20.3793 5.18381 20.4216 5.26563 20.4808 5.33109C20.54 5.39655 20.6331 5.42927 20.6838 5.49473C20.743 5.56019 20.7938 5.62565 20.853 5.6911C20.9038 5.75656 20.9376 5.83838 20.9884 5.90384C21.0391 5.9693 21.0899 6.04294 21.1406 6.1084C21.1914 6.17385 21.276 6.22295 21.3183 6.29659C21.3691 6.37023 21.3944 6.44387 21.4452 6.51751C21.4875 6.59114 21.5213 6.67297 21.5636 6.74661C21.6059 6.82025 21.6651 6.8857 21.699 6.95934C21.7413 7.03298 21.7836 7.10662 21.8259 7.18026C21.8597 7.2539 21.9189 7.32754 21.9528 7.40118C21.9866 7.47482 22.0204 7.55664 22.0543 7.63846C22.0881 7.72029 22.0543 7.81847 22.0881 7.90029C22.1135 7.98212 22.1812 8.04757 22.2066 8.1294C22.2319 8.21122 22.2235 8.30122 22.2489 8.38304C22.2742 8.46486 22.2996 8.54669 22.3165 8.62851C22.3334 8.71033 22.418 8.78397 22.435 8.86579C22.4519 8.94761 22.4688 9.02944 22.4857 9.11944C22.5026 9.20126 22.4519 9.29126 22.4688 9.38127C22.4773 9.46309 22.4942 9.54491 22.5026 9.63492C22.5111 9.71674 22.528 9.79856 22.5365 9.88856C22.5365 9.97039 22.5365 10.0604 22.5365 10.1422C22.5365 10.224 22.5703 10.314 22.5703 10.3959C22.5703 10.4777 22.5449 10.5677 22.5449 10.6495C22.5449 10.7313 22.5534 10.8213 22.5449 10.9032C22.5449 10.985 22.528 11.0668 22.5111 11.1568C22.5026 11.2386 22.4773 11.3204 22.4688 11.4023C22.4603 11.4841 22.4434 11.5659 22.435 11.6477C22.418 11.7296 22.4096 11.8114 22.3927 11.8932C22.3757 11.975 22.3588 12.0568 22.3419 12.1387C22.325 12.2205 22.3165 12.3105 22.2996 12.3841C22.2742 12.466 22.2489 12.5478 22.2235 12.6296C22.1981 12.7114 22.1558 12.7851 22.1304 12.8669C22.105 12.9487 22.0966 13.0305 22.0627 13.1123C22.0289 13.1942 21.9697 13.2596 21.9358 13.3333C21.902 13.4151 21.9105 13.5051 21.8682 13.5787C21.8343 13.6524 21.7751 13.726 21.7413 13.7996C21.7074 13.8733 21.6905 13.9633 21.6482 14.0369C21.6059 14.1106 21.5213 14.1597 21.479 14.2333C21.4367 14.3069 21.3944 14.3806 21.3521 14.4542C21.3014 14.5279 21.276 14.6097 21.2252 14.6751C21.1745 14.7488 21.1068 14.8061 21.056 14.8715C21.0053 14.937 20.963 15.0106 20.9038 15.0761C20.8446 15.1415 20.7769 15.1906 20.7261 15.2561C20.6669 15.3215 20.6246 15.3952 20.5654 15.4524C20.5062 15.5179 20.4216 15.5506 20.3539 15.6079C20.2947 15.6652 20.2439 15.7388 20.1762 15.7879C20.1086 15.8452 20.0747 15.9352 20.007 15.9843C19.9394 16.0334 19.8632 16.0825 19.7871 16.1234C19.7194 16.1725 19.6264 16.197 19.5502 16.2379C19.4741 16.2788 19.4149 16.3443 19.3387 16.3852C19.2626 16.4261 19.1865 16.467 19.1103 16.4998C19.0257 16.5325 18.9496 16.5652 18.865 16.5898C18.7804 16.6143 18.6958 16.647 18.6112 16.6634C18.5266 16.6798 18.442 16.6961 18.349 16.7043C18.2644 16.7125 18.1713 16.6961 18.0867 16.7043C18.0021 16.7043 17.9091 16.7125 17.8245 16.7043C17.7314 16.6961 17.6468 16.7043 17.5622 16.6798C17.4776 16.6552 17.4015 16.598 17.3338 16.5652C17.2577 16.5243 17.19 16.4752 17.1308 16.4179C17.0716 16.3607 17.0293 16.287 16.9954 16.2134C16.9616 16.1397 16.9531 16.0579 16.9277 15.9761C16.9108 15.9025 16.8347 15.8288 16.8262 15.7388C16.8262 15.657 16.8347 15.5752 16.8347 15.4852C16.8347 15.4034 16.8516 15.3215 16.8601 15.2397C16.8601 15.1579 16.8601 15.0761 16.877 14.9942C16.8939 14.9124 16.9362 14.8388 16.9616 14.757C16.9785 14.6751 16.9616 14.5933 16.987 14.5033C17.0039 14.4215 17.0039 14.3397 17.0293 14.2578C17.0546 14.176 17.1139 14.1106 17.1392 14.0287C17.1646 13.9469 17.2069 13.8815 17.2323 13.7996C17.2577 13.726 17.2915 13.6442 17.3169 13.5624C17.3507 13.4887 17.3761 13.4069 17.4099 13.3333C17.4438 13.2596 17.4522 13.1696 17.4861 13.096C17.5199 13.0223 17.5791 12.9569 17.613 12.8751C17.6468 12.8014 17.6383 12.7032 17.6722 12.6296C17.706 12.556 17.7652 12.4905 17.7991 12.4087C17.8329 12.335 17.8668 12.2532 17.9006 12.1796C17.9344 12.1059 17.9598 12.0241 17.9937 11.9505C18.0275 11.8768 18.1036 11.8196 18.1459 11.7459C18.1798 11.6723 18.1882 11.5823 18.2305 11.5086C18.2728 11.435 18.3236 11.3695 18.3659 11.2959C18.4082 11.2223 18.4505 11.1568 18.4928 11.0832C18.5351 11.0095 18.5943 10.9441 18.6281 10.8704C18.6704 10.7968 18.6873 10.715 18.7296 10.6413C18.7719 10.5677 18.8227 10.5022 18.865 10.4286C18.9073 10.3549 18.9242 10.2731 18.9665 10.1995C19.0088 10.1258 19.068 10.0604 19.1103 9.99493C19.1526 9.92129 19.2203 9.86402 19.2626 9.79038C19.3049 9.71674 19.3134 9.62673 19.3557 9.55309C19.398 9.47945 19.4826 9.43854 19.5333 9.3649C19.5841 9.29126 19.6433 9.23399 19.6856 9.16035C19.7279 9.08671 19.7279 8.98852 19.7786 8.92307C19.8294 8.84943 19.9225 8.8167 19.9648 8.74306C20.0155 8.66942 20.024 8.57941 20.0663 8.51396C20.117 8.44032 20.1678 8.38304 20.2185 8.3094C20.2693 8.24395 20.2947 8.18667 20.3454 8.12121C20.2608 8.13758 20.1932 8.12121 20.117 8.13758C20.0324 8.15394 19.9478 8.17031 19.8717 8.17849C19.7871 8.19485 19.7194 8.26849 19.6348 8.28486C19.5502 8.30122 19.4656 8.28486 19.381 8.30122C19.2964 8.31759 19.2118 8.33395 19.1357 8.34213C19.0511 8.35031 18.9581 8.32577 18.8819 8.34213C18.7973 8.35031 18.7212 8.39122 18.6366 8.39941C18.552 8.40759 18.4589 8.37486 18.3828 8.38304C18.2982 8.39122 18.2221 8.45668 18.1375 8.46486C18.0529 8.46486 17.9598 8.40759 17.8837 8.41577C17.7991 8.41577 17.7145 8.46486 17.6299 8.46486C17.5453 8.46486 17.4607 8.44032 17.3761 8.44032C17.2915 8.44032 17.2069 8.48941 17.1223 8.48941C17.0377 8.48941 16.9531 8.48123 16.8685 8.47305C16.7839 8.47305 16.6909 8.49759 16.6147 8.49759C16.5301 8.49759 16.4455 8.45668 16.3609 8.4485C16.2679 8.4485 16.1833 8.45668 16.1072 8.4485C16.0141 8.4485 15.9295 8.41577 15.8534 8.40759C15.8534 8.32577 15.8872 8.24395 15.8872 8.16212C15.8872 8.0803 15.8618 7.99848 15.8534 7.91666C15.8534 7.83484 15.8703 7.75301 15.8618 7.67119C15.8618 7.58937 15.7941 7.50755 15.7857 7.42573C15.7857 7.34391 15.8364 7.2539 15.828 7.17208C15.8195 7.09026 15.8026 7.00844 15.7857 6.92661C15.7772 6.84479 15.7603 6.76297 15.7434 6.68115C15.7349 6.59933 15.7096 6.51751 15.6926 6.43568C15.6757 6.35386 15.6757 6.27204 15.6588 6.19022C15.6419 6.1084 15.625 6.02657 15.608 5.94475C15.5911 5.86293 15.5319 5.78929 15.5065 5.71565C15.4811 5.63383 15.4896 5.54383 15.4642 5.47019C15.4388 5.38018 15.3965 5.31472 15.3712 5.24109C15.3373 5.15108 15.3035 5.07744 15.2866 5.01198C15.2274 4.8647 15.3119 4.85652 15.202 4.79106C15.0835 4.72561 15.1089 4.75015 14.9397 4.76652C14.8636 4.7747 14.7705 4.78288 14.6775 4.79925C14.6013 4.81561 14.5083 4.84834 14.4237 4.8647C14.3391 4.88107 14.2545 4.9138 14.1699 4.94653C14.0853 4.97107 14.0092 5.01198 13.9246 5.03653C13.84 5.06108 13.7638 5.09381 13.6792 5.12653C13.6031 5.15926 13.5185 5.20017 13.4424 5.24109C13.3662 5.282 13.2901 5.32291 13.214 5.372C13.1378 5.41291 13.0363 5.42928 12.9686 5.47837C12.901 5.52746 12.8417 5.59292 12.7741 5.65019C12.7064 5.70747 12.6556 5.77293 12.5964 5.83838C12.6133 5.92021 12.6472 5.99385 12.6725 6.07567C12.6895 6.15749 12.6895 6.24749 12.7148 6.32113C12.7402 6.40295 12.7741 6.47659 12.7994 6.55842C12.8248 6.64024 12.8502 6.71388 12.884 6.7957C12.9179 6.87752 12.9179 6.96753 12.9517 7.04116C12.9855 7.1148 13.0278 7.18844 13.0701 7.26208C13.1124 7.33572 13.1378 7.41755 13.1801 7.49119C13.2224 7.56482 13.2986 7.6221 13.3409 7.69574C13.3832 7.76938 13.4424 7.83484 13.4847 7.90029C13.5354 7.97393 13.5523 8.05576 13.5946 8.1294C13.6454 8.20303 13.6962 8.26849 13.7469 8.33395C13.7977 8.40759 13.8569 8.46486 13.9076 8.53032C13.9584 8.60396 14.0007 8.6776 14.043 8.74306C14.1022 8.82488 14.1699 8.89034 14.2037 8.9558C14.2037 9.02943 14.1276 9.11126 14.1107 9.20126C14.1022 9.2749 14.0853 9.35672 14.0684 9.44673C14.0515 9.52037 14.043 9.61037 14.0261 9.69219C14.0092 9.76583 14.0007 9.85584 13.9753 9.93766C13.9499 10.0113 13.9584 10.1013 13.933 10.1831C13.9076 10.2568 13.84 10.3304 13.8146 10.4122C13.7892 10.4859 13.7554 10.5677 13.73 10.6495C13.7046 10.7231 13.7046 10.8213 13.6792 10.895C13.6454 10.9686 13.62 11.0504 13.5862 11.1323C13.5523 11.2059 13.4847 11.2714 13.4508 11.345C13.417 11.4186 13.4254 11.5168 13.3916 11.5905C13.3578 11.6641 13.2647 11.7132 13.2224 11.795C13.1886 11.8687 13.1717 11.9587 13.1294 12.0323C13.0955 12.1059 13.0448 12.1796 13.0025 12.2532C12.9602 12.3269 12.9602 12.4169 12.9179 12.4905C12.8756 12.5641 12.8248 12.6296 12.7825 12.7032C12.7402 12.7769 12.6641 12.8341 12.6218 12.8996C12.5795 12.9732 12.5626 13.0633 12.5203 13.1369C12.478 13.2105 12.4526 13.2924 12.4018 13.3578C12.3595 13.4314 12.2919 13.4887 12.2411 13.5542C12.1903 13.6278 12.1565 13.7015 12.1057 13.7669C12.055 13.8324 12.0211 13.9142 11.9704 13.9797C11.9196 14.0451 11.8689 14.1106 11.8181 14.176C11.7674 14.2415 11.6828 14.2906 11.632 14.356C11.5812 14.4215 11.5643 14.5115 11.5051 14.577C11.4544 14.6424 11.3782 14.6915 11.319 14.757C11.2598 14.8224 11.2429 14.9124 11.1836 14.9779C11.1244 15.0433 11.0567 15.0924 10.9975 15.1497C10.9383 15.207 10.8453 15.2397 10.786 15.297C10.7268 15.3543 10.7099 15.4606 10.6507 15.5179C10.5915 15.5752 10.4815 15.5834 10.4138 15.6406C10.3461 15.6979 10.2869 15.7552 10.2192 15.8043C10.1516 15.8534 10.0924 15.9188 10.0247 15.9679C9.957 16.017 9.88086 16.0579 9.80472 16.107C9.72859 16.1561 9.65245 16.1807 9.57631 16.2216C9.50018 16.2625 9.4325 16.3034 9.3479 16.3443C9.27177 16.3852 9.18717 16.4098 9.11103 16.4425C9.0349 16.4752 8.95876 16.5079 8.87416 16.5325C8.78957 16.557 8.71343 16.5816 8.62883 16.6061C8.54424 16.6307 8.47656 16.7043 8.39196 16.7125C8.30737 16.7289 8.21431 16.6798 8.12971 16.688C8.04512 16.688 7.96052 16.737 7.87593 16.737C7.79133 16.737 7.70673 16.7534 7.62214 16.7452C7.53754 16.7452 7.45294 16.7207 7.36835 16.7125C7.28375 16.7043 7.19915 16.6716 7.12302 16.6552C7.03842 16.6389 6.96228 16.6061 6.87769 16.5816C6.79309 16.557 6.72541 16.5161 6.64928 16.4916C6.57314 16.4589 6.50546 16.4179 6.42933 16.377C6.35319 16.3361 6.25167 16.3361 6.19246 16.287C6.12478 16.2379 6.09094 16.1479 6.03172 16.0907C5.97251 16.0334 5.88791 16.0007 5.83715 15.9352C5.78639 15.8697 5.77793 15.7797 5.73564 15.7061C5.69334 15.6406 5.60874 15.5915 5.56644 15.5097C5.5326 15.4361 5.56644 15.3379 5.54106 15.2561C5.51569 15.1824 5.44801 15.117 5.42263 15.0352C5.40571 14.9615 5.39725 14.8715 5.38033 14.7897C5.36341 14.7079 5.36341 14.626 5.35495 14.5442C5.34649 14.4624 5.32957 14.3888 5.32957 14.2988C5.32957 14.2169 5.31265 14.1351 5.30419 14.0533C5.30419 13.9715 5.2619 13.8897 5.2619 13.8078C5.2619 13.726 5.32957 13.6442 5.32957 13.5624C5.32957 13.4805 5.27882 13.3987 5.28728 13.3169C5.28728 13.2351 5.30419 13.1533 5.31265 13.0714C5.31265 12.9896 5.36341 12.9078 5.37187 12.826C5.37187 12.7441 5.34649 12.6541 5.35495 12.5723C5.36341 12.4905 5.37187 12.4087 5.38879 12.3269C5.39725 12.245 5.43109 12.1632 5.44801 12.0814C5.46493 11.9996 5.46493 11.9177 5.48185 11.8359C5.49877 11.7541 5.5326 11.6723 5.54952 11.5986C5.56644 11.5168 5.60028 11.4432 5.62566 11.3614C5.65104 11.2795 5.67642 11.2059 5.7018 11.1241C5.72718 11.0423 5.76947 10.9686 5.79485 10.895C5.82023 10.8132 5.82869 10.7313 5.86253 10.6577C5.89637 10.5759 5.93021 10.5022 5.96405 10.4286C5.99789 10.3549 5.98942 10.2568 6.02326 10.1831C6.0571 10.1095 6.15016 10.0604 6.19246 9.98675C6.23475 9.91311 6.2263 9.81492 6.27705 9.74947C6.31935 9.67583 6.37857 9.61037 6.42087 9.54491C6.47162 9.47127 6.55622 9.43036 6.59852 9.3649C6.64928 9.29945 6.65774 9.20126 6.70849 9.1358C6.75925 9.07035 6.85231 9.02943 6.90307 8.97216C6.96228 8.9067 6.98766 8.8167 7.04688 8.75942C7.1061 8.70215 7.16532 8.63669 7.22453 8.57941C7.29221 8.52214 7.38527 8.49759 7.44448 8.4485C7.51216 8.39941 7.56292 8.32577 7.6306 8.27667C7.70673 8.22758 7.78287 8.18667 7.85055 8.14576C7.92668 8.10485 8.01128 8.0803 8.08742 8.04757C8.16355 8.00666 8.23123 7.94939 8.30737 7.91666C8.39196 7.88393 8.48502 7.90029 8.56116 7.87575C8.64575 7.8512 8.72189 7.81847 8.80649 7.80211C8.89108 7.79393 8.98414 7.80211 9.06028 7.80211C9.15333 7.80211 9.24639 7.78574 9.32252 7.81029C9.40712 7.84302 9.4748 7.90848 9.53401 7.96575C9.59323 8.02303 9.66091 8.08848 9.69475 8.17031C9.72859 8.24395 9.73705 8.33395 9.75396 8.41577C9.77088 8.49759 9.72859 8.57941 9.72859 8.66942C9.72859 8.75124 9.76242 8.83306 9.76242 8.92307C9.76242 9.00489 9.75397 9.08671 9.73705 9.17671C9.72859 9.25854 9.66937 9.33218 9.65245 9.414C9.63553 9.49582 9.62707 9.57764 9.61015 9.65946C9.58477 9.74128 9.61015 9.83129 9.57631 9.91311C9.55093 9.99493 9.4748 10.0522 9.44096 10.134C9.40712 10.2159 9.38174 10.2895 9.3479 10.3713C9.31406 10.445 9.31406 10.5431 9.28023 10.6168C9.24639 10.6904 9.22101 10.7722 9.17871 10.8541C9.13641 10.9277 9.05181 10.9768 9.00952 11.0504C8.96722 11.1241 8.9503 11.2141 8.908 11.2795C8.85724 11.3532 8.78957 11.4104 8.73881 11.4759C8.68805 11.5414 8.64575 11.6232 8.59499 11.6805C8.53578 11.7459 8.45964 11.8196 8.40042 11.885C8.47656 11.9914 8.51886 11.8523 8.67959 11.8277C8.75573 11.8114 8.83186 11.7705 8.93338 11.7459C9.00952 11.7296 9.10257 11.7132 9.18717 11.6805C9.27177 11.6559 9.35636 11.6314 9.44096 11.5986C9.52555 11.5741 9.61861 11.5741 9.70321 11.5332C9.77934 11.5005 9.86394 11.4677 9.94854 11.4268C10.0247 11.3941 10.1008 11.345 10.1854 11.3041C10.2615 11.2632 10.3377 11.2141 10.4138 11.165C10.49 11.1241 10.5492 11.0586 10.6253 11.0095C10.693 10.9604 10.7691 10.9113 10.8368 10.8541C10.9045 10.805 11.006 10.7886 11.0821 10.7313C11.1498 10.6741 11.1921 10.5922 11.2598 10.535C11.3021 10.4695 11.3528 10.404 11.3867 10.3222C11.4205 10.2486 11.4882 10.1831 11.5136 10.0931C11.5389 10.0195 11.5474 9.92948 11.5728 9.84765C11.5897 9.76583 11.6151 9.68401 11.632 9.60219C11.6489 9.52037 11.6066 9.43036 11.6151 9.34854C11.6235 9.26672 11.6574 9.1849 11.6658 9.10307C11.6658 9.02125 11.6574 8.93125 11.6574 8.84943C11.6574 8.76761 11.6574 8.68578 11.6489 8.59578C11.6489 8.51396 11.632 8.43214 11.6235 8.34213C11.6151 8.26031 11.6151 8.17031 11.5982 8.08848C11.5812 8.00666 11.5474 7.92484 11.522 7.8512C11.4967 7.76938 11.4628 7.69574 11.429 7.61392C11.3951 7.5321 11.3613 7.45846 11.319 7.38482C11.2767 7.31118 11.2767 7.21299 11.2259 7.13935C11.1752 7.07389 11.0821 7.03298 11.0229 6.97571C10.9637 6.91843 10.896 6.86116 10.8283 6.81206C10.7607 6.76297 10.693 6.72206 10.6084 6.68115C10.5323 6.64024 10.4646 6.59114 10.38 6.5666C10.3038 6.54205 10.2277 6.47659 10.1431 6.45205C10.0585 6.43568 9.96546 6.47659 9.8724 6.46841C9.7878 6.46841 9.70321 6.46841 9.61015 6.46841C9.52555 6.46841 9.44096 6.46023 9.35636 6.46841C9.27177 6.46841 9.18717 6.50114 9.10257 6.51751C9.01798 6.52569 8.93338 6.51751 8.84032 6.53387C8.75573 6.55023 8.66267 6.53387 8.57808 6.55023C8.49348 6.5666 8.4258 6.64024 8.3412 6.66478C8.25661 6.68933 8.17201 6.7057 8.09588 6.73842C8.01128 6.76297 7.92668 6.77933 7.85055 6.81206C7.77441 6.84479 7.69827 6.8857 7.62214 6.92661C7.546 6.95934 7.45294 6.97571 7.37681 7.01662C7.30067 7.05753 7.22453 7.09026 7.1484 7.13117C7.07226 7.17208 6.99612 7.20481 6.91999 7.2539C6.84385 7.29481 6.81001 7.393 6.73387 7.43391C6.6662 7.483 6.55622 7.47482 6.48008 7.52391C6.41241 7.57301 6.37011 7.65483 6.30243 7.7121C6.23475 7.7612 6.17554 7.82665 6.10786 7.88393C6.04018 7.9412 5.98097 7.99848 5.92175 8.05576C5.86253 8.11303 5.78639 8.15394 5.71872 8.21122C5.6595 8.26849 5.59182 8.32577 5.5326 8.38304C5.47339 8.44032 5.38879 8.48123 5.32957 8.5385C5.27036 8.60396 5.24498 8.69397 5.19422 8.75942C5.14346 8.82488 5.10116 8.89852 5.05041 8.96398C4.99965 9.02944 4.92351 9.07853 4.88121 9.15217C4.83045 9.21763 4.80508 9.30763 4.75432 9.37309C4.71202 9.43854 4.66126 9.51218 4.61896 9.58582C4.57667 9.65946 4.52591 9.72492 4.48361 9.79856C4.44131 9.8722 4.40747 9.94584 4.36517 10.0195C4.32288 10.0931 4.2552 10.1504 4.22136 10.2322C4.18752 10.3059 4.11984 10.3713 4.08601 10.4531C4.05217 10.5268 4.06063 10.625 4.02679 10.6986C3.99295 10.7722 3.98449 10.8622 3.95065 10.9359C3.92527 11.0177 3.88297 11.0913 3.8576 11.165C3.83222 11.2468 3.83222 11.3286 3.8153 11.4104C3.78992 11.4923 3.69686 11.5577 3.67994 11.6396C3.66302 11.7214 3.67994 11.8114 3.66302 11.8932C3.6461 11.975 3.59535 12.0487 3.57843 12.1305C3.56151 12.2123 3.59535 12.3023 3.57843 12.3841C3.56997 12.466 3.57843 12.5478 3.57843 12.6378C3.57843 12.7196 3.53613 12.8014 3.53613 12.8832C3.53613 12.9651 3.53613 13.0469 3.53613 13.1369C3.53613 13.2187 3.53613 13.3005 3.53613 13.3905C3.53613 13.4805 3.52767 13.5624 3.53613 13.6442C3.53613 13.7342 3.53613 13.816 3.53613 13.8978C3.53613 13.9878 3.56151 14.0697 3.56997 14.1515C3.56997 14.2415 3.55305 14.3233 3.56151 14.4133C3.56997 14.4951 3.58689 14.5851 3.59535 14.667C3.61227 14.7488 3.60381 14.8388 3.62073 14.9206C3.63765 15.0024 3.72224 15.0761 3.73916 15.1579C3.75608 15.2397 3.73916 15.3297 3.76454 15.4115C3.78992 15.4934 3.84914 15.567 3.87452 15.6406C3.89989 15.7225 3.89989 15.8125 3.93373 15.8943C3.96757 15.9761 4.01833 16.0497 4.05217 16.1234C4.08601 16.2052 4.1283 16.2788 4.1706 16.3525C4.2129 16.4261 4.26366 16.4998 4.31442 16.5652C4.36517 16.6389 4.39901 16.7125 4.44977 16.7861C4.50053 16.8516 4.54283 16.9334 4.59358 16.9989C4.6528 17.0643 4.72048 17.1134 4.78816 17.1789C4.84737 17.2362 4.94043 17.2689 5.00811 17.318C5.07578 17.3753 5.14346 17.4162 5.2196 17.4653C5.29573 17.5144 5.35495 17.5716 5.43109 17.6125C5.50723 17.6535 5.56644 17.7353 5.64258 17.768C5.71872 17.8007 5.82023 17.8007 5.90483 17.8335C5.98943 17.8662 6.0571 17.9316 6.1417 17.9562C6.2263 17.9807 6.31089 18.0053 6.39549 18.0217C6.48008 18.038 6.57314 18.0462 6.65774 18.0626C6.74233 18.0789 6.83539 18.0462 6.92844 18.0544C7.01304 18.0626 7.09764 18.0953 7.19069 18.0953C7.27529 18.0953 7.36835 18.0707 7.45294 18.0707C7.53754 18.0707 7.6306 18.1362 7.71519 18.1362C7.79979 18.1362 7.89284 18.1198 7.97744 18.1035C8.06204 18.0953 8.14663 18.0626 8.23123 18.0462C8.31583 18.0298 8.40888 18.0298 8.49348 18.0053C8.57808 17.9807 8.65421 17.9235 8.73881 17.8989C8.82341 17.8744 8.92492 17.8989 9.00106 17.8744C9.08565 17.8498 9.15333 17.7844 9.23793 17.7516C9.32252 17.7189 9.40712 17.7107 9.49172 17.678C9.56785 17.6453 9.62707 17.5716 9.71167 17.5307C9.7878 17.4898 9.88932 17.498 9.96546 17.4571C10.0416 17.4162 10.1008 17.3425 10.1769 17.3016C10.2531 17.2607 10.3123 17.1953 10.38 17.1462C10.4477 17.0971 10.5576 17.0971 10.6338 17.048C10.7014 16.9989 10.7776 16.9498 10.8453 16.8925C10.9129 16.8434 10.9891 16.7943 11.0567 16.737C11.1244 16.6798 11.1667 16.6061 11.2344 16.5489C11.3021 16.4916 11.3613 16.4343 11.4205 16.377C11.4797 16.3198 11.5305 16.2461 11.5897 16.1807C11.6489 16.1234 11.7504 16.0988 11.8097 16.0334C11.8689 15.9761 11.9366 15.9188 11.9958 15.8534C12.055 15.7879 12.0719 15.6979 12.1311 15.6325C12.1903 15.567 12.2665 15.5261 12.3257 15.4606C12.3849 15.3952 12.4441 15.3379 12.5033 15.2724C12.5541 15.207 12.6049 15.1333 12.6556 15.0679C12.7064 15.0024 12.7402 14.9124 12.791 14.847C12.8417 14.7815 12.9263 14.7324 12.9771 14.667C13.0278 14.6015 13.0278 14.4951 13.0786 14.4297C13.1294 14.3642 13.197 14.3069 13.2478 14.2333C13.2986 14.1597 13.3324 14.086 13.3747 14.0124C13.4254 13.9387 13.5185 13.8978 13.5608 13.8242C13.6031 13.7506 13.62 13.6605 13.6708 13.5869C13.7131 13.5133 13.7638 13.4478 13.8146 13.3742C13.8569 13.3005 13.8907 13.2187 13.933 13.1451C13.9753 13.0714 14.0345 13.006 14.0768 12.9323C14.1191 12.8587 14.1445 12.7769 14.1784 12.6951C14.2207 12.6214 14.2545 12.5396 14.2968 12.466C14.3391 12.3923 14.4237 12.3432 14.466 12.2696C14.5083 12.1959 14.5252 12.1059 14.5675 12.0323C14.6098 11.9587 14.6436 11.8768 14.6775 11.8032C14.7113 11.7296 14.7705 11.6559 14.8044 11.5823C14.8382 11.5086 14.8467 11.4104 14.8805 11.3368C14.9143 11.2632 14.9989 11.1977 15.0328 11.1241C15.0666 11.0423 15.0835 10.9604 15.1174 10.8786C15.1512 10.7968 15.1681 10.715 15.202 10.6413C15.2358 10.5595 15.2443 10.4777 15.2781 10.3959C15.3119 10.314 15.3542 10.2404 15.3881 10.1668C15.4219 10.0849 15.4727 10.0113 15.4981 9.93766C15.5319 9.85584 15.5657 9.79038 15.5996 9.71674C15.6842 9.72492 15.7603 9.70037 15.8449 9.70037C15.9295 9.70037 16.0056 9.76583 16.0902 9.77401C16.1748 9.77401 16.2594 9.72492 16.344 9.7331C16.4286 9.7331 16.5132 9.79038 16.5894 9.79038C16.674 9.79038 16.7585 9.76583 16.8347 9.76583C16.9193 9.76583 17.0039 9.75765 17.08 9.74947C17.1646 9.74947 17.2492 9.76583 17.3338 9.74947C17.4184 9.74947 17.4945 9.71674 17.5707 9.70856C17.5284 9.7822 17.5199 9.85584 17.4776 9.92947C17.4353 10.0031 17.3592 10.0522 17.3169 10.1258C17.2746 10.1995 17.2154 10.2568 17.1731 10.3386C17.1308 10.4122 17.1392 10.5104 17.0969 10.584C17.0546 10.6577 16.97 10.7068 16.9277 10.7804C16.8854 10.8541 16.8685 10.9359 16.8262 11.0095C16.7839 11.0832 16.7839 11.1732 16.7416 11.2468C16.7078 11.3204 16.6401 11.3859 16.6063 11.4595C16.5724 11.5332 16.5471 11.615 16.5048 11.6886C16.4709 11.7623 16.3863 11.8196 16.3525 11.8932C16.3186 11.9668 16.3017 12.0487 16.2679 12.1305C16.234 12.2041 16.2171 12.2859 16.1833 12.3678C16.1495 12.4414 16.141 12.5314 16.1072 12.605C16.0733 12.6787 15.9887 12.736 15.9549 12.8096C15.921 12.8832 15.938 12.9814 15.9041 13.0551C15.8703 13.1287 15.7941 13.1942 15.7603 13.2678C15.7265 13.3496 15.7434 13.4396 15.7096 13.5133C15.6757 13.5951 15.6673 13.6769 15.6419 13.7506C15.6165 13.8324 15.5742 13.906 15.5488 13.9797C15.5234 14.0615 15.4642 14.1269 15.4473 14.2088C15.4219 14.2906 15.405 14.3724 15.3796 14.4542C15.3542 14.536 15.3289 14.6179 15.3119 14.6915C15.295 14.7733 15.2527 14.847 15.2358 14.9288C15.2189 15.0106 15.2104 15.0924 15.202 15.1743C15.1851 15.2561 15.1766 15.3379 15.1681 15.4197C15.1597 15.5015 15.1935 15.5915 15.1851 15.6734C15.1851 15.7552 15.1428 15.837 15.1428 15.9188C15.1428 16.0007 15.1766 16.0825 15.1766 16.1643C15.1766 16.2461 15.1766 16.3279 15.1935 16.4098C15.202 16.4916 15.2274 16.5734 15.2443 16.6552C15.2612 16.737 15.2527 16.8271 15.2781 16.9007C15.3035 16.9825 15.3373 17.0562 15.3796 17.1298C15.4135 17.2034 15.4388 17.2934 15.4811 17.3589C15.5319 17.4244 15.5996 17.4816 15.6588 17.5389C15.718 17.5962 15.7772 17.6616 15.8449 17.7107C15.9126 17.7598 16.0056 17.7762 16.0818 17.8089C16.1579 17.8416 16.2256 17.8989 16.3102 17.9235C16.3863 17.948 16.4794 17.9562 16.564 17.9807C16.6486 17.9971 16.7332 17.9807 16.8262 17.9889C16.9108 17.9971 16.987 18.0217 17.08 18.0298C17.1646 18.0298 17.2492 18.0462 17.3338 18.0462C17.4184 18.0462 17.503 18.0298 17.5876 18.0217C17.6722 18.0217 17.7568 18.038 17.8498 18.0217C17.9344 18.0135 18.019 17.9807 18.1036 17.9644C18.1882 17.948 18.2644 17.9153 18.349 17.8907C18.4336 17.8662 18.5266 17.8907 18.6112 17.8744C18.6958 17.8498 18.7635 17.7926 18.8481 17.768C18.9242 17.7353 19.0173 17.7353 19.1019 17.7025C19.178 17.6698 19.2626 17.6371 19.3387 17.5962C19.4149 17.5634 19.491 17.5225 19.5671 17.4816C19.6433 17.4407 19.711 17.3834 19.7871 17.3425C19.8632 17.3016 19.9394 17.2607 20.0155 17.2198C20.0832 17.1707 20.1424 17.1052 20.2101 17.0562C20.2778 17.0071 20.3708 16.9907 20.4385 16.9334C20.5062 16.8843 20.5654 16.8189 20.6331 16.7698C20.7007 16.7207 20.7684 16.6634 20.8276 16.6061C20.8953 16.5489 20.963 16.5079 21.0307 16.4507C21.0899 16.3934 21.1322 16.3198 21.1999 16.2543C21.2591 16.197 21.3098 16.1234 21.3691 16.0661C21.4283 16.0088 21.5213 15.9679 21.5721 15.9106C21.6313 15.8452 21.6736 15.7716 21.7244 15.7061C21.7836 15.6406 21.809 15.5588 21.8682 15.4934C21.9189 15.4279 22.0035 15.3788 22.0543 15.3133C22.105 15.2479 22.1473 15.1743 22.1981 15.1088C22.2489 15.0433 22.2827 14.9615 22.3335 14.8961C22.3842 14.8306 22.4603 14.7733 22.5026 14.7079C22.5449 14.6342 22.5788 14.5606 22.6211 14.4869C22.6634 14.4133 22.6803 14.3233 22.7226 14.2497C22.7649 14.176 22.7987 14.1024 22.841 14.0287C22.8833 13.9551 22.9172 13.8815 22.951 13.7996C22.9848 13.726 23.0525 13.6605 23.0864 13.5869C23.1202 13.5133 23.1625 13.4396 23.1963 13.3578C23.2302 13.2842 23.2386 13.1942 23.264 13.1123C23.2978 13.0387 23.3148 12.9569 23.3486 12.8751C23.374 12.7932 23.4332 12.7278 23.467 12.6541C23.4924 12.5723 23.5178 12.4905 23.5347 12.4169C23.5601 12.335 23.5939 12.2614 23.6193 12.1796C23.6447 12.0978 23.6193 12.0077 23.6447 11.9259C23.6616 11.8441 23.6785 11.7623 23.7039 11.6805C23.7208 11.5986 23.8054 11.5332 23.8223 11.4514C23.8393 11.3695 23.7885 11.2795 23.797 11.1977C23.8139 11.1159 23.8731 11.0423 23.8816 10.9604C23.89 10.8786 23.9069 10.7968 23.9239 10.715C23.9323 10.6331 23.9577 10.5513 23.9662 10.4695C23.9662 10.3877 23.9831 10.3059 23.9831 10.2159C23.9831 10.134 23.9746 10.0522 23.9831 9.9622C23.9831 9.88038 23.9408 9.79856 23.9492 9.70856C23.9492 9.62673 23.9577 9.54491 23.9577 9.46309C23.9577 9.38127 24 9.29126 24 9.20944C24 9.12762 23.9831 9.0458 23.9746 8.96398C23.9746 8.88216 23.9746 8.79215 23.9662 8.71033C23.9577 8.62851 23.8985 8.55487 23.8816 8.46486C23.8731 8.38304 23.8731 8.30122 23.8562 8.2194C23.8393 8.13758 23.8308 8.05576 23.8054 7.97393C23.7885 7.89211 23.7378 7.81847 23.7208 7.73665C23.6955 7.65483 23.6616 7.58119 23.6362 7.49937C23.6109 7.41754 23.5939 7.33572 23.5686 7.26208C23.5432 7.18026 23.5347 7.09844 23.5009 7.01662C23.467 6.9348 23.4247 6.86934 23.3909 6.78752C23.3571 6.71388 23.3486 6.62387 23.3063 6.55023C23.2725 6.47659 23.2048 6.41114 23.171 6.3375C23.1371 6.26386 23.1456 6.16567 23.1033 6.09203C23.061 6.01839 23.0018 5.95293 22.9595 5.87929C22.9172 5.80566 22.8833 5.73202 22.841 5.65838C22.7987 5.58474 22.7311 5.52746 22.6888 5.45382C22.6465 5.38018 22.5788 5.32291 22.5365 5.25745C22.4857 5.19199 22.418 5.13472 22.3673 5.06926C22.3165 5.0038 22.2912 4.9138 22.2404 4.84834C22.1896 4.78288 22.1135 4.73379 22.0627 4.66833C22.0035 4.60287 21.9528 4.53742 21.902 4.47196C21.8428 4.4065 21.8174 4.3165 21.7582 4.25922C21.699 4.20195 21.6313 4.14467 21.5721 4.0874C21.5129 4.03012 21.4367 3.98103 21.3691 3.92375C21.3098 3.86648 21.2252 3.82557 21.1576 3.77647C21.0899 3.7192 21.0307 3.66192 20.963 3.61283C20.8953 3.55556 20.8446 3.4901 20.7769 3.43282C20.7092 3.38373 20.6077 3.36736 20.54 3.31827C20.4723 3.26918 20.4385 3.17099 20.3624 3.13008C20.2947 3.08099 20.2185 3.04008 20.1424 2.99917C20.0747 2.95007 19.9986 2.90916 19.9225 2.86007C19.8463 2.81916 19.7871 2.7537 19.711 2.71279C19.6348 2.67188 19.5333 2.67188 19.4656 2.63097C19.3895 2.59006 19.3387 2.50824 19.2626 2.47551C19.1865 2.4346 19.0849 2.45096 19.0004 2.41005C18.9242 2.37732 18.8481 2.32823 18.7719 2.2955C18.6958 2.26277 18.6112 2.23004 18.5351 2.19731C18.4589 2.16458 18.3828 2.11549 18.3067 2.08276C18.2305 2.05003 18.1544 1.99276 18.0783 1.96003C17.9937 1.9273 17.9175 1.91094 17.8329 1.87821C17.7483 1.85366 17.6553 1.86184 17.5791 1.82911C17.4945 1.80457 17.4184 1.76366 17.3338 1.73911C17.2492 1.71456 17.1562 1.73093 17.0716 1.70638C16.987 1.68184 16.9024 1.66547 16.8178 1.64911C16.7332 1.63274 16.6655 1.56729 16.5809 1.54274C16.4963 1.52637 16.4032 1.5591 16.3186 1.54274C16.2341 1.52637 16.1495 1.51001 16.0649 1.49365C15.9803 1.47728 15.9041 1.40364 15.8195 1.39546C15.7349 1.37909 15.6503 1.37091 15.5657 1.35455C15.4811 1.34637 15.3881 1.38728 15.3035 1.37909C15.2189 1.37091 15.1343 1.32182 15.0497 1.31364C14.9651 1.31364 14.872 1.33 14.7875 1.31364C14.7029 1.31364 14.6183 1.32182 14.5252 1.31364C14.4406 1.31364 14.356 1.24 14.2714 1.24C14.1868 1.24 14.0938 1.28909 14.0092 1.28091C13.9246 1.28091 13.84 1.24 13.7469 1.24" fill="#AF5F00"/>
</svg>
