<svg fill="none" height="50" viewBox="0 0 50 50" width="50" xmlns="http://www.w3.org/2000/svg"><path d="m39.8995 19.5c0-6.9-4.5-9-4.5-9-4.5-2-16.3-2-20.7 0 0 0-4.5 2-4.5 9 0 8.3-.49997 18.5 7.5 20.6 2.9.8 5.4.9 7.4.8 3.6-.2 5.7-1.3 5.7-1.3l-.3-2.6s-2.6.8-5.5.7-5.9-.3-6.4-3.9c0-.3-.1-.7-.1-1 6.1 1.5 11.3.6 12.8.5 4-.5 7.5-2.9 7.9-5.2.8-3.5.7-8.6.7-8.6zm-5.3 8.9h-3.3v-8.2c0-3.5-4.6-3.7-4.6.5v4.5h-3.3v-4.5c0-4.2-4.6-4-4.6-.5v8.2h-3.3c0-8.7-.4-10.6 1.3-12.5 1.8-2.1 5.7-2.2 7.4.4l.8 1.4.8-1.4c1.7-2.6 5.6-2.5 7.4-.4 1.7 2 1.4 3.8 1.4 12.5z" fill="#fff"/></svg>