<svg width="25" height="25" viewBox="0 0 25 25" xmlns="http://www.w3.org/2000/svg">
<path d="M14.21 2.11455C14.1254 2.11455 14.0323 2.09819 13.9477 2.10637C13.8631 2.10637 13.7785 2.17183 13.6855 2.18001C13.6009 2.18001 13.5078 2.14728 13.4232 2.15546C13.3386 2.15546 13.2456 2.15546 13.161 2.16364C13.0764 2.16364 12.9833 2.15546 12.8987 2.16364C12.8142 2.16364 12.7296 2.21274 12.645 2.22092C12.5604 2.2291 12.4673 2.21274 12.3827 2.22092C12.2981 2.2291 12.222 2.30274 12.1374 2.31092C12.0528 2.31911 11.9597 2.31092 11.8751 2.32729C11.7905 2.34365 11.6975 2.32729 11.6129 2.34365C11.5283 2.36002 11.4437 2.39274 11.3591 2.40911C11.2745 2.42547 11.1899 2.44184 11.1053 2.46638C11.0207 2.48275 10.9277 2.46638 10.8431 2.48275C10.7585 2.49911 10.6739 2.51548 10.5893 2.54002C10.5047 2.56457 10.437 2.64639 10.3524 2.67094C10.2678 2.69549 10.1747 2.67094 10.0901 2.69549C10.0056 2.72003 9.92095 2.7364 9.83636 2.76094C9.75176 2.78549 9.67562 2.81822 9.59103 2.84276C9.50643 2.86731 9.42184 2.88368 9.3457 2.9164C9.2611 2.94913 9.20188 3.02277 9.11729 3.04732C9.03269 3.08005 8.93964 3.07187 8.8635 3.10459C8.7789 3.13732 8.70277 3.17005 8.61817 3.20278C8.54203 3.23551 8.45744 3.26824 8.3813 3.30915C8.30516 3.34188 8.24595 3.4237 8.16981 3.45643C8.09367 3.48916 7.99216 3.48916 7.91602 3.53007C7.83988 3.57098 7.77221 3.62825 7.69607 3.66098C7.61993 3.70189 7.55226 3.75917 7.47612 3.80008C7.39998 3.84099 7.3323 3.89008 7.25617 3.93099C7.18003 3.97191 7.07851 3.97191 7.01084 4.021C6.9347 4.06191 6.88394 4.14373 6.81627 4.19282C6.74013 4.24192 6.67245 4.28283 6.59632 4.33192C6.52018 4.38101 6.44404 4.41374 6.36791 4.45465C6.30023 4.50375 6.20717 4.52829 6.13949 4.57739C6.07182 4.62648 6.0126 4.69194 5.94492 4.74103C5.87725 4.79012 5.81803 4.85558 5.75035 4.91286C5.68267 4.96195 5.62346 5.02741 5.55578 5.08468C5.4881 5.13378 5.39505 5.1665 5.33583 5.2156C5.26815 5.27287 5.18356 5.3056 5.12434 5.36288C5.05666 5.42015 4.99744 5.47743 4.93823 5.5347C4.87901 5.59198 4.85363 5.69016 4.78595 5.74744C4.72674 5.80471 4.61676 5.82108 4.55754 5.88654C4.49832 5.94381 4.45603 6.02563 4.39681 6.09109C4.33759 6.14837 4.28683 6.22201 4.22762 6.28746C4.1684 6.35292 4.10072 6.40201 4.0415 6.45929C3.98229 6.52475 3.88923 6.55748 3.83847 6.62293C3.77926 6.68839 3.77926 6.79476 3.72004 6.85203C3.66082 6.91749 3.61852 6.98295 3.5593 7.04841C3.50855 7.11386 3.42395 7.16296 3.37319 7.22841C3.32243 7.29387 3.25476 7.35115 3.204 7.4166C3.15324 7.48206 3.09402 7.54752 3.04327 7.61298C2.99251 7.67843 2.93329 7.74389 2.88253 7.80935C2.83178 7.87481 2.83178 7.98118 2.78948 8.04663C2.73872 8.12027 2.68796 8.18573 2.6372 8.25119C2.58645 8.32483 2.51031 8.37392 2.45955 8.43938C2.41725 8.51302 2.3665 8.57847 2.3242 8.65211C2.2819 8.72575 2.29036 8.83212 2.24806 8.89758C2.20576 8.96304 2.17192 9.04486 2.12963 9.1185C2.08733 9.19214 1.99427 9.24123 1.96043 9.31487C1.91813 9.38851 1.89276 9.47033 1.85046 9.54397C1.81662 9.61761 1.78278 9.69943 1.74894 9.77307C1.7151 9.84671 1.68126 9.92853 1.64743 10.0022C1.61359 10.0758 1.56283 10.1495 1.53745 10.2313C1.50361 10.3049 1.51207 10.4031 1.47823 10.4767C1.44439 10.5586 1.37672 10.6158 1.34288 10.6977C1.30904 10.7795 1.25828 10.8449 1.2329 10.9268C1.20752 11.0086 1.22444 11.0986 1.19907 11.1804C1.17369 11.2622 1.13139 11.3359 1.10601 11.4177C1.08063 11.4995 1.02141 11.565 0.996034 11.6468C0.970655 11.7286 0.996034 11.8268 0.979114 11.9004C0.953736 11.9823 0.894518 12.0559 0.877599 12.1377C0.86068 12.2195 0.84376 12.3014 0.826841 12.3832C0.809922 12.465 0.801462 12.5468 0.784543 12.6287C0.767624 12.7105 0.767623 12.7923 0.750704 12.8741C0.733785 12.9559 0.708406 13.0378 0.691487 13.1196C0.674567 13.2014 0.649189 13.2832 0.640729 13.3651C0.632269 13.4469 0.640729 13.5369 0.62381 13.6187C0.61535 13.7005 0.573052 13.7823 0.564592 13.8642C0.556132 13.946 0.598431 14.036 0.589971 14.1178C0.589971 14.1996 0.539213 14.2815 0.530754 14.3633C0.530754 14.4451 0.556132 14.5351 0.556132 14.6169C0.556132 14.6987 0.547673 14.7806 0.539213 14.8706C0.539213 14.9524 0.539213 15.0342 0.539213 15.1242C0.539213 15.2142 0.479996 15.337 0.479996 15.4188C0.479996 15.5006 0.479996 15.5906 0.488455 15.6724C0.488455 15.7542 0.496915 15.8443 0.505375 15.9261C0.505375 16.0079 0.573052 16.0897 0.581511 16.1715C0.581511 16.2534 0.539213 16.3434 0.547673 16.4334C0.556132 16.5152 0.632269 16.597 0.640729 16.6788C0.649189 16.7607 0.666108 16.8425 0.683027 16.9243C0.699946 17.0061 0.708406 17.0879 0.725325 17.1779C0.742245 17.2598 0.750704 17.3416 0.776083 17.4234C0.793002 17.5052 0.835301 17.5871 0.85222 17.6607C0.877599 17.7425 0.877599 17.8325 0.902978 17.9062C0.928357 17.988 0.936816 18.0698 0.970655 18.1516C0.996034 18.2334 1.06371 18.2989 1.09755 18.3807C1.13139 18.4625 1.16523 18.5362 1.19907 18.6098C1.2329 18.6917 1.26674 18.7653 1.30058 18.8389C1.33442 18.9126 1.3598 19.0026 1.39364 19.0762C1.43594 19.1499 1.49515 19.2153 1.53745 19.2889C1.57975 19.3626 1.62205 19.4362 1.6728 19.5099C1.7151 19.5835 1.74048 19.6653 1.78278 19.739C1.83354 19.8126 1.89276 19.8699 1.94351 19.9353C1.99427 20.0008 2.01119 20.099 2.06195 20.1644C2.11271 20.2299 2.18038 20.2872 2.2396 20.3526C2.29882 20.4181 2.37496 20.459 2.43417 20.5245C2.49339 20.5899 2.56107 20.639 2.62874 20.6963C2.68796 20.7536 2.73026 20.8354 2.78948 20.8927C2.85715 20.9499 2.92483 20.999 2.99251 21.0563C3.06019 21.1136 3.12786 21.1627 3.204 21.2118C3.27168 21.2609 3.33089 21.3263 3.40703 21.3754C3.48317 21.4245 3.54239 21.4818 3.61852 21.5309C3.69466 21.5718 3.77926 21.6045 3.85539 21.6454C3.93153 21.6863 4.03304 21.6863 4.10918 21.7191C4.18532 21.76 4.24454 21.8254 4.32913 21.8582C4.40527 21.8909 4.48141 21.9318 4.566 21.9645C4.64214 21.9973 4.74365 21.9809 4.82825 22.0136C4.91285 22.0382 4.97206 22.1282 5.05666 22.1527C5.14126 22.1773 5.23431 22.1527 5.32737 22.1773C5.41197 22.2018 5.49656 22.21 5.58116 22.2264C5.66576 22.2427 5.74189 22.3 5.82649 22.3164C5.91108 22.3327 5.99568 22.3327 6.08874 22.3491C6.17333 22.3654 6.25793 22.3655 6.35099 22.3736C6.43558 22.3818 6.52018 22.4227 6.60477 22.4309C6.68937 22.4309 6.77397 22.4473 6.86702 22.4555C6.95162 22.4555 7.04468 22.4145 7.12927 22.4227C7.21387 22.4227 7.30693 22.48 7.39152 22.48C7.47612 22.48 7.56917 22.4636 7.65377 22.4636C7.73837 22.4636 7.83142 22.4636 7.91602 22.4636C8.00062 22.4636 8.09367 22.4391 8.17827 22.4309C8.26286 22.4309 8.35592 22.4145 8.44052 22.4064C8.52511 22.4064 8.60971 22.3818 8.70277 22.3736C8.78736 22.3655 8.88042 22.3654 8.96501 22.3573C9.04961 22.3491 9.14267 22.3736 9.22726 22.3573C9.31186 22.3409 9.388 22.2591 9.47259 22.2427C9.55719 22.2264 9.6587 22.2673 9.7433 22.2427C9.8279 22.2264 9.90403 22.1691 9.98863 22.1445C10.0732 22.1282 10.1578 22.12 10.2424 22.0954C10.327 22.0709 10.4116 22.0545 10.4962 22.0382C10.5808 22.0136 10.6654 21.9891 10.7415 21.9645C10.8261 21.94 10.9107 21.9236 10.9953 21.8909C11.0799 21.8582 11.1476 21.8009 11.2237 21.7682C11.3083 21.7354 11.4099 21.7518 11.486 21.7191C11.5706 21.6863 11.6467 21.6536 11.7229 21.6127C11.799 21.58 11.8498 21.49 11.9343 21.449C12.0105 21.4081 12.1035 21.3918 12.1712 21.3509C12.2474 21.3099 12.3066 21.2445 12.3827 21.1954C12.4588 21.1463 12.535 21.1136 12.6111 21.0727C12.6788 21.0236 12.7719 21.0072 12.848 20.9499C12.9157 20.9008 12.9918 20.8436 13.051 20.7945C13.1187 20.7372 13.1441 20.6472 13.2033 20.5899C13.2371 20.5163 13.2879 20.4508 13.3217 20.3854C13.3556 20.3117 13.3979 20.2381 13.4317 20.1644C13.4655 20.0908 13.4994 20.0172 13.5248 19.9353C13.5501 19.8535 13.5248 19.7635 13.5501 19.6899C13.5755 19.6081 13.6094 19.5344 13.6263 19.4608C13.6432 19.379 13.6686 19.2971 13.6855 19.2235C13.7024 19.1417 13.7363 19.0598 13.7447 18.9862C13.7532 18.8962 13.7616 18.8144 13.7616 18.7407C13.7616 18.6507 13.7447 18.5689 13.7532 18.4953C13.7532 18.3398 13.8801 18.258 13.7532 18.2253C13.6263 18.1925 13.6855 18.3235 13.584 18.4462C13.5417 18.4953 13.4909 18.5689 13.4317 18.6426C13.3809 18.6998 13.3133 18.7571 13.2541 18.8226C13.1948 18.8798 13.1356 18.9371 13.0764 19.0026C13.0172 19.0598 12.9664 19.1253 12.8987 19.1826C12.8395 19.2399 12.7549 19.2726 12.6873 19.3299C12.628 19.379 12.5688 19.4444 12.5011 19.5017C12.4419 19.5508 12.3827 19.6244 12.315 19.6735C12.2474 19.7226 12.1458 19.7226 12.0697 19.7717C12.002 19.8208 11.9428 19.8699 11.8667 19.919C11.799 19.9681 11.7398 20.0335 11.6721 20.0826C11.6044 20.1235 11.5283 20.1726 11.4521 20.2135C11.3845 20.2544 11.2914 20.279 11.2153 20.3199C11.1391 20.3608 11.0884 20.4426 11.0122 20.4754C10.9361 20.5163 10.8431 20.5245 10.7669 20.5572C10.6908 20.5899 10.6062 20.6145 10.53 20.6472C10.4539 20.6799 10.3778 20.7208 10.3016 20.7536C10.2255 20.7863 10.1578 20.8517 10.0817 20.8763C10.0056 20.9008 9.90403 20.8845 9.8279 20.9172C9.75176 20.9418 9.67562 21.0072 9.59949 21.0318C9.51489 21.0563 9.42184 21.0318 9.33724 21.0563C9.25264 21.0727 9.17651 21.1054 9.09191 21.1218C9.00731 21.1381 8.93118 21.1709 8.84658 21.1872C8.76198 21.2036 8.67739 21.1872 8.59279 21.1872C8.50819 21.1954 8.4236 21.1872 8.339 21.1954C8.2544 21.1954 8.16981 21.2036 8.08521 21.2118C8.00062 21.2118 7.91602 21.2363 7.83142 21.2363C7.74683 21.2363 7.65377 21.2609 7.56917 21.2609C7.48458 21.2609 7.39152 21.2445 7.30693 21.2445C7.22233 21.2445 7.13773 21.2118 7.04468 21.2036C6.96008 21.2036 6.87548 21.1872 6.78243 21.179C6.68937 21.1709 6.61323 21.1545 6.52864 21.1381C6.44404 21.1218 6.35099 21.1463 6.26639 21.1381C6.18179 21.1218 6.10566 21.0645 6.02106 21.0399C5.93646 21.0236 5.85187 20.999 5.76727 20.9827C5.68267 20.9581 5.58962 20.9581 5.51348 20.9336C5.42889 20.909 5.34429 20.8763 5.26815 20.8517C5.18356 20.819 5.10742 20.7863 5.02282 20.7536C4.94669 20.7208 4.85363 20.7045 4.77749 20.6636C4.70136 20.6226 4.61676 20.5899 4.54062 20.549C4.46449 20.5081 4.42219 20.4181 4.34605 20.369C4.26991 20.3199 4.1684 20.3281 4.09226 20.279C4.02458 20.2299 3.99075 20.1317 3.92307 20.0826C3.85539 20.0335 3.74542 20.0253 3.67774 19.9681C3.61852 19.9108 3.55084 19.8535 3.49163 19.7881C3.43241 19.7308 3.39011 19.649 3.33089 19.5835C3.27168 19.5181 3.204 19.469 3.14478 19.4035C3.09402 19.338 3.03481 19.2726 2.98405 19.2071C2.93329 19.1417 2.92483 19.0435 2.87407 18.9698C2.83178 18.8962 2.79794 18.8226 2.75564 18.7407C2.71334 18.6671 2.6372 18.6098 2.59491 18.5362C2.55261 18.4625 2.53569 18.3807 2.50185 18.2989C2.46801 18.2253 2.43417 18.1434 2.40033 18.0616C2.3665 17.988 2.31574 17.9143 2.2819 17.8325C2.25652 17.7507 2.27344 17.6607 2.2396 17.5789C2.21422 17.4971 2.155 17.4316 2.13809 17.3498C2.11271 17.2679 2.08733 17.1861 2.07041 17.1043C2.05349 17.0225 2.04503 16.9407 2.02811 16.8507C2.01119 16.7688 1.97735 16.687 1.96889 16.6052C1.95197 16.5234 1.96889 16.4334 1.95197 16.3515C1.94351 16.2697 1.94351 16.1879 1.93505 16.0979C1.92659 16.0161 1.86738 15.9343 1.85892 15.8524C1.85892 15.7706 1.85892 15.6806 1.85892 15.5988C1.85892 15.517 1.8843 15.427 1.87584 15.3451C1.87584 15.2633 1.83354 15.1815 1.83354 15.0915C1.83354 15.0097 1.83354 14.9278 1.83354 14.8378C1.83354 14.756 1.83354 14.6742 1.83354 14.5842C1.83354 14.4942 1.7997 14.4206 1.7997 14.3305C1.7997 14.2487 1.842 14.1669 1.85046 14.0851C1.85046 14.0033 1.80816 13.9133 1.81662 13.8314C1.81662 13.7496 1.85892 13.6678 1.86738 13.586C1.87584 13.5041 1.86738 13.4141 1.86738 13.3323C1.87584 13.2505 1.94351 13.1769 1.96043 13.095C1.97735 13.0132 1.99427 12.9314 2.01119 12.8496C2.02811 12.7678 2.01965 12.6859 2.04503 12.6041C2.06195 12.5223 2.10425 12.4486 2.12963 12.3668C2.14654 12.285 2.16346 12.2032 2.18884 12.1214C2.21422 12.0395 2.20576 11.9495 2.23114 11.8759C2.25652 11.7941 2.33266 11.7286 2.35804 11.655C2.38341 11.5732 2.40033 11.4913 2.42571 11.4177C2.45109 11.3359 2.45109 11.2459 2.48493 11.1722C2.51877 11.0986 2.56953 11.0249 2.60337 10.9513C2.6372 10.8777 2.62874 10.7795 2.66258 10.7058C2.69642 10.6322 2.7641 10.5667 2.79794 10.4931C2.83178 10.4195 2.84024 10.3295 2.88253 10.2558C2.91637 10.1822 3.00097 10.1249 3.04327 10.0513C3.07711 9.97763 3.11094 9.89581 3.15324 9.82217C3.19554 9.74853 3.2463 9.68307 3.2886 9.60943C3.33089 9.53579 3.36473 9.46215 3.40703 9.38851C3.44933 9.31487 3.47471 9.23305 3.51701 9.15941C3.5593 9.08577 3.6016 9.01213 3.6439 8.94667C3.6862 8.87303 3.73696 8.80758 3.78772 8.73394C3.83001 8.66848 3.86385 8.58666 3.91461 8.51302C3.96537 8.44756 4.05842 8.40665 4.10918 8.34119C4.15994 8.27573 4.17686 8.18573 4.23608 8.12027C4.28683 8.05481 4.34605 7.98936 4.39681 7.9239C4.44757 7.85844 4.48987 7.7848 4.54908 7.71935C4.59984 7.65389 4.67598 7.60479 4.73519 7.54752C4.78595 7.48206 4.81979 7.40024 4.87901 7.33478C4.93823 7.26933 4.98898 7.20387 5.03974 7.13841C5.09896 7.07295 5.1751 7.03204 5.23431 6.97477C5.29353 6.91749 5.32737 6.83567 5.38659 6.77021C5.4458 6.71294 5.54732 6.68839 5.60654 6.63111C5.66576 6.57384 5.69113 6.47565 5.75035 6.41838C5.80957 6.3611 5.87725 6.30383 5.94492 6.24655C6.00414 6.18928 6.0972 6.16473 6.16487 6.10746C6.23255 6.05018 6.29177 6.00109 6.35945 5.94381C6.42712 5.88654 6.46942 5.8129 6.5371 5.75562C6.60478 5.70653 6.71475 5.69835 6.78243 5.64925C6.8501 5.60016 6.8924 5.51834 6.96008 5.46925C7.02776 5.42015 7.08697 5.35469 7.16311 5.3056C7.23079 5.25651 7.32384 5.24014 7.39998 5.19923C7.46766 5.15014 7.52688 5.0765 7.59455 5.02741C7.66223 4.97831 7.74683 4.94559 7.82296 4.90467C7.8991 4.86376 7.97524 4.82285 8.04291 4.78194C8.11905 4.74103 8.20365 4.72467 8.27978 4.68376C8.35592 4.64284 8.39822 4.55284 8.47436 4.51193C8.55049 4.47102 8.66047 4.49557 8.7366 4.45465C8.81274 4.41374 8.8635 4.33192 8.93964 4.29101C9.01577 4.25828 9.11729 4.26646 9.19343 4.23374C9.26956 4.20101 9.32878 4.11919 9.41338 4.08646C9.48951 4.05373 9.57411 4.03736 9.65871 4.00463C9.73484 3.97191 9.81944 3.94736 9.90404 3.91463C9.98863 3.8819 10.0563 3.84099 10.1409 3.80826C10.2255 3.78372 10.3186 3.7919 10.4032 3.76735C10.4877 3.7428 10.5723 3.72644 10.6569 3.71008C10.7415 3.68553 10.8092 3.63644 10.8938 3.62007C10.9784 3.59553 11.0545 3.54643 11.1391 3.52189C11.2237 3.50552 11.3168 3.54643 11.4014 3.52189C11.486 3.50552 11.5621 3.44006 11.6467 3.4237C11.7313 3.40734 11.8159 3.39915 11.9005 3.38279C11.9851 3.36642 12.0697 3.38279 12.1543 3.35824C12.2389 3.34188 12.3235 3.35824 12.4165 3.34188C12.5011 3.3337 12.5857 3.2846 12.6703 3.27642C12.7549 3.26824 12.8395 3.26006 12.9241 3.25187C13.0087 3.25187 13.1018 3.27642 13.1864 3.26824C13.271 3.26824 13.3556 3.23551 13.4402 3.23551C13.5248 3.23551 13.6094 3.24369 13.7024 3.23551C13.787 3.23551 13.8716 3.23551 13.9562 3.23551C14.0408 3.23551 14.1339 3.21915 14.2185 3.22733C14.303 3.22733 14.3961 3.1946 14.4807 3.20278C14.5653 3.20278 14.6584 3.23551 14.7429 3.23551C14.8275 3.23551 14.9206 3.25187 15.0052 3.26006C15.0898 3.26824 15.1829 3.26006 15.2674 3.26824C15.352 3.27642 15.4451 3.2846 15.5297 3.30097C15.6143 3.31733 15.6989 3.35824 15.7835 3.37461C15.8681 3.39097 15.9527 3.4237 16.0373 3.44006C16.1219 3.45643 16.2149 3.44825 16.2995 3.47279C16.3841 3.48916 16.4687 3.53007 16.5449 3.55461C16.6294 3.57916 16.7225 3.55461 16.8071 3.57916C16.8917 3.60371 16.9763 3.61189 17.0609 3.63644C17.1455 3.66098 17.2301 3.69371 17.3062 3.71826C17.3908 3.7428 17.4754 3.77553 17.5515 3.80008C17.6361 3.83281 17.6954 3.90645 17.78 3.93918C17.8646 3.97191 17.9407 3.99645 18.0253 4.02918C18.1099 4.06191 18.1945 4.07009 18.2791 4.111C18.3552 4.14373 18.4398 4.17646 18.5159 4.21737C18.5921 4.25828 18.6513 4.3401 18.7274 4.38101C18.8036 4.42193 18.8797 4.46284 18.9559 4.50375C19.032 4.54466 19.1166 4.56921 19.1927 4.61012C19.2689 4.65921 19.345 4.69194 19.4127 4.74103C19.4888 4.79012 19.548 4.83922 19.6242 4.88831C19.6918 4.9374 19.768 4.9865 19.8357 5.03559C19.9033 5.08468 19.9541 5.15832 20.0218 5.2156C20.0894 5.26469 20.1825 5.29742 20.2502 5.34651C20.3179 5.40379 20.3517 5.49379 20.4109 5.55107C20.4786 5.60834 20.5547 5.64925 20.6224 5.70653C20.6816 5.7638 20.7408 5.82926 20.8001 5.88654C20.8593 5.94381 20.9016 6.02563 20.9608 6.09109C21.02 6.15655 21.1131 6.18928 21.1638 6.25473C21.223 6.32019 21.2738 6.38565 21.333 6.45111C21.3838 6.51656 21.4176 6.59839 21.4684 6.66384C21.5191 6.7293 21.5699 6.80294 21.6206 6.8684C21.6714 6.93386 21.756 6.98295 21.7983 7.05659C21.849 7.13023 21.8744 7.20387 21.9252 7.27751C21.9675 7.35115 22.0013 7.43297 22.0436 7.50661C22.0859 7.58025 22.1451 7.64571 22.179 7.71935C22.2213 7.79298 22.2636 7.86662 22.3059 7.94026C22.3397 8.0139 22.3989 8.08754 22.4328 8.16118C22.4666 8.23482 22.5004 8.31664 22.5343 8.39847C22.5681 8.48029 22.5343 8.57847 22.5681 8.6603C22.5935 8.74212 22.6612 8.80758 22.6866 8.8894C22.7119 8.97122 22.7035 9.06122 22.7288 9.14304C22.7542 9.22487 22.7796 9.30669 22.7965 9.38851C22.8134 9.47033 22.898 9.54397 22.915 9.62579C22.9319 9.70761 22.9488 9.78944 22.9657 9.87944C22.9826 9.96126 22.9319 10.0513 22.9488 10.1413C22.9573 10.2231 22.9742 10.3049 22.9826 10.3949C22.9911 10.4767 23.008 10.5586 23.0165 10.6486C23.0165 10.7304 23.0165 10.8204 23.0165 10.9022C23.0165 10.984 23.0503 11.074 23.0503 11.1559C23.0503 11.2377 23.0249 11.3277 23.0249 11.4095C23.0249 11.4913 23.0334 11.5813 23.0249 11.6632C23.0249 11.745 23.008 11.8268 22.9911 11.9168C22.9826 11.9986 22.9573 12.0804 22.9488 12.1623C22.9403 12.2441 22.9234 12.3259 22.915 12.4077C22.898 12.4896 22.8896 12.5714 22.8727 12.6532C22.8557 12.735 22.8388 12.8168 22.8219 12.8987C22.805 12.9805 22.7965 13.0705 22.7796 13.1441C22.7542 13.226 22.7288 13.3078 22.7035 13.3896C22.6781 13.4714 22.6358 13.5451 22.6104 13.6269C22.585 13.7087 22.5766 13.7905 22.5427 13.8723C22.5089 13.9542 22.4497 14.0196 22.4158 14.0933C22.382 14.1751 22.3905 14.2651 22.3482 14.3387C22.3143 14.4124 22.2551 14.486 22.2213 14.5596C22.1874 14.6333 22.1705 14.7233 22.1282 14.7969C22.0859 14.8706 22.0013 14.9197 21.959 14.9933C21.9167 15.0669 21.8744 15.1406 21.8321 15.2142C21.7814 15.2879 21.756 15.3697 21.7052 15.4351C21.6545 15.5088 21.5868 15.5661 21.536 15.6315C21.4853 15.697 21.443 15.7706 21.3838 15.8361C21.3245 15.9015 21.2569 15.9506 21.2061 16.0161C21.1469 16.0815 21.1046 16.1552 21.0454 16.2124C20.9862 16.2779 20.9016 16.3106 20.8339 16.3679C20.7747 16.4252 20.7239 16.4988 20.6562 16.5479C20.5886 16.6052 20.5547 16.6952 20.487 16.7443C20.4194 16.7934 20.3432 16.8425 20.2671 16.8834C20.1994 16.9325 20.1064 16.957 20.0302 16.9979C19.9541 17.0389 19.8949 17.1043 19.8187 17.1452C19.7426 17.1861 19.6665 17.227 19.5903 17.2598C19.5057 17.2925 19.4296 17.3252 19.345 17.3498C19.2604 17.3743 19.1758 17.407 19.0912 17.4234C19.0066 17.4398 18.922 17.4561 18.829 17.4643C18.7444 17.4725 18.6513 17.4561 18.5667 17.4643C18.4821 17.4643 18.3891 17.4725 18.3045 17.4643C18.2114 17.4561 18.1268 17.4643 18.0422 17.4398C17.9576 17.4152 17.8815 17.358 17.8138 17.3252C17.7377 17.2843 17.67 17.2352 17.6108 17.1779C17.5515 17.1207 17.5093 17.047 17.4754 16.9734C17.4416 16.8998 17.4331 16.8179 17.4077 16.7361C17.3908 16.6625 17.3147 16.5888 17.3062 16.4988C17.3062 16.417 17.3147 16.3352 17.3147 16.2452C17.3147 16.1634 17.3316 16.0815 17.3401 15.9997C17.3401 15.9179 17.3401 15.8361 17.357 15.7542C17.3739 15.6724 17.4162 15.5988 17.4416 15.517C17.4585 15.4351 17.4416 15.3533 17.467 15.2633C17.4839 15.1815 17.4839 15.0997 17.5093 15.0179C17.5346 14.936 17.5938 14.8706 17.6192 14.7887C17.6446 14.7069 17.6869 14.6415 17.7123 14.5596C17.7377 14.486 17.7715 14.4042 17.7969 14.3224C17.8307 14.2487 17.8561 14.1669 17.8899 14.0933C17.9238 14.0196 17.9322 13.9296 17.9661 13.856C17.9999 13.7823 18.0591 13.7169 18.093 13.6351C18.1268 13.5614 18.1183 13.4632 18.1522 13.3896C18.186 13.316 18.2452 13.2505 18.2791 13.1687C18.3129 13.095 18.3468 13.0132 18.3806 12.9396C18.4144 12.8659 18.4398 12.7841 18.4736 12.7105C18.5075 12.6368 18.5836 12.5796 18.6259 12.5059C18.6598 12.4323 18.6682 12.3423 18.7105 12.2686C18.7528 12.195 18.8036 12.1295 18.8459 12.0559C18.8882 11.9823 18.9305 11.9168 18.9728 11.8432C19.0151 11.7695 19.0743 11.7041 19.1081 11.6304C19.1504 11.5568 19.1673 11.475 19.2096 11.4013C19.2519 11.3277 19.3027 11.2622 19.345 11.1886C19.3873 11.115 19.4042 11.0331 19.4465 10.9595C19.4888 10.8858 19.548 10.8204 19.5903 10.7549C19.6326 10.6813 19.7003 10.624 19.7426 10.5504C19.7849 10.4767 19.7934 10.3867 19.8357 10.3131C19.8779 10.2395 19.9625 10.1985 20.0133 10.1249C20.0641 10.0513 20.1233 9.99399 20.1656 9.92035C20.2079 9.84671 20.2079 9.74853 20.2586 9.68307C20.3094 9.60943 20.4024 9.5767 20.4447 9.50306C20.4955 9.42942 20.504 9.33942 20.5463 9.27396C20.597 9.20032 20.6478 9.14304 20.6985 9.06941C20.7493 9.00395 20.7747 8.94667 20.8254 8.88121C20.7408 8.89758 20.6732 8.88122 20.597 8.89758C20.5124 8.91394 20.4278 8.93031 20.3517 8.93849C20.2671 8.95485 20.1994 9.02849 20.1148 9.04486C20.0302 9.06122 19.9456 9.04486 19.861 9.06122C19.7764 9.07759 19.6918 9.09395 19.6157 9.10213C19.5311 9.11032 19.438 9.08577 19.3619 9.10213C19.2773 9.11032 19.2012 9.15123 19.1166 9.15941C19.032 9.16759 18.9389 9.13486 18.8628 9.14304C18.7782 9.15123 18.7021 9.21668 18.6175 9.22487C18.5329 9.22487 18.4398 9.16759 18.3637 9.17577C18.2791 9.17577 18.1945 9.22487 18.1099 9.22487C18.0253 9.22487 17.9407 9.20032 17.8561 9.20032C17.7715 9.20032 17.6869 9.24941 17.6023 9.24941C17.5177 9.24941 17.4331 9.24123 17.3485 9.23305C17.2639 9.23305 17.1709 9.2576 17.0947 9.2576C17.0101 9.2576 16.9255 9.21668 16.8409 9.2085C16.7479 9.2085 16.6633 9.21668 16.5872 9.2085C16.4941 9.2085 16.4095 9.17577 16.3334 9.16759C16.3334 9.08577 16.3672 9.00395 16.3672 8.92213C16.3672 8.8403 16.3418 8.75848 16.3334 8.67666C16.3334 8.59484 16.3503 8.51302 16.3418 8.43119C16.3418 8.34937 16.2741 8.26755 16.2657 8.18573C16.2657 8.10391 16.3164 8.0139 16.308 7.93208C16.2995 7.85026 16.2826 7.76844 16.2657 7.68662C16.2572 7.60479 16.2403 7.52297 16.2234 7.44115C16.2149 7.35933 16.1895 7.27751 16.1726 7.19569C16.1557 7.11386 16.1557 7.03204 16.1388 6.95022C16.1219 6.8684 16.105 6.78658 16.088 6.70475C16.0711 6.62293 16.0119 6.54929 15.9865 6.47565C15.9611 6.39383 15.9696 6.30383 15.9442 6.23019C15.9188 6.14018 15.8765 6.07473 15.8512 6.00109C15.8173 5.91108 15.7835 5.83744 15.7666 5.77199C15.7073 5.62471 15.7919 5.61652 15.682 5.55107C15.5635 5.48561 15.5889 5.51016 15.4197 5.52652C15.3436 5.5347 15.2505 5.54288 15.1575 5.55925C15.0813 5.57561 14.9883 5.60834 14.9037 5.62471C14.8191 5.64107 14.7345 5.6738 14.6499 5.70653C14.5653 5.73107 14.4892 5.77199 14.4046 5.79653C14.32 5.82108 14.2438 5.85381 14.1592 5.88654C14.0831 5.91927 13.9985 5.96018 13.9224 6.00109C13.8462 6.042 13.7701 6.08291 13.694 6.132C13.6178 6.17291 13.5163 6.18928 13.4486 6.23837C13.3809 6.28746 13.3217 6.35292 13.2541 6.4102C13.1864 6.46747 13.1356 6.53293 13.0764 6.59839C13.0933 6.68021 13.1272 6.75385 13.1525 6.83567C13.1695 6.91749 13.1695 7.0075 13.1948 7.08113C13.2202 7.16296 13.2541 7.2366 13.2794 7.31842C13.3048 7.40024 13.3302 7.47388 13.364 7.5557C13.3979 7.63752 13.3979 7.72753 13.4317 7.80117C13.4655 7.87481 13.5078 7.94845 13.5501 8.02209C13.5924 8.09573 13.6178 8.17755 13.6601 8.25119C13.7024 8.32483 13.7786 8.3821 13.8208 8.45574C13.8631 8.52938 13.9224 8.59484 13.9647 8.6603C14.0154 8.73394 14.0323 8.81576 14.0746 8.8894C14.1254 8.96304 14.1762 9.02849 14.2269 9.09395C14.2777 9.16759 14.3369 9.22487 14.3876 9.29032C14.4384 9.36396 14.4807 9.4376 14.523 9.50306C14.5822 9.58488 14.6499 9.65034 14.6837 9.7158C14.6837 9.78944 14.6076 9.87126 14.5907 9.96126C14.5822 10.0349 14.5653 10.1167 14.5484 10.2067C14.5315 10.2804 14.523 10.3704 14.5061 10.4522C14.4892 10.5258 14.4807 10.6158 14.4553 10.6977C14.4299 10.7713 14.4384 10.8613 14.413 10.9431C14.3876 11.0168 14.32 11.0904 14.2946 11.1722C14.2692 11.2459 14.2354 11.3277 14.21 11.4095C14.1846 11.4831 14.1846 11.5813 14.1592 11.655C14.1254 11.7286 14.1 11.8104 14.0662 11.8923C14.0323 11.9659 13.9647 12.0314 13.9308 12.105C13.897 12.1786 13.9054 12.2768 13.8716 12.3505C13.8378 12.4241 13.7447 12.4732 13.7024 12.555C13.6686 12.6287 13.6517 12.7187 13.6094 12.7923C13.5755 12.8659 13.5248 12.9396 13.4825 13.0132C13.4402 13.0869 13.4402 13.1769 13.3979 13.2505C13.3556 13.3241 13.3048 13.3896 13.2625 13.4632C13.2202 13.5369 13.1441 13.5942 13.1018 13.6596C13.0595 13.7332 13.0426 13.8233 13.0003 13.8969C12.958 13.9705 12.9326 14.0524 12.8818 14.1178C12.8395 14.1915 12.7719 14.2487 12.7211 14.3142C12.6703 14.3878 12.6365 14.4615 12.5857 14.5269C12.535 14.5924 12.5011 14.6742 12.4504 14.7397C12.3996 14.8051 12.3489 14.8706 12.2981 14.936C12.2474 15.0015 12.1628 15.0506 12.112 15.116C12.0612 15.1815 12.0443 15.2715 11.9851 15.337C11.9343 15.4024 11.8582 15.4515 11.799 15.517C11.7398 15.5824 11.7229 15.6724 11.6636 15.7379C11.6044 15.8033 11.5367 15.8524 11.4775 15.9097C11.4183 15.967 11.3253 15.9997 11.266 16.057C11.2068 16.1143 11.1899 16.2206 11.1307 16.2779C11.0715 16.3352 10.9615 16.3434 10.8938 16.4006C10.8261 16.4579 10.7669 16.5152 10.6992 16.5643C10.6316 16.6134 10.5723 16.6788 10.5047 16.7279C10.437 16.777 10.3609 16.8179 10.2847 16.867C10.2086 16.9161 10.1324 16.9407 10.0563 16.9816C9.98017 17.0225 9.91249 17.0634 9.8279 17.1043C9.75176 17.1452 9.66716 17.1698 9.59103 17.2025C9.51489 17.2352 9.43875 17.268 9.35416 17.2925C9.26956 17.317 9.19342 17.3416 9.10883 17.3661C9.02423 17.3907 8.95656 17.4643 8.87196 17.4725C8.78736 17.4889 8.69431 17.4398 8.60971 17.448C8.52511 17.448 8.44052 17.4971 8.35592 17.4971C8.27132 17.4971 8.18673 17.5134 8.10213 17.5052C8.01754 17.5052 7.93294 17.4807 7.84834 17.4725C7.76375 17.4643 7.67915 17.4316 7.60301 17.4152C7.51842 17.3989 7.44228 17.3661 7.35768 17.3416C7.27309 17.317 7.20541 17.2761 7.12927 17.2516C7.05314 17.2189 6.98546 17.1779 6.90932 17.137C6.83319 17.0961 6.73167 17.0961 6.67245 17.047C6.60478 16.9979 6.57094 16.9079 6.51172 16.8507C6.4525 16.7934 6.36791 16.7607 6.31715 16.6952C6.26639 16.6297 6.25793 16.5397 6.21563 16.4661C6.17333 16.4006 6.08874 16.3515 6.04644 16.2697C6.0126 16.1961 6.04644 16.0979 6.02106 16.0161C5.99568 15.9424 5.928 15.877 5.90263 15.7952C5.88571 15.7215 5.87725 15.6315 5.86033 15.5497C5.84341 15.4679 5.84341 15.386 5.83495 15.3042C5.82649 15.2224 5.80957 15.1488 5.80957 15.0588C5.80957 14.9769 5.79265 14.8951 5.78419 14.8133C5.78419 14.7315 5.74189 14.6497 5.74189 14.5678C5.74189 14.486 5.80957 14.4042 5.80957 14.3224C5.80957 14.2405 5.75881 14.1587 5.76727 14.0769C5.76727 13.9951 5.78419 13.9133 5.79265 13.8314C5.79265 13.7496 5.84341 13.6678 5.85187 13.586C5.85187 13.5041 5.82649 13.4141 5.83495 13.3323C5.84341 13.2505 5.85187 13.1687 5.86879 13.0869C5.87725 13.005 5.91108 12.9232 5.928 12.8414C5.94492 12.7596 5.94492 12.6777 5.96184 12.5959C5.97876 12.5141 6.0126 12.4323 6.02952 12.3586C6.04644 12.2768 6.08028 12.2032 6.10566 12.1214C6.13104 12.0395 6.15641 11.9659 6.18179 11.8841C6.20717 11.8023 6.24947 11.7286 6.27485 11.655C6.30023 11.5732 6.30869 11.4913 6.34253 11.4177C6.37636 11.3359 6.4102 11.2622 6.44404 11.1886C6.47788 11.115 6.46942 11.0168 6.50326 10.9431C6.5371 10.8695 6.63015 10.8204 6.67245 10.7468C6.71475 10.6731 6.70629 10.5749 6.75705 10.5095C6.79935 10.4358 6.85856 10.3704 6.90086 10.3049C6.95162 10.2313 7.03622 10.1904 7.07852 10.1249C7.12927 10.0594 7.13773 9.96126 7.18849 9.89581C7.23925 9.83035 7.3323 9.78944 7.38306 9.73216C7.44228 9.6667 7.46766 9.5767 7.52688 9.51943C7.58609 9.46215 7.64531 9.39669 7.70453 9.33942C7.77221 9.28214 7.86526 9.2576 7.92448 9.2085C7.99216 9.15941 8.04291 9.08577 8.11059 9.03668C8.18673 8.98758 8.26286 8.94667 8.33054 8.90576C8.40668 8.86485 8.49128 8.8403 8.56741 8.80757C8.64355 8.76666 8.71123 8.70939 8.78736 8.67666C8.87196 8.64393 8.96501 8.6603 9.04115 8.63575C9.12575 8.6112 9.20188 8.57847 9.28648 8.56211C9.37108 8.55393 9.46413 8.56211 9.54027 8.56211C9.63333 8.56211 9.72638 8.54574 9.80252 8.57029C9.88712 8.60302 9.95479 8.66848 10.014 8.72575C10.0732 8.78303 10.1409 8.84849 10.1747 8.93031C10.2086 9.00395 10.217 9.09395 10.234 9.17577C10.2509 9.2576 10.2086 9.33942 10.2086 9.42942C10.2086 9.51124 10.2424 9.59306 10.2424 9.68307C10.2424 9.76489 10.234 9.84671 10.217 9.93672C10.2086 10.0185 10.1494 10.0922 10.1324 10.174C10.1155 10.2558 10.1071 10.3376 10.0901 10.4195C10.0648 10.5013 10.0901 10.5913 10.0563 10.6731C10.0309 10.7549 9.95479 10.8122 9.92095 10.894C9.88712 10.9759 9.86174 11.0495 9.8279 11.1313C9.79406 11.205 9.79406 11.3031 9.76022 11.3768C9.72638 11.4504 9.701 11.5322 9.65871 11.6141C9.61641 11.6877 9.53181 11.7368 9.48951 11.8104C9.44721 11.8841 9.43029 11.9741 9.388 12.0395C9.33724 12.1132 9.26956 12.1705 9.2188 12.2359C9.16805 12.3014 9.12575 12.3832 9.07499 12.4405C9.01577 12.5059 8.93964 12.5796 8.88042 12.645C8.95656 12.7514 8.99885 12.6123 9.15959 12.5877C9.23572 12.5714 9.31186 12.5305 9.41338 12.5059C9.48951 12.4896 9.58257 12.4732 9.66716 12.4405C9.75176 12.4159 9.83636 12.3914 9.92095 12.3586C10.0056 12.3341 10.0986 12.3341 10.1832 12.2932C10.2593 12.2605 10.3439 12.2277 10.4285 12.1868C10.5047 12.1541 10.5808 12.105 10.6654 12.0641C10.7415 12.0232 10.8177 11.9741 10.8938 11.925C10.9699 11.8841 11.0292 11.8186 11.1053 11.7695C11.173 11.7204 11.2491 11.6713 11.3168 11.6141C11.3845 11.565 11.486 11.5486 11.5621 11.4913C11.6298 11.4341 11.6721 11.3522 11.7398 11.295C11.7821 11.2295 11.8328 11.164 11.8667 11.0822C11.9005 11.0086 11.9682 10.9431 11.9936 10.8531C12.0189 10.7795 12.0274 10.6895 12.0528 10.6077C12.0697 10.5258 12.0951 10.444 12.112 10.3622C12.1289 10.2804 12.0866 10.1904 12.0951 10.1085C12.1035 10.0267 12.1374 9.9449 12.1458 9.86308C12.1458 9.78125 12.1374 9.69125 12.1374 9.60943C12.1374 9.52761 12.1374 9.44579 12.1289 9.35578C12.1289 9.27396 12.112 9.19214 12.1035 9.10213C12.0951 9.02031 12.0951 8.93031 12.0782 8.84849C12.0612 8.76666 12.0274 8.68484 12.002 8.6112C11.9766 8.52938 11.9428 8.45574 11.909 8.37392C11.8751 8.2921 11.8413 8.21846 11.799 8.14482C11.7567 8.07118 11.7567 7.97299 11.7059 7.89935C11.6552 7.8339 11.5621 7.79298 11.5029 7.73571C11.4437 7.67843 11.376 7.62116 11.3083 7.57207C11.2407 7.52297 11.173 7.48206 11.0884 7.44115C11.0122 7.40024 10.9446 7.35115 10.86 7.3266C10.7838 7.30205 10.7077 7.2366 10.6231 7.21205C10.5385 7.19569 10.4455 7.2366 10.3524 7.22841C10.2678 7.22841 10.1832 7.22841 10.0901 7.22841C10.0056 7.22841 9.92095 7.22023 9.83636 7.22841C9.75176 7.22841 9.66717 7.26114 9.58257 7.27751C9.49797 7.28569 9.41338 7.27751 9.32032 7.29387C9.23572 7.31024 9.14267 7.29387 9.05807 7.31024C8.97347 7.3266 8.9058 7.40024 8.8212 7.42479C8.7366 7.44933 8.65201 7.4657 8.57587 7.49843C8.49128 7.52297 8.40668 7.53934 8.33054 7.57207C8.2544 7.60479 8.17827 7.64571 8.10213 7.68662C8.026 7.71935 7.93294 7.73571 7.8568 7.77662C7.78067 7.81753 7.70453 7.85026 7.62839 7.89117C7.55225 7.93208 7.47612 7.96481 7.39998 8.0139C7.32384 8.05481 7.29001 8.153 7.21387 8.19391C7.14619 8.243 7.03622 8.23482 6.96008 8.28392C6.8924 8.33301 6.8501 8.41483 6.78243 8.47211C6.71475 8.5212 6.65553 8.58666 6.58786 8.64393C6.52018 8.70121 6.46096 8.75848 6.40174 8.81576C6.34253 8.87303 6.26639 8.91394 6.19871 8.97122C6.1395 9.02849 6.07182 9.08577 6.0126 9.14304C5.95338 9.20032 5.86879 9.24123 5.80957 9.29851C5.75035 9.36396 5.72497 9.45397 5.67421 9.51943C5.62346 9.58488 5.58116 9.65852 5.5304 9.72398C5.47964 9.78944 5.40351 9.83853 5.36121 9.91217C5.31045 9.97763 5.28507 10.0676 5.23431 10.1331C5.19202 10.1985 5.14126 10.2722 5.09896 10.3458C5.05666 10.4195 5.0059 10.4849 4.96361 10.5586C4.92131 10.6322 4.88747 10.7058 4.84517 10.7795C4.80287 10.8531 4.73519 10.9104 4.70136 10.9922C4.66752 11.0659 4.59984 11.1313 4.566 11.2131C4.53216 11.2868 4.54062 11.385 4.50678 11.4586C4.47295 11.5322 4.46449 11.6222 4.43065 11.6959C4.40527 11.7777 4.36297 11.8513 4.33759 11.925C4.31221 12.0068 4.31221 12.0886 4.29529 12.1705C4.26991 12.2523 4.17686 12.3177 4.15994 12.3996C4.14302 12.4814 4.15994 12.5714 4.14302 12.6532C4.1261 12.735 4.07534 12.8087 4.05842 12.8905C4.0415 12.9723 4.07534 13.0623 4.05842 13.1441C4.04996 13.226 4.05842 13.3078 4.05842 13.3978C4.05842 13.4796 4.01613 13.5614 4.01613 13.6432C4.01613 13.7251 4.01613 13.8069 4.01613 13.8969C4.01613 13.9787 4.01613 14.0605 4.01613 14.1505C4.01613 14.2405 4.00767 14.3224 4.01613 14.4042C4.01613 14.4942 4.01613 14.576 4.01613 14.6578C4.01613 14.7478 4.0415 14.8297 4.04996 14.9115C4.04996 15.0015 4.03304 15.0833 4.0415 15.1733C4.04996 15.2551 4.06688 15.3451 4.07534 15.427C4.09226 15.5088 4.0838 15.5988 4.10072 15.6806C4.11764 15.7624 4.20224 15.8361 4.21916 15.9179C4.23608 15.9997 4.21916 16.0897 4.24454 16.1715C4.26991 16.2534 4.32913 16.327 4.35451 16.4006C4.37989 16.4825 4.37989 16.5725 4.41373 16.6543C4.44757 16.7361 4.49832 16.8097 4.53216 16.8834C4.566 16.9652 4.6083 17.0388 4.6506 17.1125C4.6929 17.1861 4.74365 17.2598 4.79441 17.3252C4.84517 17.3989 4.87901 17.4725 4.92977 17.5461C4.98052 17.6116 5.02282 17.6934 5.07358 17.7589C5.1328 17.8243 5.20047 17.8734 5.26815 17.9389C5.32737 17.9962 5.42043 18.0289 5.4881 18.078C5.55578 18.1353 5.62346 18.1762 5.69959 18.2253C5.77573 18.2744 5.83495 18.3316 5.91108 18.3725C5.98722 18.4135 6.04644 18.4953 6.12258 18.528C6.19871 18.5607 6.30023 18.5607 6.38482 18.5935C6.46942 18.6262 6.5371 18.6916 6.62169 18.7162C6.70629 18.7407 6.79089 18.7653 6.87548 18.7817C6.96008 18.798 7.05314 18.8062 7.13773 18.8226C7.22233 18.8389 7.31538 18.8062 7.40844 18.8144C7.49304 18.8226 7.57763 18.8553 7.67069 18.8553C7.75529 18.8553 7.84834 18.8307 7.93294 18.8307C8.01754 18.8307 8.11059 18.8962 8.19519 18.8962C8.27978 18.8962 8.37284 18.8798 8.45744 18.8635C8.54203 18.8553 8.62663 18.8226 8.71123 18.8062C8.79582 18.7898 8.88888 18.7898 8.97347 18.7653C9.05807 18.7407 9.13421 18.6835 9.2188 18.6589C9.3034 18.6344 9.40492 18.6589 9.48105 18.6344C9.56565 18.6098 9.63333 18.5444 9.71792 18.5116C9.80252 18.4789 9.88712 18.4707 9.97171 18.438C10.0478 18.4053 10.1071 18.3316 10.1917 18.2907C10.2678 18.2498 10.3693 18.258 10.4455 18.2171C10.5216 18.1762 10.5808 18.1025 10.6569 18.0616C10.7331 18.0207 10.7923 17.9553 10.86 17.9062C10.9277 17.8571 11.0376 17.8571 11.1138 17.808C11.1814 17.7589 11.2576 17.7098 11.3253 17.6525C11.3929 17.6034 11.4691 17.5543 11.5367 17.4971C11.6044 17.4398 11.6467 17.3661 11.7144 17.3089C11.7821 17.2516 11.8413 17.1943 11.9005 17.137C11.9597 17.0798 12.0105 17.0061 12.0697 16.9407C12.1289 16.8834 12.2304 16.8588 12.2897 16.7934C12.3489 16.7361 12.4165 16.6788 12.4758 16.6134C12.535 16.5479 12.5519 16.4579 12.6111 16.3925C12.6703 16.327 12.7465 16.2861 12.8057 16.2206C12.8649 16.1552 12.9241 16.0979 12.9833 16.0324C13.0341 15.967 13.0849 15.8933 13.1356 15.8279C13.1864 15.7624 13.2202 15.6724 13.271 15.607C13.3217 15.5415 13.4063 15.4924 13.4571 15.427C13.5078 15.3615 13.5078 15.2551 13.5586 15.1897C13.6094 15.1242 13.677 15.0669 13.7278 14.9933C13.7785 14.9197 13.8124 14.846 13.8547 14.7724C13.9054 14.6987 13.9985 14.6578 14.0408 14.5842C14.0831 14.5106 14.1 14.4206 14.1508 14.3469C14.1931 14.2733 14.2438 14.2078 14.2946 14.1342C14.3369 14.0605 14.3707 13.9787 14.413 13.9051C14.4553 13.8314 14.5145 13.766 14.5568 13.6923C14.5991 13.6187 14.6245 13.5369 14.6584 13.4551C14.7007 13.3814 14.7345 13.2996 14.7768 13.226C14.8191 13.1523 14.9037 13.1032 14.946 13.0296C14.9883 12.9559 15.0052 12.8659 15.0475 12.7923C15.0898 12.7187 15.1236 12.6368 15.1575 12.5632C15.1913 12.4896 15.2505 12.4159 15.2844 12.3423C15.3182 12.2686 15.3267 12.1705 15.3605 12.0968C15.3943 12.0232 15.4789 11.9577 15.5128 11.8841C15.5466 11.8023 15.5635 11.7204 15.5974 11.6386C15.6312 11.5568 15.6481 11.475 15.682 11.4013C15.7158 11.3195 15.7243 11.2377 15.7581 11.1559C15.7919 11.074 15.8342 11.0004 15.8681 10.9268C15.9019 10.8449 15.9527 10.7713 15.9781 10.6977C16.0119 10.6158 16.0457 10.5504 16.0796 10.4767C16.1642 10.4849 16.2403 10.4604 16.3249 10.4604C16.4095 10.4604 16.4856 10.5258 16.5702 10.534C16.6548 10.534 16.7394 10.4849 16.824 10.4931C16.9086 10.4931 16.9932 10.5504 17.0694 10.5504C17.1539 10.5504 17.2385 10.5258 17.3147 10.5258C17.3993 10.5258 17.4839 10.5177 17.56 10.5095C17.6446 10.5095 17.7292 10.5258 17.8138 10.5095C17.8984 10.5095 17.9745 10.4767 18.0507 10.4686C18.0084 10.5422 17.9999 10.6158 17.9576 10.6895C17.9153 10.7631 17.8392 10.8122 17.7969 10.8858C17.7546 10.9595 17.6954 11.0168 17.6531 11.0986C17.6108 11.1722 17.6192 11.2704 17.5769 11.3441C17.5346 11.4177 17.45 11.4668 17.4077 11.5404C17.3654 11.6141 17.3485 11.6959 17.3062 11.7695C17.2639 11.8432 17.2639 11.9332 17.2216 12.0068C17.1878 12.0804 17.1201 12.1459 17.0863 12.2195C17.0524 12.2932 17.0271 12.375 16.9848 12.4486C16.9509 12.5223 16.8663 12.5796 16.8325 12.6532C16.7986 12.7268 16.7817 12.8087 16.7479 12.8905C16.714 12.9641 16.6971 13.0459 16.6633 13.1278C16.6294 13.2014 16.621 13.2914 16.5872 13.3651C16.5533 13.4387 16.4687 13.496 16.4349 13.5696C16.401 13.6432 16.418 13.7414 16.3841 13.8151C16.3503 13.8887 16.2741 13.9542 16.2403 14.0278C16.2065 14.1096 16.2234 14.1996 16.1895 14.2733C16.1557 14.3551 16.1472 14.4369 16.1219 14.5106C16.0965 14.5924 16.0542 14.666 16.0288 14.7397C16.0034 14.8215 15.9442 14.8869 15.9273 14.9688C15.9019 15.0506 15.885 15.1324 15.8596 15.2142C15.8342 15.296 15.8089 15.3779 15.7919 15.4515C15.775 15.5333 15.7327 15.607 15.7158 15.6888C15.6989 15.7706 15.6904 15.8524 15.682 15.9343C15.665 16.0161 15.6566 16.0979 15.6481 16.1797C15.6397 16.2615 15.6735 16.3515 15.6651 16.4334C15.6651 16.5152 15.6228 16.597 15.6228 16.6788C15.6228 16.7607 15.6566 16.8425 15.6566 16.9243C15.6566 17.0061 15.6566 17.0879 15.6735 17.1698C15.682 17.2516 15.7073 17.3334 15.7243 17.4152C15.7412 17.4971 15.7327 17.5871 15.7581 17.6607C15.7835 17.7425 15.8173 17.8162 15.8596 17.8898C15.8935 17.9634 15.9188 18.0534 15.9611 18.1189C16.0119 18.1844 16.0796 18.2416 16.1388 18.2989C16.198 18.3562 16.2572 18.4216 16.3249 18.4707C16.3926 18.5198 16.4856 18.5362 16.5618 18.5689C16.6379 18.6016 16.7056 18.6589 16.7902 18.6835C16.8663 18.708 16.9594 18.7162 17.044 18.7407C17.1286 18.7571 17.2132 18.7407 17.3062 18.7489C17.3908 18.7571 17.467 18.7817 17.56 18.7898C17.6446 18.7898 17.7292 18.8062 17.8138 18.8062C17.8984 18.8062 17.983 18.7898 18.0676 18.7817C18.1522 18.7817 18.2368 18.798 18.3298 18.7817C18.4144 18.7735 18.499 18.7407 18.5836 18.7244C18.6682 18.708 18.7444 18.6753 18.829 18.6507C18.9136 18.6262 19.0066 18.6507 19.0912 18.6344C19.1758 18.6098 19.2435 18.5526 19.3281 18.528C19.4042 18.4953 19.4973 18.4953 19.5819 18.4625C19.658 18.4298 19.7426 18.3971 19.8187 18.3562C19.8949 18.3235 19.971 18.2825 20.0471 18.2416C20.1233 18.2007 20.191 18.1434 20.2671 18.1025C20.3432 18.0616 20.4194 18.0207 20.4955 17.9798C20.5632 17.9307 20.6224 17.8653 20.6901 17.8162C20.7578 17.7671 20.8508 17.7507 20.9185 17.6934C20.9862 17.6443 21.0454 17.5789 21.1131 17.5298C21.1807 17.4807 21.2484 17.4234 21.3076 17.3661C21.3753 17.3089 21.443 17.2679 21.5107 17.2107C21.5699 17.1534 21.6122 17.0798 21.6799 17.0143C21.7391 16.957 21.7898 16.8834 21.849 16.8261C21.9083 16.7688 22.0013 16.7279 22.0521 16.6707C22.1113 16.6052 22.1536 16.5316 22.2044 16.4661C22.2636 16.4006 22.2889 16.3188 22.3482 16.2534C22.3989 16.1879 22.4835 16.1388 22.5343 16.0734C22.585 16.0079 22.6273 15.9343 22.6781 15.8688C22.7288 15.8033 22.7627 15.7215 22.8134 15.6561C22.8642 15.5906 22.9403 15.5333 22.9826 15.4679C23.0249 15.3942 23.0588 15.3206 23.1011 15.247C23.1434 15.1733 23.1603 15.0833 23.2026 15.0097C23.2449 14.936 23.2787 14.8624 23.321 14.7887C23.3633 14.7151 23.3972 14.6415 23.431 14.5596C23.4648 14.486 23.5325 14.4206 23.5664 14.3469C23.6002 14.2733 23.6425 14.1996 23.6763 14.1178C23.7102 14.0442 23.7186 13.9542 23.744 13.8723C23.7778 13.7987 23.7948 13.7169 23.8286 13.6351C23.854 13.5532 23.9132 13.4878 23.947 13.4141C23.9724 13.3323 23.9978 13.2505 24.0147 13.1769C24.0401 13.095 24.0739 13.0214 24.0993 12.9396C24.1247 12.8578 24.0993 12.7678 24.1247 12.6859C24.1416 12.6041 24.1585 12.5223 24.1839 12.4405C24.2008 12.3586 24.2854 12.2932 24.3023 12.2114C24.3193 12.1295 24.2685 12.0395 24.277 11.9577C24.2939 11.8759 24.3531 11.8023 24.3616 11.7204C24.37 11.6386 24.3869 11.5568 24.4039 11.475C24.4123 11.3931 24.4377 11.3113 24.4462 11.2295C24.4462 11.1477 24.4631 11.0659 24.4631 10.9759C24.4631 10.894 24.4546 10.8122 24.4631 10.7222C24.4631 10.6404 24.4208 10.5586 24.4292 10.4686C24.4292 10.3867 24.4377 10.3049 24.4377 10.2231C24.4377 10.1413 24.48 10.0513 24.48 9.96944C24.48 9.88762 24.4631 9.8058 24.4546 9.72398C24.4546 9.64216 24.4546 9.55215 24.4462 9.47033C24.4377 9.38851 24.3785 9.31487 24.3616 9.22487C24.3531 9.14304 24.3531 9.06122 24.3362 8.9794C24.3193 8.89758 24.3108 8.81576 24.2854 8.73394C24.2685 8.65211 24.2177 8.57847 24.2008 8.49665C24.1754 8.41483 24.1416 8.34119 24.1162 8.25937C24.0909 8.17755 24.0739 8.09573 24.0486 8.02209C24.0232 7.94026 24.0147 7.85844 23.9809 7.77662C23.947 7.6948 23.9047 7.62934 23.8709 7.54752C23.8371 7.47388 23.8286 7.38388 23.7863 7.31024C23.7525 7.2366 23.6848 7.17114 23.6509 7.0975C23.6171 7.02386 23.6256 6.92567 23.5833 6.85203C23.541 6.77839 23.4818 6.71294 23.4395 6.6393C23.3972 6.56566 23.3633 6.49202 23.321 6.41838C23.2787 6.34474 23.211 6.28746 23.1688 6.21382C23.1265 6.14018 23.0588 6.08291 23.0165 6.01745C22.9657 5.95199 22.898 5.89472 22.8473 5.82926C22.7965 5.7638 22.7711 5.6738 22.7204 5.60834C22.6696 5.54288 22.5935 5.49379 22.5427 5.42833C22.4835 5.36288 22.4328 5.29742 22.382 5.23196C22.3228 5.1665 22.2974 5.0765 22.2382 5.01923C22.179 4.96195 22.1113 4.90467 22.0521 4.8474C21.9929 4.79012 21.9167 4.74103 21.849 4.68376C21.7898 4.62648 21.7052 4.58557 21.6376 4.53648C21.5699 4.4792 21.5107 4.42193 21.443 4.37283C21.3753 4.31556 21.3245 4.2501 21.2569 4.19282C21.1892 4.14373 21.0877 4.12737 21.02 4.07827C20.9523 4.02918 20.9185 3.93099 20.8424 3.89008C20.7747 3.84099 20.6985 3.80008 20.6224 3.75917C20.5547 3.71008 20.4786 3.66917 20.4024 3.62007C20.3263 3.57916 20.2671 3.5137 20.191 3.47279C20.1148 3.43188 20.0133 3.43188 19.9456 3.39097C19.8695 3.35006 19.8187 3.26824 19.7426 3.23551C19.6665 3.1946 19.5649 3.21096 19.4803 3.17005C19.4042 3.13732 19.3281 3.08823 19.2519 3.0555C19.1758 3.02277 19.0912 2.99004 19.0151 2.95732C18.9389 2.92459 18.8628 2.87549 18.7867 2.84276C18.7105 2.81004 18.6344 2.75276 18.5582 2.72003C18.4737 2.6873 18.3975 2.67094 18.3129 2.63821C18.2283 2.61366 18.1353 2.62185 18.0591 2.58912C17.9745 2.56457 17.8984 2.52366 17.8138 2.49911C17.7292 2.47457 17.6361 2.49093 17.5515 2.46638C17.467 2.44184 17.3824 2.42547 17.2978 2.40911C17.2132 2.39274 17.1455 2.32729 17.0609 2.30274C16.9763 2.28638 16.8832 2.31911 16.7986 2.30274C16.714 2.28638 16.6294 2.27001 16.5449 2.25365C16.4603 2.23728 16.3841 2.16364 16.2995 2.15546C16.2149 2.1391 16.1303 2.13091 16.0457 2.11455C15.9611 2.10637 15.8681 2.14728 15.7835 2.1391C15.6989 2.13091 15.6143 2.08182 15.5297 2.07364C15.4451 2.07364 15.352 2.09 15.2674 2.07364C15.1829 2.07364 15.0983 2.08182 15.0052 2.07364C14.9206 2.07364 14.836 2 14.7514 2C14.6668 2 14.5738 2.04909 14.4892 2.04091C14.4046 2.04091 14.32 2 14.2269 2" />
</svg>
