<svg fill="none" height="24" viewBox="0 0 24 24" width="24" xmlns="http://www.w3.org/2000/svg"><path d="m13.73 1.35455c-.0846 0-.1777-.01637-.2623-.00818-.0845 0-.1691.06545-.2622.07364-.0846 0-.1777-.03273-.2623-.02455-.0845 0-.1776 0-.2622.00818-.0846 0-.1777-.00818-.2622 0-.0846 0-.1692.04909-.2538.05728-.0846.00818-.1777-.00819-.2623 0-.0846.00818-.1607.08182-.2453.09s-.1777 0-.2623.01637c-.0846.01636-.1776 0-.2622.01636s-.1692.04909-.2538.06546c-.0846.01636-.1692.03273-.2538.05727-.0846.01637-.1776 0-.2622.01637-.0846.01636-.1692.03273-.2538.05727-.0846.02455-.1523.10637-.2369.13092-.0846.02454-.17765 0-.26225.02454-.0846.02455-.16919.04091-.25379.06546-.08459.02455-.16073.05728-.24533.08182-.08459.02455-.16919.04091-.24533.07364-.08459.03273-.14381.10637-.22841.13092-.08459.03273-.17765.02454-.25379.05727-.08459.03273-.16073.06546-.24533.09819-.07613.03273-.16073.06546-.23687.10637-.07613.03273-.13535.11455-.21149.14728-.07613.03272-.17765.03272-.25379.07364-.07613.04091-.14381.09818-.21995.13091-.07613.04091-.14381.09819-.21995.1391-.07613.04091-.14381.09-.21995.13091-.07613.04091-.17765.04091-.24533.09001-.07613.04091-.12689.12273-.19457.17182-.07614.0491-.14381.09001-.21995.1391s-.15227.08182-.22841.12273c-.06768.0491-.16073.07364-.22841.12274-.06768.04909-.1269.11455-.19457.16364-.06768.04909-.1269.11455-.19457.17182-.06768.0491-.1269.11456-.19458.17183-.06767.04909-.16073.08182-.21995.13092-.06767.05727-.15227.09-.21149.14727-.06767.05728-.12689.11456-.18611.17183-.05922.05728-.0846.15546-.15227.21274-.05922.05727-.1692.07364-.22841.13909-.05922.05728-.10152.1391-.16074.20456-.05921.05727-.10997.13091-.16919.19637s-.12689.11455-.18611.17183c-.05922.06545-.15228.09818-.20303.16364-.05922.06546-.05922.17183-.11844.2291-.05922.06546-.10151.13092-.16073.19637-.05076.06546-.13536.11455-.18611.18001-.05076.06546-.11844.12273-.1692.18819-.05075.06546-.10997.13092-.16073.19637-.05076.06546-.10997.13092-.16073.19638-.05076.06545-.05076.17182-.09306.23728-.05076.07364-.10151.1391-.15227.20456-.05076.07363-.1269.12273-.17765.18818-.0423.07364-.09306.1391-.13536.21274s-.03384.18001-.07614.24547c-.04229.06545-.07613.14728-.11843.22092s-.13535.12273-.16919.19637c-.0423.07364-.06768.15546-.10998.2291-.03384.07364-.06768.15546-.10151.2291-.03384.07364-.06768.15546-.10152.2291s-.0846.14728-.10997.2291c-.03384.07364-.02538.17183-.059223.24547-.033838.08182-.101515.1391-.135354.22092-.033838.08184-.084596.14724-.109975.22914-.025379.0818-.00846.1718-.033839.2536-.025378.0818-.067677.1555-.093056.2373s-.084596.1473-.109975.2291 0 .18-.016919.2536c-.025379.0819-.084597.1555-.101516.2373s-.033838.1637-.050758.2455c-.016919.0818-.025379.1636-.042298.2455-.016919.0818-.016919.1636-.033839.2454-.016919.0818-.042298.1637-.059217.2455s-.042298.1636-.050758.2454c-.008459.0819 0 .1719-.016919.2537-.00846.0818-.050758.1636-.0592176.2455-.0084596.0818.0338386.1718.0253786.2536 0 .0818-.0507575.1637-.0592172.2455 0 .0818.025379.1718.025379.2536s-.0084597.1637-.0169193.2537v.2536c0 .09-.0592175.2128-.0592175.2946s0 .1718.00845964.2536c0 .0818.00845966.1718.01691926.2537 0 .0818.0676771.1636.0761371.2454 0 .0819-.0422985.1719-.0338389.2619.0084597.0818.0845969.1636.0930559.2454.00846.0819.025379.1637.042298.2455.01692.0818.025379.1636.042299.2536.016919.0819.025378.1637.050757.2455.01692.0818.059218.1637.076137.2373.025379.0818.025379.1718.050758.2455.025379.0818.033839.1636.067677.2454.025379.0818.093056.1473.126895.2291.033838.0818.067677.1555.101515.2291.033839.0818.067678.1555.101516.2291.033839.0737.059218.1637.093056.2373.042298.0736.101519.1391.143819.2127.04229.0737.08459.1473.13535.221.0423.0736.06768.1554.10997.2291.05076.0736.10998.1309.16074.1963.05076.0655.06767.1637.11843.2291.05076.0655.11844.1228.17766.1882.05921.0655.13535.1064.19457.1719.05921.0654.12689.1145.19457.1718.05922.0573.10151.1391.16073.1964.06768.0572.13536.1063.20303.1636.06768.0573.13536.1064.21149.1555.06768.0491.1269.1145.20304.1636.07613.0491.13535.1064.21149.1555.07613.0409.16073.0736.23687.1145.07613.0409.17765.0409.25379.0737.07613.0409.13535.1063.21995.1391.07613.0327.15227.0736.23687.1063.07613.0327.17765.0164.26225.0491.08459.0246.14381.1146.22841.1391.08459.0246.17765 0 .2707.0246.0846.0245.1692.0327.25379.0491.0846.0163.16074.0736.24533.09.0846.0163.1692.0163.26225.0327.0846.0163.16919.0163.26225.0245.0846.0082.16919.0491.25379.0573.0846 0 .16919.0164.26225.0246.0846 0 .17765-.041.26225-.0328.08459 0 .17765.0573.26225.0573.08459 0 .17765-.0164.26224-.0164h.26225c.0846 0 .17766-.0245.26225-.0327.0846 0 .17765-.0164.26225-.0245.0846 0 .16919-.0246.26225-.0328.0846-.0082.17765-.0082.26225-.0163.0846-.0082.17765.0163.26225 0 .08459-.0164.16073-.0982.24533-.1146.08459-.0163.18611.0246.27071 0 .08459-.0163.16073-.0736.24533-.0982.08459-.0163.16919-.0245.25378-.0491.0846-.0245.1692-.0409.25378-.0572.0846-.0246.1692-.0491.2453-.0737.0846-.0245.1692-.0409.2538-.0736s.1523-.09.2284-.1228c.0846-.0327.1862-.0163.2623-.049.0846-.0328.1607-.0655.2369-.1064.0761-.0327.1269-.1227.2115-.1637.0761-.0409.1691-.0572.2368-.0981.0762-.041.1354-.1064.2115-.1555.0762-.0491.1523-.0818.2284-.1227.0677-.0491.1608-.0655.2369-.1228.0677-.0491.1438-.1063.203-.1554.0677-.0573.0931-.1473.1523-.2046.0338-.0736.0846-.1391.1184-.2045.0339-.0737.0762-.1473.11-.221.0338-.0736.0677-.1472.0931-.2291.0253-.0818 0-.1718.0253-.2454.0254-.0818.0593-.1555.0762-.2291.0169-.0819.0423-.1637.0592-.2373.0169-.0818.0508-.1637.0592-.2373.0085-.09.0169-.1718.0169-.2455 0-.09-.0169-.1718-.0084-.2454 0-.1555.1269-.2373 0-.27-.1269-.0328-.0677.0981-.1692.2209-.0423.0491-.0931.1227-.1523.1964-.0507.0572-.1184.1145-.1776.18-.0593.0572-.1185.1145-.1777.18-.0592.0572-.11.1227-.1776.18-.0593.0573-.1439.09-.2115.1473-.0593.049-.1185.1145-.1862.1718-.0592.0491-.1184.1227-.1861.1718-.0676.0491-.1692.0491-.2453.0982-.0677.0491-.1269.0982-.203.1473-.0677.0491-.1269.1145-.1946.1636-.0677.0409-.1438.09-.2199.1309-.0677.0409-.1608.0655-.2369.1064-.0762.0409-.1269.1227-.203.1555-.0762.0409-.1692.0491-.2454.0818-.0761.0327-.1607.0573-.2368.09-.07618.0327-.15232.0736-.22846.1064-.07613.0327-.14381.0981-.21995.1227-.07613.0245-.17765.0082-.25379.0409-.07613.0245-.15227.09-.22841.1146-.08459.0245-.17765 0-.26225.0245-.08459.0164-.16073.0491-.24533.0655-.08459.0163-.16073.049-.24533.0654-.08459.0164-.16919 0-.25379 0-.08459.0082-.16919 0-.25378.0082-.0846 0-.1692.0082-.25379.0164-.0846 0-.1692.0245-.25379.0245-.0846 0-.17766.0246-.26225.0246-.0846 0-.17765-.0164-.26225-.0164s-.16919-.0327-.26225-.0409c-.0846 0-.16919-.0164-.26225-.0246-.09305-.0082-.16919-.0245-.25379-.0409-.08459-.0163-.17765.0082-.26225 0-.08459-.0163-.16073-.0736-.24533-.0982-.08459-.0163-.16919-.0409-.25378-.0572-.0846-.0246-.17766-.0246-.25379-.0491-.0846-.0246-.1692-.0573-.24533-.0819-.0846-.0327-.16074-.0654-.24533-.0981-.07614-.0328-.1692-.0491-.24533-.09-.07614-.041-.16074-.0737-.23687-.1146-.07614-.0409-.11844-.1309-.19457-.18-.07614-.0491-.17766-.0409-.25379-.09-.06768-.0491-.10152-.1473-.1692-.1964-.06767-.0491-.17765-.0573-.24533-.1145-.05921-.0573-.12689-.1146-.18611-.18-.05922-.0573-.10151-.1391-.16073-.2046s-.1269-.1145-.18611-.18c-.05076-.0655-.10998-.1309-.16074-.1964-.05075-.0654-.05921-.1636-.10997-.2373-.0423-.0736-.07614-.1472-.11844-.2291-.04229-.0736-.11843-.1309-.16073-.2045-.0423-.0737-.05922-.1555-.09306-.2373-.03383-.0736-.06767-.1555-.10151-.2373-.03384-.0736-.0846-.1473-.11844-.2291-.02538-.0818-.00846-.1718-.04229-.2536-.02538-.0819-.0846-.1473-.10152-.2291-.02538-.0819-.05076-.1637-.06768-.2455s-.02538-.1636-.0423-.2536c-.01692-.0819-.05075-.1637-.05921-.2455-.01692-.0818 0-.1718-.01692-.2537-.00846-.0818-.00846-.1636-.01692-.2536-.00846-.0818-.06768-.1636-.07614-.2455 0-.0818 0-.1718 0-.2536s.02538-.1718.01692-.2537c0-.0818-.0423-.1636-.0423-.2536 0-.0818 0-.1637 0-.2537 0-.0818 0-.1636 0-.2536s-.03384-.1637-.03384-.2537c0-.0818.0423-.1636.05076-.2454 0-.0818-.0423-.1718-.03384-.2537 0-.0818.0423-.1636.05076-.2454.00846-.0819 0-.1719 0-.2537.00846-.0818.07614-.1554.09306-.2373.01692-.0818.03384-.1636.05075-.2454.01692-.0819.00846-.1637.03384-.2455.01692-.0818.05922-.1555.0846-.2373.01692-.0818.03384-.1636.05922-.2454.02538-.0819.01692-.1719.0423-.2455.02537-.0818.10151-.1473.12689-.2209.02538-.0818.0423-.1637.06768-.2373.02538-.0818.02538-.1718.05921-.2455.03384-.0736.0846-.1473.11844-.2209s.02538-.1718.05922-.24546c.03384-.07364.10151-.1391.13535-.21274s.0423-.16364.0846-.23728c.03384-.07364.11843-.13092.16073-.20456.03384-.07364.06768-.15546.10998-.2291.04229-.07364.09305-.13909.13535-.21273s.07614-.14728.11844-.22092c.04229-.07364.06767-.15546.10997-.2291s.0846-.14728.1269-.21274c.04229-.07364.09305-.1391.14381-.21274.0423-.06545.07614-.14728.12689-.22092.05076-.06545.14382-.10636.19458-.17182.05075-.06546.06767-.15546.12689-.22092.05076-.06546.10998-.13092.16073-.19637.05076-.06546.09306-.1391.15228-.20456.05075-.06545.12689-.11455.18611-.17182.05076-.06546.0846-.14728.14381-.21274.05922-.06546.10998-.13091.16074-.19637.05921-.06546.13535-.10637.19457-.16365.05922-.05727.09305-.13909.15227-.20455.05922-.05728.16073-.08182.21995-.1391.05922-.05727.0846-.15546.14382-.21273.05921-.05728.12689-.11455.19457-.17183.05922-.05727.15227-.08182.21995-.1391.06767-.05727.12689-.10637.19457-.16364.06768-.05728.10998-.13092.17765-.18819.06768-.04909.17765-.05728.24533-.10637s.10998-.13091.17765-.18001c.06768-.04909.1269-.11455.20304-.16364.06767-.04909.16073-.06546.23687-.10637.06767-.04909.12689-.12273.19457-.17182.06767-.0491.15227-.08183.22841-.12274.07613-.04091.15227-.08182.21995-.12273.07613-.04091.16073-.05728.23687-.09819s.11843-.13091.19457-.17182.18611-.01637.26225-.05728.12689-.12273.20303-.16364c.07614-.03273.17765-.02455.25379-.05728s.13535-.11455.21995-.14728c.07614-.03272.16073-.04909.24533-.08182.07614-.03273.16073-.05727.24533-.09s.15227-.07364.23687-.10637c.0846-.02455.17765-.01636.26225-.04091.08464-.02455.16924-.04091.25374-.05728.0846-.02454.1523-.07364.2369-.09.0846-.02455.1608-.07364.2453-.09819.0846-.01636.1777.02455.2623 0 .0846-.01636.1607-.08182.2453-.09818.0846-.01637.1692-.02455.2538-.04091.0846-.01637.1692 0 .2538-.02455.0846-.01636.1692 0 .2623-.01636.0845-.00819.1691-.05728.2537-.06546s.1692-.01637.2538-.02455c.0846 0 .1777.02455.2623.01637.0846 0 .1692-.03273.2538-.03273s.1692.00818.2622 0h.2538c.0846 0 .1777-.01637.2623-.00818.0846 0 .1776-.03273.2622-.02455.0846 0 .1777.03273.2623.03273s.1776.01636.2622.02454c.0846.00819.1777 0 .2623.00819.0845.00818.1776.01636.2622.03272.0846.01637.1692.05728.2538.07364.0846.01637.1692.0491.2538.06546.0846.01637.1776.00818.2622.03273.0846.01636.1692.05728.2454.08182.0846.02455.1776 0 .2622.02455s.1692.03273.2538.05727c.0846.02455.1692.05728.2453.08183.0846.02454.1692.05727.2454.08182.0846.03273.1438.10637.2284.13909.0846.03273.1607.05728.2453.09001s.1692.04091.2538.08182c.0761.03273.1607.06546.2369.10637.0761.04091.1353.12273.2114.16364.0762.04091.1523.08182.2285.12274.0761.04091.1607.06545.2368.10636.0762.0491.1523.08183.22.13092.0761.04909.1353.09819.2115.14728.0676.04909.1438.09818.2115.14728.0676.04909.1184.12273.1861.18001.0676.04909.1607.08182.2284.13091.0677.05728.1015.14728.1607.20455.0677.05728.1438.09819.2115.15547.0592.05727.1184.12273.1777.18.0592.05728.1015.1391.1607.20456s.1523.09818.203.16364c.0592.06546.11.13092.1692.19637.0508.06546.0846.14728.1354.21274.0507.06546.1015.1391.1522.20456.0508.06545.1354.11455.1777.18819.0508.07364.0761.14728.1269.22092.0423.07363.0761.15546.1184.2291s.1015.13909.1354.21273c.0423.07364.0846.14728.1269.22092.0338.07364.093.14728.1269.22092.0338.07364.0676.15546.1015.23728.0338.08183 0 .18001.0338.26183.0254.08183.0931.14728.1185.22911.0253.08182.0169.17182.0423.25364.0253.08182.0507.16365.0676.24547s.1015.15546.1185.23728c.0169.08182.0338.16365.0507.25365.0169.08182-.0338.17182-.0169.26183.0085.08182.0254.16364.0338.25365.0085.08182.0254.16364.0339.25364v.25364c0 .0818.0338.1718.0338.2537 0 .0818-.0254.1718-.0254.2536s.0085.1718 0 .2537c0 .0818-.0169.1636-.0338.2536-.0085.0818-.0338.1636-.0423.2455-.0085.0818-.0254.1636-.0338.2454-.017.0819-.0254.1637-.0423.2455-.017.0818-.0339.1636-.0508.2455-.0169.0818-.0254.1718-.0423.2454-.0254.0819-.0507.1637-.0761.2455s-.0677.1555-.0931.2373-.0338.1636-.0677.2454c-.0338.0819-.093.1473-.1269.221-.0338.0818-.0253.1718-.0676.2454-.0339.0737-.0931.1473-.1269.2209-.0339.0737-.0508.1637-.0931.2373-.0423.0737-.1269.1228-.1692.1964s-.0846.1473-.1269.2209c-.0507.0737-.0761.1555-.1269.2209-.0507.0737-.1184.131-.1692.1964-.0507.0655-.093.1391-.1522.2046-.0592.0654-.1269.1145-.1777.18-.0592.0654-.1015.1391-.1607.1963-.0592.0655-.1438.0982-.2115.1555-.0592.0573-.11.1309-.1777.18-.0676.0573-.1015.1473-.1692.1964-.0676.0491-.1438.0982-.2199.1391-.0677.0491-.1607.0736-.2369.1145-.0761.0409-.1353.1064-.2115.1473-.0761.0409-.1522.0818-.2284.1146-.0846.0327-.1607.0654-.2453.09-.0846.0245-.1692.0572-.2538.0736s-.1692.0327-.2622.0409c-.0846.0082-.1777-.0082-.2623 0-.0846 0-.1776.0082-.2622 0-.0931-.0082-.1777 0-.2623-.0245-.0846-.0246-.1607-.0818-.2284-.1146-.0761-.0409-.1438-.09-.203-.1473-.0592-.0572-.1015-.1309-.1354-.2045-.0338-.0737-.0423-.1555-.0677-.2373-.0169-.0736-.093-.1473-.1015-.2373 0-.0818.0085-.1636.0085-.2536 0-.0818.0169-.1637.0254-.2455 0-.0818 0-.1636.0169-.2455.0169-.0818.0592-.1554.0846-.2372.0169-.0819 0-.1637.0254-.2537.0169-.0818.0169-.1636.0423-.2455.0253-.0818.0846-.1472.1099-.2291.0254-.0818.0677-.1472.0931-.2291.0254-.0736.0592-.1554.0846-.2372.0338-.0737.0592-.1555.093-.2291.0339-.0737.0423-.1637.0762-.2373.0338-.0737.093-.1391.1269-.2209.0338-.0737.0253-.1719.0592-.2455.0338-.0736.093-.1391.1269-.2209.0338-.0737.0677-.1555.1015-.2291.0338-.0737.0592-.1555.0931-.2291.0338-.0737.1099-.1309.1522-.2046.0339-.0736.0423-.1636.0846-.2373.0423-.0736.0931-.1391.1354-.2127s.0846-.1391.1269-.2127c.0423-.0737.1015-.1391.1353-.2128.0423-.0736.0592-.1554.1015-.2291.0423-.0736.0931-.1391.1354-.2127.0423-.0737.0592-.1555.1015-.2291.0423-.0737.1015-.1391.1438-.20457.0423-.07364.11-.13091.1523-.20455s.0508-.16365.0931-.23729.1269-.11455.1776-.18819c.0508-.07364.11-.13091.1523-.20455s.0423-.17183.093-.23728c.0508-.07364.1439-.10637.1862-.18001.0507-.07364.0592-.16365.1015-.2291.0507-.07364.1015-.13092.1522-.20456.0508-.06545.0762-.12273.1269-.18819-.0846.01637-.1522 0-.2284.01637-.0846.01636-.1692.03273-.2453.04091-.0846.01636-.1523.09-.2369.10637-.0846.01636-.1692 0-.2538.01636-.0846.01637-.1692.03273-.2453.04091-.0846.00818-.1776-.01636-.2538 0-.0846.00818-.1607.04909-.2453.05728-.0846.00818-.1777-.02455-.2538-.01637-.0846.00818-.1607.07364-.2453.08182-.0846 0-.1777-.05727-.2538-.04909-.0846 0-.1692.04909-.2538.04909s-.1692-.02454-.2538-.02454-.1692.04909-.2538.04909-.1692-.00818-.2538-.01636c-.0846 0-.1776.02454-.2538.02454-.0846 0-.1692-.04091-.2538-.04909-.093 0-.1776.00818-.2537 0-.0931 0-.1777-.03273-.2538-.04091 0-.08182.0338-.16364.0338-.24547 0-.08182-.0254-.16364-.0338-.24546 0-.08182.0169-.16365.0084-.24547 0-.08182-.0677-.16364-.0761-.24546 0-.08182.0507-.17183.0423-.25365-.0085-.08182-.0254-.16364-.0423-.24547-.0085-.08182-.0254-.16364-.0423-.24546-.0085-.08182-.0338-.16364-.0508-.24547-.0169-.08182-.0169-.16364-.0338-.24546s-.0338-.16365-.0508-.24547c-.0169-.08182-.0761-.15546-.1015-.2291-.0254-.08182-.0169-.17182-.0423-.24546-.0254-.09001-.0677-.15547-.093-.2291-.0339-.09001-.0677-.16365-.0846-.22911-.0592-.14728.0253-.15546-.0846-.22092-.1185-.06545-.0931-.04091-.2623-.02454-.0761.00818-.1692.01636-.2622.03273-.0762.01636-.1692.04909-.2538.06545-.0846.01637-.1692.0491-.2538.08183-.0846.02454-.1607.06545-.2453.09s-.1608.05728-.2454.09c-.0761.03273-.1607.07364-.2368.11456-.0762.04091-.1523.08182-.2284.13091-.0762.04091-.1777.05728-.2454.10637-.0676.04909-.1269.11455-.1945.17182-.0677.05728-.1185.12274-.1777.18819.0169.08183.0508.15547.0761.23729.017.08182.017.17182.0423.24546.0254.08182.0593.15546.0846.23729.0254.08182.0508.15546.0846.23728.0339.08182.0339.17183.0677.24546.0338.07364.0761.14728.1184.22092s.0677.15547.11.22911c.0423.07363.1185.13091.1608.20455s.1015.1391.1438.20455c.0507.07364.0676.15547.1099.22911.0508.07363.1016.13909.1523.20455.0508.07364.11.13091.1607.19637.0508.07364.0931.14728.1354.21274.0592.08182.1269.14728.1607.21274 0 .07363-.0761.15546-.093.24546-.0085.07364-.0254.15546-.0423.24547-.0169.07364-.0254.16364-.0423.24546-.0169.07364-.0254.16365-.0508.24547-.0254.07364-.0169.16364-.0423.24544-.0254.0737-.093.1473-.1184.2291-.0254.0737-.0592.1555-.0846.2373-.0254.0736-.0254.1718-.0508.2455-.0338.0736-.0592.1554-.093.2373-.0339.0736-.1015.1391-.1354.2127-.0338.0736-.0254.1718-.0592.2455-.0338.0736-.1269.1227-.1692.2045-.0338.0737-.0507.1637-.093.2373-.0339.0736-.0846.1473-.1269.2209-.0423.0737-.0423.1637-.0846.2373s-.0931.1391-.1354.2127c-.0423.0737-.1184.1309-.1607.1964-.0423.0736-.0592.1637-.1015.2373s-.0677.1555-.1185.2209c-.0423.0736-.1099.1309-.1607.1964-.0508.0736-.0846.1473-.1354.2127-.0507.0655-.0846.1473-.1353.2128-.0508.0654-.1015.1309-.1523.1963-.0507.0655-.1353.1146-.1861.18-.0508.0655-.0677.1555-.1269.221-.0507.0654-.1269.1145-.1861.18-.0592.0654-.0761.1554-.1354.2209-.0592.0654-.1269.1145-.1861.1718s-.1522.09-.2115.1473c-.0592.0573-.0761.1636-.1353.2209s-.1692.0655-.2369.1227c-.0677.0573-.1269.1146-.1946.1637-.0676.0491-.1268.1145-.1945.1636s-.14384.09-.21998.1391c-.07613.0491-.15227.0737-.22841.1146-.07613.0409-.14381.0818-.22841.1227-.07613.0409-.16073.0655-.23687.0982-.07613.0327-.15227.0654-.23687.09-.08459.0245-.16073.0491-.24533.0736-.08459.0246-.15227.0982-.23687.1064-.08459.0164-.17765-.0327-.26225-.0245-.08459 0-.16919.049-.25378.049-.0846 0-.1692.0164-.25379.0082-.0846 0-.1692-.0245-.25379-.0327-.0846-.0082-.1692-.0409-.24533-.0573-.0846-.0163-.16074-.0491-.24533-.0736-.0846-.0246-.15228-.0655-.22841-.09-.07614-.0327-.14382-.0737-.21995-.1146-.07614-.0409-.17766-.0409-.23687-.09-.06768-.0491-.10152-.1391-.16074-.1963-.05921-.0573-.14381-.09-.19457-.1555s-.05922-.1555-.10151-.2291c-.0423-.0655-.1269-.1146-.1692-.1964-.03384-.0736 0-.1718-.02538-.2536-.02537-.0737-.09305-.1391-.11843-.2209-.01692-.0737-.02538-.1637-.0423-.2455s-.01692-.1637-.02538-.2455-.02538-.1554-.02538-.2454c0-.0819-.01692-.1637-.02538-.2455 0-.0818-.04229-.1636-.04229-.2455 0-.0818.06767-.1636.06767-.2454 0-.0819-.05075-.1637-.04229-.2455 0-.0818.01691-.1636.02537-.2455 0-.0818.05076-.1636.05922-.2454 0-.0819-.02538-.1719-.01692-.2537s.01692-.1636.03384-.2454c.00846-.0819.0423-.1637.05922-.2455s.01692-.1637.03384-.2455.05075-.1636.06767-.2373c.01692-.0818.05076-.1554.07614-.2372.02538-.0819.05076-.1555.07614-.2373s.06767-.1555.09305-.2291c.02538-.0818.03384-.1637.06768-.2373.03384-.0818.06768-.1555.10152-.2291.03384-.0737.02537-.1718.05921-.2455.03384-.0736.1269-.1227.1692-.19635.04229-.07364.03384-.17183.08459-.23728.0423-.07364.10152-.1391.14382-.20456.05075-.07364.13535-.11455.17765-.18001.05076-.06545.05922-.16364.10997-.2291.05076-.06545.14382-.10637.19458-.16364.05921-.06546.08459-.15546.14381-.21274.05922-.05727.11844-.12273.17765-.18001.06768-.05727.16074-.08182.21995-.13091.06768-.04909.11844-.12273.18612-.17183.07613-.04909.15227-.09.21995-.13091.07613-.04091.16073-.06546.23687-.09819.07613-.04091.14381-.09818.21995-.13091.08459-.03273.17765-.01637.25379-.04091.08459-.02455.16073-.05728.24533-.07364.08459-.00818.17765 0 .25379 0 .09305 0 .18611-.01637.26224.00818.0846.03273.15228.09819.21149.15546.05922.05728.1269.12273.16074.20456.03384.07364.0423.16364.05921.24546.01692.08182-.02537.16364-.02537.25365 0 .08182.03383.16364.03383.25365 0 .08182-.00845.16364-.02537.25364-.00846.08183-.06768.15547-.0846.23729s-.02538.16364-.0423.24546c-.02538.08182 0 .17183-.03384.25365-.02538.08182-.10151.13909-.13535.22089-.03384.0819-.05922.1555-.09306.2373-.03384.0737-.03384.1718-.06767.2455-.03384.0736-.05922.1554-.10152.2373-.0423.0736-.1269.1227-.16919.1963-.0423.0737-.05922.1637-.10152.2291-.05076.0737-.11843.1309-.16919.1964s-.09306.1473-.14382.2046c-.05921.0654-.13535.1391-.19457.2045.07614.1064.11844-.0327.27917-.0573.07614-.0163.15227-.0572.25379-.0818.07614-.0163.16919-.0327.25379-.0654.0846-.0246.16919-.0491.25379-.0819.08459-.0245.17765-.0245.26225-.0654.07613-.0327.16073-.0655.24533-.1064.07616-.0327.15226-.0818.23686-.1227.0761-.0409.1523-.09.2284-.1391.0762-.0409.1354-.1064.2115-.1555.0677-.0491.1438-.0982.2115-.1554.0677-.0491.1692-.0655.2453-.1228.0677-.0572.11-.1391.1777-.1963.0423-.0655.093-.131.1269-.2128.0338-.0736.1015-.1391.1269-.2291.0253-.0736.0338-.16362.0592-.24545.0169-.08182.0423-.16364.0592-.24546s-.0254-.17183-.0169-.25365c.0084-.08182.0423-.16364.0507-.24547 0-.08182-.0084-.17182-.0084-.25364s0-.16365-.0085-.25365c0-.08182-.0169-.16364-.0254-.25365-.0084-.08182-.0084-.17182-.0253-.25365-.017-.08182-.0508-.16364-.0762-.23728-.0253-.08182-.0592-.15546-.093-.23728-.0339-.08182-.0677-.15546-.11-.2291s-.0423-.17183-.0931-.24547c-.0507-.06546-.1438-.10637-.203-.16364-.0592-.05728-.1269-.11455-.1946-.16365-.0676-.04909-.1353-.09-.2199-.13091-.0761-.04091-.1438-.09001-.2284-.11455-.0762-.02455-.1523-.09001-.2369-.11455-.0846-.01637-.17764.02454-.2707.01636-.0846 0-.16919 0-.26225 0-.0846 0-.16919-.00818-.25379 0-.08459 0-.16919.03273-.25379.0491-.08459.00818-.16919 0-.26225.01636-.08459.01636-.17765 0-.26224.01636-.0846.01637-.15228.09001-.23688.11455-.08459.02455-.16919.04092-.24532.07364-.0846.02455-.1692.04091-.24533.07364-.07614.03273-.15228.07364-.22841.11455-.07614.03273-.1692.0491-.24533.09001-.07614.04091-.15228.07364-.22841.11455-.07614.04091-.15228.07364-.22841.12273-.07614.04091-.10998.1391-.18612.18001-.06767.04909-.17765.04091-.25379.09-.06767.0491-.10997.13092-.17765.18819-.06768.0491-.12689.11455-.19457.17183-.06768.05727-.12689.11455-.18611.17183-.05922.05727-.13536.09818-.20303.15546-.05922.05727-.1269.11455-.18612.17182-.05921.05728-.14381.09819-.20303.15546-.05921.06546-.08459.15547-.13535.22092-.05076.06546-.09306.1391-.14381.20456-.05076.06546-.1269.11455-.1692.18819-.05076.06546-.07613.15546-.12689.22092-.0423.06545-.09306.13909-.13536.21273-.04229.07364-.09305.1391-.13535.21274s-.07614.14728-.11844.22094c-.04229.0736-.10997.1309-.14381.2127-.03384.0737-.10152.1391-.13535.2209-.03384.0737-.02538.1719-.05922.2455s-.0423.1636-.07614.2373c-.02538.0818-.06768.1554-.09305.2291-.02538.0818-.02538.1636-.0423.2454-.02538.0819-.11844.1473-.13536.2292-.01692.0818 0 .1718-.01692.2536s-.06767.1555-.08459.2373.01692.1718 0 .2536c-.00846.0819 0 .1637 0 .2537 0 .0818-.0423.1636-.0423.2454v.2537.2536c0 .09-.00846.1719 0 .2537v.2536c0 .09.02538.1719.03384.2537 0 .09-.01692.1718-.00846.2618.00846.0818.02538.1718.03384.2537.01692.0818.00846.1718.02538.2536s.10151.1555.11843.2373 0 .1718.02538.2536c.02538.0819.0846.1555.10998.2291.02537.0819.02537.1719.05921.2537s.0846.1554.11844.2291c.03384.0818.07613.1554.11843.2291.0423.0736.09306.1473.14382.2127.05075.0737.08459.1473.13535.2209.05076.0655.09306.1473.14381.2128.05922.0654.1269.1145.19458.18.05921.0573.15227.09.21995.1391.06767.0573.13535.0982.21149.1473.07613.0491.13535.1063.21149.1472.07614.041.13535.1228.21149.1555s.17765.0327.26225.0655c.0846.0327.15227.0981.23687.1227.0846.0245.16919.0491.25379.0655.08459.0163.17765.0245.26225.0409.08459.0163.17765-.0164.2707-.0082.0846.0082.1692.0409.26225.0409.0846 0 .17766-.0246.26225-.0246.0846 0 .17766.0655.26225.0655.0846 0 .17765-.0164.26225-.0327.0846-.0082.16919-.0409.25379-.0573s.17765-.0164.26225-.0409c.0846-.0246.16073-.0818.24533-.1064.0846-.0245.18611 0 .26225-.0245.08459-.0246.15227-.09.23687-.1228.08459-.0327.16919-.0409.25379-.0736.07613-.0327.13535-.1064.21995-.1473.07613-.0409.17765-.0327.25379-.0736s.13534-.1146.21144-.1555c.0762-.0409.1354-.1063.2031-.1554s.1776-.0491.2538-.0982c.0676-.0491.1438-.0982.2115-.1555.0676-.0491.1438-.0982.2114-.1555.0677-.0572.11-.1309.1777-.1881.0677-.0573.1269-.1146.1861-.1719.0592-.0572.11-.1309.1692-.1963.0592-.0573.1607-.0819.22-.1473.0592-.0573.1269-.1146.1861-.18.0592-.0655.0761-.1555.1353-.2209.0592-.0655.1354-.1064.1946-.1719.0592-.0654.1184-.1227.1776-.1882.0508-.0654.1016-.1391.1523-.2045.0508-.0655.0846-.1555.1354-.2209.0507-.0655.1353-.1146.1861-.18.0507-.0655.0507-.1719.1015-.2373.0508-.0655.1184-.1228.1692-.1964s.0846-.1473.1269-.2209c.0507-.0737.1438-.1146.1861-.1882s.0592-.1637.11-.2373c.0423-.0736.093-.1391.1438-.2127.0423-.0737.0761-.1555.1184-.2291.0423-.0737.1015-.1391.1438-.2128.0423-.0736.0677-.1554.1016-.2372.0423-.0737.0761-.1555.1184-.2291.0423-.0737.1269-.1228.1692-.1964.0423-.0737.0592-.1637.1015-.2373s.0761-.1555.11-.2291c.0338-.0736.093-.1473.1269-.2209.0338-.0737.0423-.1719.0761-.2455s.1184-.1391.1523-.2127c.0338-.0818.0507-.1637.0846-.2455.0338-.0818.0507-.1636.0846-.2373.0338-.0818.0423-.1636.0761-.2454.0338-.0819.0761-.1555.11-.2291.0338-.0819.0846-.1555.11-.22914.0338-.08182.0676-.14728.1015-.22092.0846.00818.1607-.01637.2453-.01637s.1607.06546.2453.07364c.0846 0 .1692-.04909.2538-.04091.0846 0 .1692.05728.2454.05728.0846 0 .1691-.02455.2453-.02455.0846 0 .1692-.00818.2453-.01636.0846 0 .1692.01636.2538 0 .0846 0 .1607-.03273.2369-.04091-.0423.07364-.0508.14728-.0931.22091s-.1184.12273-.1607.19633c-.0423.0737-.1015.131-.1438.2128-.0423.0736-.0339.1718-.0762.2454-.0423.0737-.1269.1228-.1692.1964-.0423.0737-.0592.1555-.1015.2291-.0423.0737-.0423.1637-.0846.2373-.0338.0736-.1015.1391-.1353.2127-.0339.0737-.0592.1555-.1015.2291-.0339.0737-.1185.131-.1523.2046-.0339.0736-.0508.1555-.0846.2373-.0339.0736-.0508.1554-.0846.2373-.0338.0736-.0423.1636-.0761.2372-.0339.0737-.1185.131-.1523.2046-.0339.0736-.0169.1718-.0508.2455-.0338.0736-.11.1391-.1438.2127-.0338.0818-.0169.1718-.0507.2455-.0339.0818-.0423.1636-.0677.2373-.0254.0818-.0677.1554-.0931.2291-.0254.0818-.0846.1472-.1015.2291-.0254.0818-.0423.1636-.0677.2454s-.0507.1637-.0677.2373c-.0169.0818-.0592.1555-.0761.2373s-.0254.1636-.0338.2455c-.0169.0818-.0254.1636-.0339.2454-.0084.0818.0254.1718.017.2537 0 .0818-.0423.1636-.0423.2454 0 .0819.0338.1637.0338.2455s0 .1636.0169.2455c.0085.0818.0339.1636.0508.2454s.0084.1719.0338.2455c.0254.0818.0592.1555.1015.2291.0339.0736.0592.1636.1015.2291.0508.0655.1185.1227.1777.18s.1184.1227.1861.1718.1607.0655.2369.0982c.0761.0327.1438.09.2284.1146.0761.0245.1692.0327.2538.0572.0846.0164.1692 0 .2622.0082.0846.0082.1608.0328.2538.0409.0846 0 .1692.0164.2538.0164s.1692-.0164.2538-.0245c.0846 0 .1692.0163.2622 0 .0846-.0082.1692-.041.2538-.0573.0846-.0164.1608-.0491.2454-.0737.0846-.0245.1776 0 .2622-.0163.0846-.0246.1523-.0818.2369-.1064.0761-.0327.1692-.0327.2538-.0655.0761-.0327.1607-.0654.2368-.1063.0762-.0328.1523-.0737.2284-.1146.0762-.0409.1439-.0982.22-.1391s.1523-.0818.2284-.1227c.0677-.0491.1269-.1146.1946-.1636.0677-.0491.1607-.0655.2284-.1228.0677-.0491.1269-.1145.1946-.1636.0676-.0491.1353-.1064.1945-.1637.0677-.0572.1354-.0982.2031-.1554.0592-.0573.1015-.1309.1692-.1964.0592-.0573.1099-.1309.1692-.1882.0592-.0573.1522-.0982.203-.1555.0592-.0654.1015-.139.1523-.2045.0592-.0655.0846-.1473.1438-.2127.0507-.0655.1353-.1146.1861-.1801.0507-.0654.093-.139.1438-.2045s.0846-.1473.1354-.2127c.0507-.0655.1268-.1228.1691-.1882.0423-.0737.0762-.1473.1185-.221.0423-.0736.0592-.1636.1015-.2372.0423-.0737.0761-.1473.1184-.221.0423-.0736.0762-.1472.11-.2291.0338-.0736.1015-.1391.1354-.2127.0338-.0736.0761-.1473.1099-.2291.0339-.0736.0423-.1636.0677-.2455.0338-.0736.0508-.1554.0846-.2372.0254-.0819.0846-.1473.1184-.221.0254-.0818.0508-.1636.0677-.2372.0254-.0819.0592-.1555.0846-.2373s0-.1719.0254-.2537c.0169-.0818.0338-.1636.0592-.2454.0169-.0819.1015-.1473.1184-.2291.017-.0819-.0338-.1719-.0253-.2537.0169-.0818.0761-.1554.0846-.2373.0084-.0818.0253-.1636.0423-.2454.0084-.0819.0338-.1637.0423-.2455 0-.0818.0169-.1636.0169-.2536 0-.0819-.0085-.1637 0-.2537 0-.08182-.0423-.16364-.0339-.25364 0-.08183.0085-.16365.0085-.24547s.0423-.17183.0423-.25365-.0169-.16364-.0254-.24546c0-.08182 0-.17183-.0084-.25365-.0085-.08182-.0677-.15546-.0846-.24547-.0085-.08182-.0085-.16364-.0254-.24546s-.0254-.16364-.0508-.24547c-.0169-.08182-.0676-.15546-.0846-.23728-.0253-.08182-.0592-.15546-.0846-.23728-.0253-.08183-.0423-.16365-.0676-.23729-.0254-.08182-.0339-.16364-.0677-.24546-.0339-.08182-.0762-.14728-.11-.2291-.0338-.07364-.0423-.16365-.0846-.23729-.0338-.07364-.1015-.13909-.1353-.21273-.0339-.07364-.0254-.17183-.0677-.24547s-.1015-.1391-.1438-.21274c-.0423-.07363-.0762-.14727-.1185-.22091s-.1099-.13092-.1522-.20456-.11-.13091-.1523-.19637c-.0508-.06546-.1185-.12273-.1692-.18819-.0508-.06546-.0761-.15546-.1269-.22092s-.1269-.11455-.1777-.18001c-.0592-.06546-.1099-.13091-.1607-.19637-.0592-.06546-.0846-.15546-.1438-.21274-.0592-.05727-.1269-.11455-.1861-.17182-.0592-.05728-.1354-.10637-.203-.16365-.0593-.05727-.1439-.09818-.2115-.14728-.0677-.05727-.1269-.11455-.1946-.16364-.0677-.05727-.1184-.12273-.1861-.18001-.0677-.04909-.1692-.06546-.2369-.11455s-.1015-.14728-.1776-.18819c-.0677-.04909-.1439-.09-.22-.13091-.0677-.0491-.1438-.09001-.2199-.1391-.0762-.04091-.1354-.10637-.2115-.14728-.0762-.04091-.1777-.04091-.2454-.08182-.0761-.04091-.1269-.12273-.203-.15546-.0761-.04091-.1777-.02455-.2622-.06546-.0762-.03273-.1523-.08182-.2285-.11455-.0761-.03273-.1607-.06546-.2368-.09819-.0762-.03273-.1523-.08182-.2284-.11455-.0762-.03273-.1523-.09-.2284-.12273-.0846-.03273-.1608-.04909-.2454-.08182-.0846-.02455-.1776-.01637-.2538-.0491-.0846-.02454-.1607-.06545-.2453-.09s-.1776-.00818-.2622-.03273c-.0846-.02454-.1692-.04091-.2538-.05727-.0846-.01637-.1523-.08182-.2369-.10637-.0846-.01637-.1777.01636-.2623 0-.0845-.01637-.1691-.03273-.2537-.04909-.0846-.01637-.1608-.09001-.2454-.09819-.0846-.01637-.1692-.02455-.2538-.04091-.0846-.00818-.1776.03273-.2622.02454-.0846-.00818-.1692-.05727-.2538-.06545-.0846 0-.1777.01636-.2622 0-.0846 0-.1692.00818-.2623 0-.0846 0-.1692-.07364-.2538-.07364s-.1776.04909-.2622.04091c-.0846 0-.1692-.04091-.2623-.04091" fill="#af5f00"/></svg>