<svg height="25" viewBox="0 0 25 25" width="25" xmlns="http://www.w3.org/2000/svg"><path d="m14.21 2.11455c-.0846 0-.1777-.01636-.2623-.00818-.0846 0-.1692.06546-.2622.07364-.0846 0-.1777-.03273-.2623-.02455-.0846 0-.1776 0-.2622.00818-.0846 0-.1777-.00818-.2623 0-.0845 0-.1691.0491-.2537.05728s-.1777-.00818-.2623 0-.1607.08182-.2453.09c-.0846.00819-.1777 0-.2623.01637-.0846.01636-.1776 0-.2622.01636-.0846.01637-.1692.04909-.2538.06546-.0846.01636-.1692.03273-.2538.05727-.0846.01637-.1776 0-.2622.01637-.0846.01636-.1692.03273-.2538.05727-.0846.02455-.1523.10637-.2369.13092s-.1777 0-.2623.02455c-.0845.02454-.16915.04091-.25374.06545-.0846.02455-.16074.05728-.24533.08182-.0846.02455-.16919.04092-.24533.07364-.0846.03273-.14382.10637-.22841.13092-.0846.03273-.17765.02455-.25379.05727-.0846.03273-.16073.06546-.24533.09819-.07614.03273-.16073.06546-.23687.10637-.07614.03273-.13535.11455-.21149.14728s-.17765.03273-.25379.07364-.14381.09818-.21995.13091c-.07614.04091-.14381.09819-.21995.1391s-.14382.09-.21995.13091c-.07614.04092-.17766.04092-.24533.09001-.07614.04091-.1269.12273-.19457.17182-.07614.0491-.14382.09001-.21995.1391-.07614.04909-.15228.08182-.22841.12273-.06768.0491-.16074.07364-.22842.12274-.06767.04909-.12689.11455-.19457.16364-.06767.04909-.12689.11455-.19457.17183-.06768.04909-.12689.11455-.19457.17182-.06768.0491-.16073.08182-.21995.13092-.06768.05727-.15227.09-.21149.14728-.06768.05727-.1269.11455-.18611.17182-.05922.05728-.0846.15546-.15228.21274-.05921.05727-.16919.07364-.22841.1391-.05922.05727-.10151.13909-.16073.20455-.05922.05728-.10998.13092-.16919.19637-.05922.06546-.1269.11455-.18612.17183-.05921.06546-.15227.09819-.20303.16364-.05921.06546-.05921.17183-.11843.2291-.05922.06546-.10152.13092-.16074.19638-.05075.06545-.13535.11455-.18611.18-.05076.06546-.11843.12274-.16919.18819-.05076.06546-.10998.13092-.16073.19638-.05076.06545-.10998.13091-.16074.19637-.05075.06546-.05075.17183-.09305.23728-.05076.07364-.10152.1391-.15228.20456-.05075.07364-.12689.12273-.17765.18819-.0423.07364-.09305.13909-.13535.21273s-.03384.18001-.07614.24547-.07614.14728-.11843.22092c-.0423.07364-.13536.12273-.1692.19637-.0423.07364-.06767.15546-.10997.2291-.03384.07364-.06768.15546-.10152.2291s-.06768.15546-.10151.22913c-.03384.0736-.0846.1473-.10998.2291-.03384.0736-.02538.1718-.05922.2454-.03384.0819-.10151.1391-.13535.221-.03384.0818-.0846.1472-.10998.2291-.02538.0818-.00846.1718-.03383.2536-.02538.0818-.06768.1555-.09306.2373s-.0846.1473-.109976.2291c-.025379.0818 0 .18-.01692.2536-.025378.0819-.084596.1555-.101515.2373s-.033839.1637-.050758.2455-.025379.1636-.042298.2455c-.016919.0818-.01692.1636-.033839.2454s-.042298.1637-.059217.2455c-.01692.0818-.042298.1636-.050758.2455-.00846.0818 0 .1718-.016919.2536-.00846.0818-.050758.1636-.059218.2455-.00846.0818.033839.1718.025379.2536 0 .0818-.050758.1637-.059217.2455 0 .0818.025378.1718.025378.2536s-.008459.1637-.016919.2537v.2536c0 .09-.059217.2128-.059217.2946s0 .1718.008459.2536c0 .0818.00846.1719.01692.2537 0 .0818.067677.1636.076136.2454 0 .0819-.042298.1719-.033838.2619.008459.0818.084596.1636.093056.2454.00846.0819.025379.1637.042298.2455s.025379.1636.042298.2536c.01692.0819.025379.1637.050758.2455.016919.0818.059218.1637.076137.2373.025379.0818.025379.1718.050758.2455.025379.0818.033838.1636.067677.2454.025379.0818.093055.1473.126895.2291s.06768.1555.10152.2291c.03383.0819.06767.1555.10151.2291.03384.0737.05922.1637.09306.2373.0423.0737.10151.1391.14381.2127.0423.0737.0846.1473.13535.221.0423.0736.06768.1554.10998.2291.05076.0736.10998.1309.16073.1963.05076.0655.06768.1637.11844.2291.05076.0655.11843.1228.17765.1882.05922.0655.13536.1064.19457.1719.05922.0654.1269.1145.19457.1718.05922.0573.10152.1391.16074.1964.06767.0572.13535.1063.20303.1636s.13535.1064.21149.1555c.06768.0491.12689.1145.20303.1636s.13536.1064.21149.1555c.07614.0409.16074.0736.23687.1145.07614.0409.17765.0409.25379.0737.07614.0409.13536.1063.21995.1391.07614.0327.15228.0736.23687.1063.07614.0328.17765.0164.26225.0491.0846.0246.14381.1146.22841.1391.0846.0246.17765 0 .27071.0246.0846.0245.16919.0327.25379.0491.0846.0163.16073.0736.24533.09.08459.0163.16919.0163.26225.0327.08459.0163.16919.0164.26225.0245.08459.0082.16919.0491.25378.0573.0846 0 .1692.0164.26225.0246.0846 0 .17766-.041.26225-.0328.0846 0 .17766.0573.26225.0573.0846 0 .17765-.0164.26225-.0164h.26225c.0846 0 .17765-.0245.26225-.0327.08459 0 .17765-.0164.26225-.0245.08459 0 .16919-.0246.26225-.0328.08459-.0081.17765-.0082.26224-.0163.0846-.0082.17766.0163.26225 0 .0846-.0164.16074-.0982.24533-.1146.0846-.0163.18611.0246.27071 0 .0846-.0163.16073-.0736.24533-.0982.08457-.0163.16917-.0245.25377-.0491.0846-.0245.1692-.0409.2538-.0572.0846-.0246.1692-.0491.2453-.0737.0846-.0245.1692-.0409.2538-.0736s.1523-.09.2284-.1227c.0846-.0328.1862-.0164.2623-.0491.0846-.0328.1607-.0655.2369-.1064.0761-.0327.1269-.1227.2114-.1637.0762-.0409.1692-.0572.2369-.0981.0762-.041.1354-.1064.2115-.1555s.1523-.0818.2284-.1227c.0677-.0491.1608-.0655.2369-.1228.0677-.0491.1438-.1063.203-.1554.0677-.0573.0931-.1473.1523-.2046.0338-.0736.0846-.1391.1184-.2045.0339-.0737.0762-.1473.11-.221.0338-.0736.0677-.1472.0931-.2291.0253-.0818 0-.1718.0253-.2454.0254-.0818.0593-.1555.0762-.2291.0169-.0818.0423-.1637.0592-.2373.0169-.0818.0508-.1637.0592-.2373.0085-.09.0169-.1718.0169-.2455 0-.09-.0169-.1718-.0084-.2454 0-.1555.1269-.2373 0-.27-.1269-.0328-.0677.0982-.1692.2209-.0423.0491-.0931.1227-.1523.1964-.0508.0572-.1184.1145-.1776.18-.0593.0572-.1185.1145-.1777.18-.0592.0572-.11.1227-.1777.18-.0592.0573-.1438.09-.2114.1473-.0593.0491-.1185.1145-.1862.1718-.0592.0491-.1184.1227-.1861.1718-.0676.0491-.1692.0491-.2453.0982-.0677.0491-.1269.0982-.203.1473-.0677.0491-.1269.1145-.1946.1636-.0677.0409-.1438.09-.22.1309-.0676.0409-.1607.0655-.2368.1064-.0762.0409-.1269.1227-.2031.1555-.0761.0409-.1691.0491-.2453.0818-.0761.0327-.1607.0573-.2369.09-.0761.0327-.1522.0736-.2284.1064-.0761.0327-.1438.0981-.2199.1227-.0761.0245-.17767.0082-.2538.0409-.07614.0246-.15228.09-.22841.1146-.0846.0245-.17765 0-.26225.0245-.0846.0164-.16073.0491-.24533.0655-.0846.0163-.16073.0491-.24533.0654-.0846.0164-.16919 0-.25379 0-.0846.0082-.16919 0-.25379.0082-.0846 0-.16919.0082-.25379.0164-.08459 0-.16919.0245-.25379.0245-.08459 0-.17765.0246-.26225.0246-.08459 0-.17765-.0164-.26224-.0164-.0846 0-.1692-.0327-.26225-.0409-.0846 0-.1692-.0164-.26225-.0246-.09306-.0081-.1692-.0245-.25379-.0409-.0846-.0163-.17765.0082-.26225 0-.0846-.0163-.16073-.0736-.24533-.0982-.0846-.0163-.16919-.0409-.25379-.0572-.0846-.0246-.17765-.0246-.25379-.0491-.08459-.0246-.16919-.0573-.24533-.0819-.08459-.0327-.16073-.0654-.24533-.0981-.07613-.0328-.16919-.0491-.24533-.09-.07613-.041-.16073-.0737-.23687-.1146-.07613-.0409-.11843-.1309-.19457-.18s-.17765-.0409-.25379-.09c-.06768-.0491-.10151-.1473-.16919-.1964s-.17765-.0573-.24533-.1145c-.05922-.0573-.1269-.1146-.18611-.18-.05922-.0573-.10152-.1391-.16074-.2046-.05921-.0654-.12689-.1145-.18611-.18-.05076-.0655-.10997-.1309-.16073-.1964-.05076-.0654-.05922-.1636-.10998-.2373-.04229-.0736-.07613-.1472-.11843-.2291-.0423-.0736-.11844-.1309-.16073-.2045-.0423-.0737-.05922-.1555-.09306-.2373-.03384-.0736-.06768-.1555-.10152-.2373-.03383-.0736-.08459-.1473-.11843-.2291-.02538-.0818-.00846-.1718-.0423-.2536-.02538-.0818-.0846-.1473-.10151-.2291-.02538-.0819-.05076-.1637-.06768-.2455s-.02538-.1636-.0423-.2536c-.01692-.0819-.05076-.1637-.05922-.2455-.01692-.0818 0-.1718-.01692-.2537-.00846-.0818-.00846-.1636-.01692-.2536-.00846-.0818-.06767-.1636-.07613-.2455 0-.0818 0-.1718 0-.2536s.02538-.1718.01692-.2537c0-.0818-.0423-.1636-.0423-.2536 0-.0818 0-.1637 0-.2537 0-.0818 0-.1636 0-.2536s-.03384-.1636-.03384-.2537c0-.0818.0423-.1636.05076-.2454 0-.0818-.0423-.1718-.03384-.2537 0-.0818.0423-.1636.05076-.2454.00846-.0819 0-.1719 0-.2537.00846-.0818.07613-.1554.09305-.2373.01692-.0818.03384-.1636.05076-.2454s.00846-.1637.03384-.2455c.01692-.0818.05922-.1555.0846-.2373.01691-.0818.03383-.1636.05921-.2454.02538-.0819.01692-.1719.0423-.2455.02538-.0818.10152-.1473.1269-.2209.02537-.0818.04229-.1637.06767-.2373.02538-.0818.02538-.1718.05922-.2455.03384-.0736.0846-.1473.11844-.2209.03383-.0736.02537-.1718.05921-.2455.03384-.0736.10152-.1391.13536-.2127s.0423-.1636.08459-.2373c.03384-.0736.11844-.1309.16074-.2045.03384-.07367.06767-.15549.10997-.22913s.09306-.1391.13536-.21274c.04229-.07364.07613-.14728.11843-.22092s.06768-.15546.10998-.2291c.04229-.07364.08459-.14728.12689-.21274.0423-.07364.09306-.13909.14382-.21273.04229-.06546.07613-.14728.12689-.22092.05076-.06546.14381-.10637.19457-.17183s.06768-.15546.1269-.22092c.05075-.06546.10997-.13091.16073-.19637s.09306-.1391.15227-.20455c.05076-.06546.1269-.11456.18611-.17183.05076-.06546.0846-.14728.14382-.21274.05922-.06545.10997-.13091.16073-.19637.05922-.06546.13536-.10637.19457-.16364.05922-.05728.09306-.1391.15228-.20456.05921-.05727.16073-.08182.21995-.1391.05922-.05727.08459-.15546.14381-.21273.05922-.05728.1269-.11455.19457-.17183.05922-.05727.15228-.08182.21995-.13909.06768-.05728.1269-.10637.19458-.16365.06767-.05727.10997-.13091.17765-.18819.06768-.04909.17765-.05727.24533-.10637.06767-.04909.10997-.13091.17765-.18.06768-.0491.12689-.11456.20303-.16365.06768-.04909.16073-.06546.23687-.10637.06768-.04909.1269-.12273.19457-.17182.06768-.0491.15228-.08182.22841-.12274.07614-.04091.15228-.08182.21995-.12273.07614-.04091.16074-.05727.23687-.09818.07614-.04092.11844-.13092.19458-.17183.07613-.04091.18611-.01636.26224-.05728.07614-.04091.1269-.12273.20304-.16364.07613-.03273.17765-.02455.25379-.05727.07613-.03273.13535-.11455.21995-.14728.07613-.03273.16073-.0491.24533-.08183.07613-.03272.16073-.05727.24533-.09.08459-.03273.15226-.07364.23686-.10637.0846-.02454.1777-.01636.2623-.04091.0845-.02455.1691-.04091.2537-.05727.0846-.02455.1523-.07364.2369-.09001.0846-.02454.1607-.07364.2453-.09818.0846-.01637.1777.02454.2623 0 .0846-.01637.1607-.08183.2453-.09819s.1692-.02455.2538-.04091c.0846-.01637.1692 0 .2538-.02455.0846-.01636.1692 0 .2622-.01636.0846-.00818.1692-.05728.2538-.06546s.1692-.01636.2538-.02455c.0846 0 .1777.02455.2623.01637.0846 0 .1692-.03273.2538-.03273s.1692.00818.2622 0h.2538c.0846 0 .1777-.01636.2623-.00818.0845 0 .1776-.03273.2622-.02455.0846 0 .1777.03273.2622.03273.0846 0 .1777.01636.2623.02455.0846.00818.1777 0 .2622.00818.0846.00818.1777.01636.2623.03273.0846.01636.1692.05727.2538.07364.0846.01636.1692.04909.2538.06545.0846.01637.1776.00819.2622.03273.0846.01637.1692.05728.2454.08182.0845.02455.1776 0 .2622.02455s.1692.03273.2538.05728c.0846.02454.1692.05727.2453.08182.0846.02454.1692.05727.2453.08182.0846.03273.1439.10637.2285.1391s.1607.05727.2453.09.1692.04091.2538.08182c.0761.03273.1607.06546.2368.10637.0762.04091.1354.12273.2115.16364.0762.04092.1523.08183.2285.12274.0761.04091.1607.06546.2368.10637.0762.04909.1523.08182.22.13091.0761.04909.1353.09819.2115.14728.0676.04909.1438.09819.2115.14728.0676.04909.1184.12273.1861.18001.0676.04909.1607.08182.2284.13091.0677.05728.1015.14728.1607.20456.0677.05727.1438.09818.2115.15546.0592.05727.1184.12273.1777.18001.0592.05727.1015.13909.1607.20455s.1523.09819.203.16364c.0592.06546.11.13092.1692.19638.0508.06545.0846.14728.1354.21273.0507.06546.1015.1391.1522.20456.0508.06546.1354.11455.1777.18819.0507.07364.0761.14728.1269.22092.0423.07364.0761.15546.1184.2291s.1015.1391.1354.21274c.0423.07363.0846.14727.1269.22091.0338.07364.093.14728.1269.22092.0338.07364.0676.15546.1015.23729.0338.08182 0 .18.0338.26183.0254.08182.0931.14728.1185.2291.0253.08182.0169.17182.0422.25364.0254.08183.0508.16365.0677.24547s.1015.15546.1185.23728c.0169.08182.0338.16365.0507.25365.0169.08182-.0338.17186-.0169.26186.0085.0818.0254.1636.0338.2536.0085.0818.0254.1637.0339.2537v.2536c0 .0818.0338.1718.0338.2537 0 .0818-.0254.1718-.0254.2536s.0085.1718 0 .2537c0 .0818-.0169.1636-.0338.2536-.0085.0818-.0338.1636-.0423.2455-.0085.0818-.0254.1636-.0338.2454-.017.0819-.0254.1637-.0423.2455-.017.0818-.0339.1636-.0508.2455-.0169.0818-.0254.1718-.0423.2454-.0254.0819-.0508.1637-.0761.2455-.0254.0818-.0677.1555-.0931.2373s-.0338.1636-.0677.2454c-.0338.0819-.093.1473-.1269.221-.0338.0818-.0253.1718-.0676.2454-.0339.0737-.0931.1473-.1269.2209-.0339.0737-.0508.1637-.0931.2373-.0423.0737-.1269.1228-.1692.1964s-.0846.1473-.1269.2209c-.0507.0737-.0761.1555-.1269.2209-.0507.0737-.1184.131-.1692.1964-.0507.0655-.093.1391-.1522.2046-.0593.0654-.1269.1145-.1777.18-.0592.0654-.1015.1391-.1607.1963-.0592.0655-.1438.0982-.2115.1555-.0592.0573-.11.1309-.1777.18-.0676.0573-.1015.1473-.1692.1964-.0676.0491-.1438.0982-.2199.1391-.0677.0491-.1607.0736-.2369.1145-.0761.041-.1353.1064-.2115.1473-.0761.0409-.1522.0818-.2284.1146-.0846.0327-.1607.0654-.2453.09-.0846.0245-.1692.0572-.2538.0736s-.1692.0327-.2622.0409c-.0846.0082-.1777-.0082-.2623 0-.0846 0-.1776.0082-.2622 0-.0931-.0082-.1777 0-.2623-.0245-.0846-.0246-.1607-.0818-.2284-.1146-.0761-.0409-.1438-.09-.203-.1473-.0593-.0572-.1015-.1309-.1354-.2045-.0338-.0736-.0423-.1555-.0677-.2373-.0169-.0736-.093-.1473-.1015-.2373 0-.0818.0085-.1636.0085-.2536 0-.0818.0169-.1637.0254-.2455 0-.0818 0-.1636.0169-.2455.0169-.0818.0592-.1554.0846-.2372.0169-.0819 0-.1637.0254-.2537.0169-.0818.0169-.1636.0423-.2454.0253-.0819.0845-.1473.1099-.2292.0254-.0818.0677-.1472.0931-.2291.0254-.0736.0592-.1554.0846-.2372.0338-.0737.0592-.1555.093-.2291.0339-.0737.0423-.1637.0762-.2373.0338-.0737.093-.1391.1269-.2209.0338-.0737.0253-.1719.0592-.2455.0338-.0736.093-.1391.1269-.2209.0338-.0737.0677-.1555.1015-.2291.0338-.0737.0592-.1555.093-.2291.0339-.0737.11-.1309.1523-.2046.0339-.0736.0423-.1636.0846-.2373.0423-.0736.0931-.1391.1354-.2127s.0846-.1391.1269-.2127c.0423-.0737.1015-.1391.1353-.2128.0423-.0736.0592-.1554.1015-.2291.0423-.0736.0931-.1391.1354-.2127s.0592-.1555.1015-.2291c.0423-.0737.1015-.1391.1438-.2046.0423-.0736.11-.1309.1523-.2045.0423-.0737.0508-.1637.0931-.2373.0422-.0736.1268-.1146.1776-.1882s.11-.13091.1523-.20455.0423-.17182.093-.23728c.0508-.07364.1438-.10637.1861-.18001.0508-.07364.0593-.16364.1016-.2291.0507-.07364.1015-.13092.1522-.20455.0508-.06546.0762-.12274.1269-.1882-.0846.01637-.1522.00001-.2284.01637-.0846.01636-.1692.03273-.2453.04091-.0846.01636-.1523.09-.2369.10637-.0846.01636-.1692 0-.2538.01636-.0846.01637-.1692.03273-.2453.04091-.0846.00819-.1777-.01636-.2538 0-.0846.00819-.1607.0491-.2453.05728s-.1777-.02455-.2538-.01637c-.0846.00819-.1607.07364-.2453.08183-.0846 0-.1777-.05728-.2538-.0491-.0846 0-.1692.0491-.2538.0491s-.1692-.02455-.2538-.02455-.1692.04909-.2538.04909-.1692-.00818-.2538-.01636c-.0846 0-.1776.02455-.2538.02455-.0846 0-.1692-.04092-.2538-.0491-.093 0-.1776.00818-.2537 0-.0931 0-.1777-.03273-.2538-.04091 0-.08182.0338-.16364.0338-.24546 0-.08183-.0254-.16365-.0338-.24547 0-.08182.0169-.16364.0084-.24547 0-.08182-.0677-.16364-.0761-.24546 0-.08182.0507-.17183.0423-.25365-.0085-.08182-.0254-.16364-.0423-.24546-.0085-.08183-.0254-.16365-.0423-.24547-.0085-.08182-.0339-.16364-.0508-.24546-.0169-.08183-.0169-.16365-.0338-.24547s-.0338-.16364-.0508-.24547c-.0169-.08182-.0761-.15546-.1015-.2291-.0254-.08182-.0169-.17182-.0423-.24546-.0254-.09001-.0677-.15546-.093-.2291-.0339-.09001-.0677-.16365-.0846-.2291-.0593-.14728.0253-.15547-.0846-.22092-.1185-.06546-.0931-.04091-.2623-.02455-.0761.00818-.1692.01636-.2622.03273-.0762.01636-.1692.04909-.2538.06546-.0846.01636-.1692.04909-.2538.08182-.0846.02454-.1607.06546-.2453.09-.0846.02455-.1608.05728-.2454.09001-.0761.03273-.1607.07364-.2368.11455-.0762.04091-.1523.08182-.2284.13091-.0762.04091-.1777.05728-.2454.10637s-.1269.11455-.1945.17183c-.0677.05727-.1185.12273-.1777.18819.0169.08182.0508.15546.0761.23728.017.08182.017.17183.0423.24546.0254.08183.0593.15547.0846.23729.0254.08182.0508.15546.0846.23728.0339.08182.0339.17183.0677.24547s.0761.14728.1184.22092.0677.15546.11.2291.1185.13091.1607.20455c.0423.07364.1016.1391.1439.20456.0507.07364.0676.15546.1099.2291.0508.07364.1016.13909.1523.20455.0508.07364.11.13092.1607.19637.0508.07364.0931.14728.1354.21274.0592.08182.1269.14728.1607.21274 0 .07364-.0761.15546-.093.24546-.0085.07364-.0254.15544-.0423.24544-.0169.0737-.0254.1637-.0423.2455-.0169.0736-.0254.1636-.0508.2455-.0254.0736-.0169.1636-.0423.2454-.0254.0737-.093.1473-.1184.2291-.0254.0737-.0592.1555-.0846.2373-.0254.0736-.0254.1718-.0508.2455-.0338.0736-.0592.1554-.093.2373-.0339.0736-.1015.1391-.1354.2127-.0338.0736-.0254.1718-.0592.2455-.0338.0736-.1269.1227-.1692.2045-.0338.0737-.0507.1637-.093.2373-.0339.0736-.0846.1473-.1269.2209-.0423.0737-.0423.1637-.0846.2373s-.0931.1391-.1354.2127c-.0423.0737-.1184.131-.1607.1964-.0423.0736-.0592.1637-.1015.2373s-.0677.1555-.1185.2209c-.0423.0737-.1099.1309-.1607.1964-.0508.0736-.0846.1473-.1354.2127-.0507.0655-.0846.1473-.1353.2128-.0508.0654-.1015.1309-.1523.1963-.0507.0655-.1353.1146-.1861.18-.0508.0655-.0677.1555-.1269.221-.0508.0654-.1269.1145-.1861.18-.0592.0654-.0761.1554-.1354.2209-.0592.0654-.1269.1145-.1861.1718s-.1522.09-.2115.1473c-.0592.0573-.0761.1636-.1353.2209s-.1692.0655-.2369.1227c-.0677.0573-.1269.1146-.1946.1637-.0676.0491-.1269.1145-.1945.1636-.0677.0491-.1438.09-.22.1391-.0761.0491-.1523.0737-.2284.1146-.07613.0409-.14381.0818-.2284.1227-.07614.0409-.16074.0655-.23687.0982-.07614.0327-.15228.0655-.23687.09-.0846.0245-.16074.0491-.24533.0736-.0846.0246-.15227.0982-.23687.1064-.0846.0164-.17765-.0327-.26225-.0245-.0846 0-.16919.0491-.25379.0491s-.16919.0163-.25379.0081c-.08459 0-.16919-.0245-.25379-.0327-.08459-.0082-.16919-.0409-.24533-.0573-.08459-.0163-.16073-.0491-.24533-.0736-.08459-.0246-.15227-.0655-.22841-.09-.07613-.0327-.14381-.0737-.21995-.1146-.07613-.0409-.17765-.0409-.23687-.09-.06767-.0491-.10151-.1391-.16073-.1963-.05922-.0573-.14381-.09-.19457-.1555s-.05922-.1555-.10152-.2291c-.0423-.0655-.12689-.1146-.16919-.1964-.03384-.0736 0-.1718-.02538-.2536-.02538-.0737-.09306-.1391-.11843-.2209-.01692-.0737-.02538-.1637-.0423-.2455s-.01692-.1637-.02538-.2455-.02538-.1554-.02538-.2454c0-.0819-.01692-.1637-.02538-.2455 0-.0818-.0423-.1636-.0423-.2455 0-.0818.06768-.1636.06768-.2454 0-.0819-.05076-.1637-.0423-.2455 0-.0818.01692-.1636.02538-.2455 0-.0818.05076-.1636.05922-.2454 0-.0819-.02538-.1719-.01692-.2537s.01692-.1636.03384-.2454c.00846-.0819.04229-.1637.05921-.2455s.01692-.1637.03384-.2455.05076-.1636.06768-.2373c.01692-.0818.05076-.1554.07614-.2372.02538-.0819.05075-.1555.07613-.2373s.06768-.1555.09306-.2291c.02538-.0818.03384-.1637.06768-.2373.03383-.0818.06767-.1555.10151-.2291s.02538-.1718.05922-.2455c.03384-.0736.12689-.1227.16919-.1963.0423-.0737.03384-.1719.0846-.2373.0423-.0737.10151-.1391.14381-.2046.05076-.0736.13536-.1145.17766-.18.05075-.0655.05921-.16364.10997-.22909.05076-.06546.14381-.10637.19457-.16365.05922-.06546.0846-.15546.14382-.21273.05921-.05728.11843-.12274.17765-.18001.06768-.05728.16073-.08182.21995-.13092.06768-.04909.11843-.12273.18611-.17182.07614-.0491.15227-.09001.21995-.13092.07614-.04091.16074-.06546.23687-.09819.07614-.04091.14382-.09818.21995-.13091.0846-.03273.17765-.01636.25379-.04091.0846-.02455.16073-.05728.24533-.07364.0846-.00818.17765 0 .25379 0 .09306 0 .18611-.01637.26225.00818.0846.03273.15227.09819.21148.15546.0592.05728.1269.12274.1607.20456.0339.07364.0423.16364.0593.24546.0169.08183-.0254.16365-.0254.25365 0 .08182.0338.16364.0338.25365 0 .08182-.0084.16364-.0254.25365-.0084.08178-.0676.15548-.0846.23728-.0169.0818-.0253.1636-.0423.2455-.0253.0818 0 .1718-.0338.2536-.0254.0818-.10151.1391-.13535.2209-.03383.0819-.05921.1555-.09305.2373-.03384.0737-.03384.1718-.06768.2455-.03384.0736-.05922.1554-.10151.2373-.0423.0736-.1269.1227-.1692.1963-.0423.0737-.05922.1637-.10151.2291-.05076.0737-.11844.131-.1692.1964-.05075.0655-.09305.1473-.14381.2046-.05922.0654-.13535.1391-.19457.2045.07614.1064.11843-.0327.27917-.0573.07613-.0163.15227-.0572.25379-.0818.07613-.0163.16919-.0327.25378-.0654.0846-.0246.1692-.0491.25379-.0819.08465-.0245.17765-.0245.26225-.0654.0761-.0327.1607-.0655.2453-.1064.0762-.0327.1523-.0818.2369-.1227.0761-.0409.1523-.09.2284-.1391.0761-.0409.1354-.1064.2115-.1555.0677-.0491.1438-.0982.2115-.1554.0677-.0491.1692-.0655.2453-.1228.0677-.0572.11-.1391.1777-.1963.0423-.0655.093-.131.1269-.2128.0338-.0736.1015-.1391.1269-.2291.0253-.0736.0338-.1636.0592-.2454.0169-.0819.0423-.1637.0592-.2455s-.0254-.1718-.0169-.2537c.0084-.0818.0423-.1636.0507-.24542 0-.08183-.0084-.17183-.0084-.25365s0-.16364-.0085-.25365c0-.08182-.0169-.16364-.0254-.25365-.0084-.08182-.0084-.17182-.0253-.25364-.017-.08183-.0508-.16365-.0762-.23729-.0254-.08182-.0592-.15546-.093-.23728-.0339-.08182-.0677-.15546-.11-.2291s-.0423-.17183-.0931-.24547c-.0507-.06545-.1438-.10637-.203-.16364-.0592-.05728-.1269-.11455-.1946-.16364-.0676-.0491-.1353-.09001-.2199-.13092-.0762-.04091-.1438-.09-.2284-.11455-.0762-.02455-.1523-.09-.2369-.11455-.0846-.01636-.1776.02455-.2707.01636-.0846 0-.1692 0-.2623 0-.0845 0-.16915-.00818-.25374 0-.0846 0-.16919.03273-.25379.0491-.0846.00818-.16919 0-.26225.01636-.0846.01637-.17765 0-.26225.01637-.0846.01636-.15227.09-.23687.11455-.0846.02454-.16919.04091-.24533.07364-.08459.02454-.16919.04091-.24533.07364-.07614.03272-.15227.07364-.22841.11455-.07613.03273-.16919.04909-.24533.09-.07613.04091-.15227.07364-.22841.11455s-.15227.07364-.22841.12273c-.07614.04091-.10997.1391-.18611.18001-.06768.04909-.17765.04091-.25379.09001-.06768.04909-.10998.13091-.17765.18819-.06768.04909-.1269.11455-.19457.17182-.06768.05728-.1269.11455-.18612.17183-.05921.05727-.13535.09818-.20303.15546-.05921.05727-.12689.11455-.18611.17182-.05922.05728-.14381.09819-.20303.15547-.05922.06545-.0846.15546-.13536.22092-.05075.06545-.09305.13909-.14381.20455s-.12689.11455-.16919.18819c-.05076.06546-.07614.15543-.1269.22093-.04229.0654-.09305.1391-.13535.2127-.0423.0737-.09306.1391-.13535.2128-.0423.0736-.07614.1472-.11844.2209-.0423.0736-.10998.1309-.14381.2127-.03384.0737-.10152.1391-.13536.2209-.03384.0737-.02538.1719-.05922.2455-.03383.0736-.04229.1636-.07613.2373-.02538.0818-.06768.1554-.09306.2291-.02538.0818-.02538.1636-.0423.2455-.02538.0818-.11843.1472-.13535.2291-.01692.0818 0 .1718-.01692.2536s-.06768.1555-.0846.2373.01692.1718 0 .2536c-.00846.0819 0 .1637 0 .2537 0 .0818-.04229.1636-.04229.2454v.2537.2536c0 .09-.00846.1719 0 .2537v.2536c0 .09.02537.1719.03383.2537 0 .09-.01692.1718-.00846.2618.00846.0818.02538.1718.03384.2537.01692.0818.00846.1718.02538.2536s.10152.1555.11844.2373 0 .1718.02538.2536c.02537.0819.08459.1555.10997.2291.02538.0819.02538.1719.05922.2537s.08459.1554.11843.2291c.03384.0818.07614.1554.11844.2291.0423.0736.09305.1473.14381.2127.05076.0737.0846.1473.13536.2209.05075.0655.09305.1473.14381.2128.05922.0654.12689.1145.19457.18.05922.0573.15228.09.21995.1391.06768.0573.13536.0982.21149.1473.07614.0491.13536.1063.21149.1472.07614.041.13536.1228.2115.1555.07613.0327.17765.0327.26224.0655.0846.0327.15228.0981.23687.1227.0846.0245.1692.0491.25379.0655.0846.0163.17766.0245.26225.0409.0846.0163.17765-.0164.27071-.0082.0846.0082.16919.0409.26225.0409.0846 0 .17765-.0246.26225-.0246s.17765.0655.26225.0655c.08459 0 .17765-.0164.26225-.0327.08459-.0082.16919-.0409.25379-.0573.08459-.0164.17765-.0164.26224-.0409.0846-.0246.16074-.0818.24533-.1064.0846-.0245.18612 0 .26225-.0245.0846-.0246.15228-.09.23687-.1228.0846-.0327.1692-.0409.25379-.0736.07609-.0327.13539-.1064.21999-.1473.0761-.0409.1776-.0327.2538-.0736.0761-.0409.1353-.1146.2114-.1555.0762-.0409.1354-.1063.2031-.1554s.1776-.0491.2538-.0982c.0676-.0491.1438-.0982.2115-.1555.0676-.0491.1438-.0982.2114-.1554.0677-.0573.11-.131.1777-.1882.0677-.0573.1269-.1146.1861-.1719.0592-.0572.11-.1309.1692-.1963.0592-.0573.1607-.0819.22-.1473.0592-.0573.1268-.1146.1861-.18.0592-.0655.0761-.1555.1353-.2209.0592-.0655.1354-.1064.1946-.1719.0592-.0654.1184-.1227.1776-.1882.0508-.0654.1016-.1391.1523-.2045.0508-.0655.0846-.1555.1354-.2209.0507-.0655.1353-.1146.1861-.18.0507-.0655.0507-.1719.1015-.2373.0508-.0655.1184-.1228.1692-.1964.0507-.0736.0846-.1473.1269-.2209.0507-.0737.1438-.1146.1861-.1882s.0592-.1636.11-.2373c.0423-.0736.093-.1391.1438-.2127.0423-.0737.0761-.1555.1184-.2291.0423-.0737.1015-.1391.1438-.2128.0423-.0736.0677-.1554.1016-.2372.0423-.0737.0761-.1555.1184-.2291.0423-.0737.1269-.1228.1692-.1964.0423-.0737.0592-.1637.1015-.2373s.0761-.1555.11-.2291c.0338-.0736.093-.1473.1269-.2209.0338-.0737.0423-.1718.0761-.2455.0338-.0736.1184-.1391.1523-.2127.0338-.0818.0507-.1637.0846-.2455.0338-.0818.0507-.1636.0846-.2373.0338-.0818.0423-.1636.0761-.2454.0338-.0819.0761-.1555.11-.2291.0338-.0819.0846-.1555.11-.2291.0338-.0819.0676-.1473.1015-.221.0846.0082.1607-.0163.2453-.0163s.1607.0654.2453.0736c.0846 0 .1692-.0491.2538-.0409.0846 0 .1692.0573.2454.0573.0845 0 .1691-.0246.2453-.0246.0846 0 .1692-.0081.2453-.0163.0846 0 .1692.0163.2538 0 .0846 0 .1607-.0328.2369-.0409-.0423.0736-.0508.1472-.0931.2209-.0423.0736-.1184.1227-.1607.1963-.0423.0737-.1015.131-.1438.2128-.0423.0736-.0339.1718-.0762.2455-.0423.0736-.1269.1227-.1692.1963-.0423.0737-.0592.1555-.1015.2291-.0423.0737-.0423.1637-.0846.2373-.0338.0736-.1015.1391-.1353.2127-.0339.0737-.0592.1555-.1015.2291-.0339.0737-.1185.131-.1523.2046-.0339.0736-.0508.1555-.0846.2373-.0339.0736-.0508.1554-.0846.2373-.0339.0736-.0423.1636-.0761.2373-.0339.0736-.1185.1309-.1523.2045-.0339.0736-.0169.1718-.0508.2455-.0338.0736-.11.1391-.1438.2127-.0338.0818-.0169.1718-.0508.2455-.0338.0818-.0423.1636-.0676.2373-.0254.0818-.0677.1554-.0931.2291-.0254.0818-.0846.1472-.1015.2291-.0254.0818-.0423.1636-.0677.2454s-.0507.1637-.0677.2373c-.0169.0818-.0592.1555-.0761.2373s-.0254.1636-.0338.2455c-.017.0818-.0254.1636-.0339.2454-.0084.0818.0254.1718.017.2537 0 .0818-.0423.1636-.0423.2454 0 .0819.0338.1637.0338.2455s0 .1636.0169.2455c.0085.0818.0338.1636.0508.2454.0169.0819.0084.1719.0338.2455.0254.0818.0592.1555.1015.2291.0339.0736.0592.1636.1015.2291.0508.0655.1185.1227.1777.18s.1184.1227.1861.1718.1607.0655.2369.0982c.0761.0327.1438.09.2284.1146.0761.0245.1692.0327.2538.0572.0846.0164.1692 0 .2622.0082.0846.0082.1608.0328.2538.0409.0846 0 .1692.0164.2538.0164s.1692-.0164.2538-.0245c.0846 0 .1692.0163.2622 0 .0846-.0082.1692-.041.2538-.0573.0846-.0164.1608-.0491.2454-.0737.0846-.0245.1776 0 .2622-.0163.0846-.0246.1523-.0818.2369-.1064.0761-.0327.1692-.0327.2538-.0655.0761-.0327.1607-.0654.2368-.1063.0762-.0327.1523-.0737.2284-.1146.0762-.0409.1439-.0982.22-.1391s.1523-.0818.2284-.1227c.0677-.0491.1269-.1145.1946-.1636s.1607-.0655.2284-.1228c.0677-.0491.1269-.1145.1946-.1636.0676-.0491.1353-.1064.1945-.1637.0677-.0572.1354-.0982.2031-.1554.0592-.0573.1015-.1309.1692-.1964.0592-.0573.1099-.1309.1691-.1882.0593-.0573.1523-.0982.2031-.1554.0592-.0655.1015-.1391.1523-.2046.0592-.0655.0845-.1473.1438-.2127.0507-.0655.1353-.1146.1861-.18.0507-.0655.093-.1391.1438-.2046.0507-.0655.0846-.1473.1353-.2127.0508-.0655.1269-.1228.1692-.1882.0423-.0737.0762-.1473.1185-.2209.0423-.0737.0592-.1637.1015-.2373.0423-.0737.0761-.1473.1184-.221.0423-.0736.0762-.1472.11-.2291.0338-.0736.1015-.139.1354-.2127.0338-.0736.0761-.1473.1099-.2291.0339-.0736.0423-.1636.0677-.2455.0338-.0736.0508-.1554.0846-.2372.0254-.0819.0846-.1473.1184-.221.0254-.0818.0508-.1636.0677-.2372.0254-.0819.0592-.1555.0846-.2373s0-.1718.0254-.2537c.0169-.0818.0338-.1636.0592-.2454.0169-.0819.1015-.1473.1184-.2291.017-.0819-.0338-.1719-.0253-.2537.0169-.0818.0761-.1554.0846-.2373.0084-.0818.0253-.1636.0423-.2454.0084-.0819.0338-.1637.0423-.2455 0-.0818.0169-.1636.0169-.2536 0-.0819-.0085-.1637 0-.2537 0-.0818-.0423-.1636-.0339-.2536 0-.0819.0085-.1637.0085-.2455s.0423-.1718.0423-.25366c0-.08182-.0169-.16364-.0254-.24546 0-.08182 0-.17183-.0084-.25365-.0085-.08182-.0677-.15546-.0846-.24546-.0085-.08183-.0085-.16365-.0254-.24547s-.0254-.16364-.0508-.24546c-.0169-.08183-.0677-.15547-.0846-.23729-.0254-.08182-.0592-.15546-.0846-.23728-.0253-.08182-.0423-.16364-.0676-.23728-.0254-.08183-.0339-.16365-.0677-.24547-.0339-.08182-.0762-.14728-.11-.2291-.0338-.07364-.0423-.16364-.0846-.23728-.0338-.07364-.1015-.1391-.1354-.21274-.0338-.07364-.0253-.17183-.0676-.24547s-.1015-.13909-.1438-.21273-.0762-.14728-.1185-.22092-.11-.13092-.1522-.20456c-.0423-.07364-.11-.13091-.1523-.19637-.0508-.06546-.1185-.12273-.1692-.18819-.0508-.06546-.0762-.15546-.1269-.22092-.0508-.06546-.1269-.11455-.1777-.18001-.0592-.06545-.1099-.13091-.1607-.19637-.0592-.06546-.0846-.15546-.1438-.21273-.0592-.05728-.1269-.11456-.1861-.17183-.0592-.05728-.1354-.10637-.2031-.16364-.0592-.05728-.1438-.09819-.2114-.14728-.0677-.05728-.1269-.11455-.1946-.16365-.0677-.05727-.1185-.12273-.1861-.18001-.0677-.04909-.1692-.06545-.2369-.11455-.0677-.04909-.1015-.14728-.1776-.18819-.0677-.04909-.1439-.09-.22-.13091-.0677-.04909-.1438-.09-.22-.1391-.0761-.04091-.1353-.10637-.2114-.14728-.0762-.04091-.1777-.04091-.2454-.08182-.0761-.04091-.1269-.12273-.203-.15546-.0761-.04091-.1777-.02455-.2623-.06546-.0761-.03273-.1522-.08182-.2284-.11455-.0761-.03273-.1607-.06546-.2368-.09818-.0762-.03273-.1523-.08183-.2284-.11456-.0762-.03272-.1523-.09-.2285-.12273-.0845-.03273-.1607-.04909-.2453-.08182-.0846-.02455-.1776-.01636-.2538-.04909-.0846-.02455-.1607-.06546-.2453-.09001-.0846-.02454-.1777-.00818-.2623-.03273-.0845-.02454-.1691-.04091-.2537-.05727-.0846-.01637-.1523-.08182-.2369-.10637-.0846-.01636-.1777.01637-.2623 0-.0846-.01636-.1692-.03273-.2537-.04909-.0846-.01637-.1608-.09001-.2454-.09819-.0846-.01636-.1692-.02455-.2538-.04091-.0846-.00818-.1776.03273-.2622.02455-.0846-.00819-.1692-.05728-.2538-.06546-.0846 0-.1777.01636-.2623 0-.0845 0-.1691.00818-.2622 0-.0846 0-.1692-.07364-.2538-.07364s-.1776.04909-.2622.04091c-.0846 0-.1692-.04091-.2623-.04091"/></svg>