<svg fill="none" height="50" viewBox="0 0 50 50" width="50" xmlns="http://www.w3.org/2000/svg"><g fill="#fff"><path d="m24.9996 17.1001c-4.4 0-7.9 3.5-7.9 7.9s3.5 7.9 7.9 7.9 7.9-3.5 7.9-7.9-3.5-7.9-7.9-7.9zm0 13c-2.8 0-5.1-2.3-5.1-5.1s2.3-5.1 5.1-5.1 5.1 2.3 5.1 5.1-2.3 5.1-5.1 5.1z"/><path d="m33.1998 18.6999c1.0493 0 1.9-.8507 1.9-1.9s-.8507-1.9-1.9-1.9-1.9.8507-1.9 1.9.8507 1.9 1.9 1.9z"/><path d="m40.2996 18.6001c-.1-1.6-.3-2.8-.7-3.7-.4-1-.9-1.9-1.8-2.7-.9-.9-1.7-1.4-2.7-1.8s-2.1-.6-3.7-.7-2.2-.1-6.4-.1-4.7 0-6.4.1c-1.6.1-2.8.3-3.7.7-1 .4-1.9.9-2.7 1.8s-1.4 1.7-1.8 2.7c-.39999 1-.59999 2.1-.69999 3.7s-.1 2.2-.1 6.4 0 4.7.1 6.4c.1 1.6.3 2.8.69999 3.7.4 1 .9 1.9 1.8 2.7s1.7 1.4 2.7 1.8 2.1.6 3.7.7 2.2.1 6.4.1 4.7 0 6.4-.1c1.6-.1 2.8-.3 3.7-.7 1-.4 1.9-.9 2.7-1.8.9-.9 1.4-1.7 1.8-2.7s.6-2.1.7-3.7.1-2.2.1-6.4 0-4.7-.1-6.4zm-2.7 12.6c-.1 1.5-.3 2.3-.5 2.9-.3.7-.6 1.2-1.2 1.8-.5.5-1.1.9-1.8 1.2-.5.2-1.4.5-2.9.5-1.6.1-2.1.1-6.2.1s-4.6 0-6.2-.1c-1.5-.1-2.3-.3-2.9-.5-.7-.3-1.2-.6-1.8-1.2-.5-.5-.9-1.1-1.2-1.8-.2-.5-.5-1.4-.5-2.9-.1-1.6-.1-2.1-.1-6.2s0-4.6.1-6.2c.1-1.5.3-2.3.5-2.9.3-.7.6-1.2 1.2-1.8.5-.5 1.1-.9 1.8-1.2.5-.2 1.4-.5 2.9-.5 1.6-.1 2.1-.1 6.2-.1s4.6 0 6.2.1c1.5.1 2.3.3 2.9.5.7.3 1.2.6 1.8 1.2.5.5.9 1.1 1.2 1.8.2.5.5 1.4.5 2.9.1 1.6.1 2.1.1 6.2s-.1 4.6-.1 6.2z"/></g></svg>