<svg fill="none" height="50" viewBox="0 0 50 50" width="50" xmlns="http://www.w3.org/2000/svg"><path clip-rule="evenodd" d="m37.8 10h-25.6c-1.2 0-2.2 1-2.2 2.2v25.7c0 1.2 1 2.2 2.2 2.2h25.6c1.2 0 2.2-1 2.2-2.2v-25.7c0-1.2-1-2.2-2.2-2.2zm-23.4 25.6h4.4v-14.4h-4.4zm2.3-16.3c-1.4 0-2.6-1.2-2.6-2.6s1.2-2.6 2.6-2.6 2.6 1.2 2.6 2.6-1.2 2.6-2.6 2.6zm18.9 16.3h-4.4v-7c0-1.7 0-3.8-2.3-3.8s-2.7 1.8-2.7 3.7v7.1h-4.4v-14.4h4.2v2c.6-1.1 2-2.3 4.2-2.3 4.5 0 5.3 3 5.3 6.8v7.9z" fill="#fff" fill-rule="evenodd"/></svg>