<svg width="50" height="50" viewBox="0 0 50 50" fill="none" xmlns="http://www.w3.org/2000/svg">
<path fill-rule="evenodd" clip-rule="evenodd" d="M37.8 10H12.2C11 10 10 11 10 12.2V37.9C10 39.1 11 40.1 12.2 40.1H37.8C39 40.1 40 39.1 40 37.9V12.2C40 11 39 10 37.8 10ZM14.4 35.6H18.8V21.2H14.4V35.6ZM16.7 19.3C15.3 19.3 14.1 18.1 14.1 16.7C14.1 15.3 15.3 14.1 16.7 14.1C18.1 14.1 19.3 15.3 19.3 16.7C19.3 18.1 18.1 19.3 16.7 19.3ZM35.6 35.6H31.2V28.6C31.2 26.9 31.2 24.8 28.9 24.8C26.6 24.8 26.2 26.6 26.2 28.5V35.6H21.8V21.2H26V23.2C26.6 22.1 28 20.9 30.2 20.9C34.7 20.9 35.5 23.9 35.5 27.7V35.6H35.6Z" fill="white"/>
</svg>
